/* XPM */
static char * 13_xpm[] = {
"64 64 649 2",
"  	c #50B2D7",
". 	c #48AED5",
"+ 	c #49AFD6",
"@ 	c #49AED5",
"# 	c #4CB0D6",
"$ 	c #4FB2D7",
"% 	c #59B7DA",
"& 	c #5AB7DA",
"* 	c #57B6D9",
"= 	c #51B2D8",
"- 	c #4BB0D6",
"; 	c #57B6DA",
"> 	c #60BADC",
", 	c #5EB9DB",
"' 	c #4DB0D6",
") 	c #4DB1D7",
"! 	c #56B5D9",
"~ 	c #66BCDD",
"{ 	c #66BDDD",
"] 	c #6CBFDF",
"^ 	c #62BBDC",
"/ 	c #47AED5",
"( 	c #60B9DC",
"_ 	c #51B3D8",
": 	c #4AAFD6",
"< 	c #4EB1D7",
"[ 	c #56B4D9",
"} 	c #58B6DA",
"| 	c #5DB8DB",
"1 	c #69BEDE",
"2 	c #63BBDD",
"3 	c #5BB7DB",
"4 	c #63BCDD",
"5 	c #48AFD6",
"6 	c #5CB9DB",
"7 	c #54B4D9",
"8 	c #5DB9DB",
"9 	c #4FB1D7",
"0 	c #59B6DA",
"a 	c #53B4D8",
"b 	c #55B5D9",
"c 	c #5AB8DA",
"d 	c #53B4D9",
"e 	c #55B4D9",
"f 	c #4AB0D6",
"g 	c #46AED5",
"h 	c #49AFD5",
"i 	c #64BCDD",
"j 	c #6ABFDF",
"k 	c #66BDDE",
"l 	c #58B7DA",
"m 	c #4DB2D7",
"n 	c #4BB1D7",
"o 	c #6BBFDF",
"p 	c #67BDDE",
"q 	c #6CC0DF",
"r 	c #69BEDF",
"s 	c #54B5D9",
"t 	c #4BB1D6",
"u 	c #4CB1D7",
"v 	c #5DB9DC",
"w 	c #5CB8DB",
"x 	c #6DC0E0",
"y 	c #68BEDE",
"z 	c #4DB1D6",
"A 	c #4EB2D7",
"B 	c #5EB9DC",
"C 	c #67BEDE",
"D 	c #62BBDD",
"E 	c #6CC0E0",
"F 	c #5BB8DB",
"G 	c #4CB1D6",
"H 	c #56B6DA",
"I 	c #49B0D6",
"J 	c #65BCDD",
"K 	c #67BDDD",
"L 	c #52B4D8",
"M 	c #5BB8DA",
"N 	c #65BCDE",
"O 	c #52B3D8",
"P 	c #5FBADC",
"Q 	c #68BDDE",
"R 	c #60BBDC",
"S 	c #50B3D7",
"T 	c #48AFD5",
"U 	c #4FB2D8",
"V 	c #55B6D9",
"W 	c #50B3D8",
"X 	c #5FB9DC",
"Y 	c #47AFD6",
"Z 	c #69BFDF",
"` 	c #5AB7DB",
" .	c #56B5DA",
"..	c #47AFD5",
"+.	c #4FB3D8",
"@.	c #65BDDE",
"#.	c #52B4D9",
"$.	c #6BC0DF",
"%.	c #50B2D8",
"&.	c #59B7DB",
"*.	c #56B6D9",
"=.	c #53B3D9",
"-.	c #4CB0D7",
";.	c #47AED6",
">.	c #46ADD5",
",.	c #48AED6",
"'.	c #61BADC",
").	c #6BC0E0",
"!.	c #4BB0D7",
"~.	c #57B5DA",
"{.	c #4DB0D7",
"].	c #45ADD4",
"^.	c #61BBDC",
"/.	c #51B3D7",
"(.	c #57B5D9",
"_.	c #54B4D8",
":.	c #4EB2D6",
"<.	c #67BEDD",
"[.	c #55B5D8",
"}.	c #46ADD4",
"|.	c #4EB1D6",
"1.	c #58B6D9",
"2.	c #54B5D8",
"3.	c #6ABFDE",
"4.	c #5DB8DA",
"5.	c #4AAFD5",
"6.	c #55B4D8",
"7.	c #5FB9DB",
"8.	c #5BB7DA",
"9.	c #60BADB",
"0.	c #5FBADB",
"a.	c #47AED4",
"b.	c #5CB8DA",
"c.	c #4FB2D6",
"d.	c #63BBDC",
"e.	c #63BCDC",
"f.	c #4BB0D5",
"g.	c #58B7D9",
"h.	c #62BCDC",
"i.	c #69BFDE",
"j.	c #59B7D9",
"k.	c #46AED4",
"l.	c #48AED4",
"m.	c #53B4D7",
"n.	c #4AB0D5",
"o.	c #52B3D7",
"p.	c #65BDDD",
"q.	c #76B8AA",
"r.	c #5AB6D5",
"s.	c #52B4D7",
"t.	c #6BBFDE",
"u.	c #9FC593",
"v.	c #D3CB47",
"w.	c #8CC3AD",
"x.	c #81C1BB",
"y.	c #5EBADB",
"z.	c #56B5D8",
"A.	c #57B7D9",
"B.	c #44ADD4",
"C.	c #4FB3D7",
"D.	c #5CB9DA",
"E.	c #51B4D8",
"F.	c #A7C06D",
"G.	c #FECF0B",
"H.	c #E0CD32",
"I.	c #66BAD0",
"J.	c #6AC0DF",
"K.	c #5FBBDC",
"L.	c #45AED4",
"M.	c #68BFDE",
"N.	c #45ADD5",
"O.	c #75B69E",
"P.	c #C7C646",
"Q.	c #DACA31",
"R.	c #B7C561",
"S.	c #6FADA8",
"T.	c #4CAECF",
"U.	c #45ACD4",
"V.	c #4BAFD6",
"W.	c #79B69D",
"X.	c #44ACD4",
"Y.	c #92AC83",
"Z.	c #8BAC8A",
"`.	c #64BCDE",
" +	c #51B2D7",
".+	c #4CB0D5",
"++	c #C4AD52",
"@+	c #EDAB22",
"#+	c #9FAA74",
"$+	c #A2A870",
"%+	c #71AEAE",
"&+	c #53B3D8",
"*+	c #62BADC",
"=+	c #47ADD5",
"-+	c #6BBEDE",
";+	c #76C0D2",
">+	c #62B9D6",
",+	c #75BCCE",
"'+	c #D0B04E",
")+	c #F6AA18",
"!+	c #F6AA19",
"~+	c #EDA923",
"{+	c #89B9B1",
"]+	c #7FC2CA",
"^+	c #D6CD72",
"/+	c #F3CC49",
"(+	c #F2D154",
"_+	c #D7CF72",
":+	c #B5C789",
"<+	c #8EBFA7",
"[+	c #52B1CF",
"}+	c #89B8AE",
"|+	c #8FB5A2",
"1+	c #A4B282",
"2+	c #F5A919",
"3+	c #C7AF58",
"4+	c #44ADD5",
"5+	c #58B6D8",
"6+	c #A0C39D",
"7+	c #EFD158",
"8+	c #F0C33B",
"9+	c #F1C848",
"0+	c #F9EAA8",
"a+	c #FDF7CA",
"b+	c #FCF3BD",
"c+	c #FCF1B7",
"d+	c #F6D968",
"e+	c #DACC68",
"f+	c #BFC982",
"g+	c #9FC6A8",
"h+	c #61B6CB",
"i+	c #4FB1D4",
"j+	c #C2AA50",
"k+	c #97AF87",
"l+	c #5EBADC",
"m+	c #5DB3C8",
"n+	c #C4C878",
"o+	c #F7D556",
"p+	c #F2C740",
"q+	c #EFC238",
"r+	c #F1C747",
"s+	c #FDF8CA",
"t+	c #FAE794",
"u+	c #FDF5C0",
"v+	c #FAEBAB",
"w+	c #EFC239",
"x+	c #F0C33A",
"y+	c #F2C741",
"z+	c #F5CF4F",
"A+	c #E2D167",
"B+	c #B7C88E",
"C+	c #59B0C0",
"D+	c #5DB2C8",
"E+	c #71B0B1",
"F+	c #60BAD9",
"G+	c #5EB9D9",
"H+	c #5AB8DB",
"I+	c #4EB1D5",
"J+	c #84BBA8",
"K+	c #EED35D",
"L+	c #F8D454",
"M+	c #F8D556",
"N+	c #F3D160",
"O+	c #F0C543",
"P+	c #EFC037",
"Q+	c #F0C239",
"R+	c #F8DB6B",
"S+	c #FBEBA0",
"T+	c #FDF5C2",
"U+	c #FAE796",
"V+	c #EEBF36",
"W+	c #EEBE35",
"X+	c #F4CC48",
"Y+	c #F8D862",
"Z+	c #F9E084",
"`+	c #DCBF33",
" @	c #5DB8D7",
".@	c #65BDDC",
"+@	c #A1C58D",
"@@	c #6CBED9",
"#@	c #78C1D0",
"$@	c #CBCD80",
"%@	c #F7D455",
"&@	c #F8D455",
"*@	c #F8D555",
"=@	c #F8D75D",
"-@	c #FCF2BC",
";@	c #FDF7CC",
">@	c #F5D879",
",@	c #F3CE58",
"'@	c #FDF7CB",
")@	c #F9DF79",
"!@	c #F6D251",
"~@	c #EFBF35",
"{@	c #F3CA45",
"]@	c #F7CD3A",
"^@	c #F2BB04",
"/@	c #ECAE00",
"(@	c #F1B600",
"_@	c #8DB37D",
":@	c #4DB2D6",
"<@	c #57B3CC",
"[@	c #B9C65F",
"}@	c #ECCF20",
"|@	c #F8D013",
"1@	c #72BFCF",
"2@	c #66BEDE",
"3@	c #87BDAB",
"4@	c #EED25C",
"5@	c #F8D353",
"6@	c #F8D453",
"7@	c #F9DC70",
"8@	c #FBE99B",
"9@	c #FBE99A",
"0@	c #F3D263",
"a@	c #F6E08B",
"b@	c #FDF8CD",
"c@	c #FEFBD7",
"d@	c #FDF9CD",
"e@	c #F8D966",
"f@	c #F6CF4D",
"g@	c #EFC138",
"h@	c #F5CC48",
"i@	c #F6CA2E",
"j@	c #EEB300",
"k@	c #E4A200",
"l@	c #E29F01",
"m@	c #E7A800",
"n@	c #D5B924",
"o@	c #46ACD0",
"p@	c #5BB9DA",
"q@	c #68BFDF",
"r@	c #62BCDD",
"s@	c #45AED3",
"t@	c #CEC83E",
"u@	c #FCD10D",
"v@	c #C3C44A",
"w@	c #71B8AD",
"x@	c #42ACD3",
"y@	c #49B0D5",
"z@	c #5BB4CB",
"A@	c #BBC886",
"B@	c #F2C843",
"C@	c #FCF3BA",
"D@	c #FCF2B5",
"E@	c #FAE690",
"F@	c #FDF8CB",
"G@	c #F7E08C",
"H@	c #F0C541",
"I@	c #F6DB7B",
"J@	c #F9DB6A",
"K@	c #F7D353",
"L@	c #F5CD45",
"M@	c #F5C417",
"N@	c #F0B700",
"O@	c #E9AA00",
"P@	c #E9AB00",
"Q@	c #E7A900",
"R@	c #EDB200",
"S@	c #7FB38E",
"T@	c #CAC84F",
"U@	c #92C196",
"V@	c #7AB8AE",
"W@	c #E0CF65",
"X@	c #F2C63F",
"Y@	c #EFC139",
"Z@	c #F6D45E",
"`@	c #FAE487",
" #	c #FDF6C3",
".#	c #FAE58C",
"+#	c #F9E9A2",
"@#	c #FDF9D0",
"##	c #F0C43B",
"$#	c #F8D557",
"%#	c #F7D041",
"&#	c #F5C20B",
"*#	c #F5BF00",
"=#	c #F4BE00",
"-#	c #F4BD00",
";#	c #F4BC00",
">#	c #F5BE00",
",#	c #F3BB00",
"'#	c #D1BB2A",
")#	c #62BAD8",
"!#	c #68BEDF",
"~#	c #6DB9C0",
"{#	c #64BBDD",
"]#	c #5EB7D4",
"^#	c #BFCB8A",
"/#	c #F4CF4D",
"(#	c #F0C23A",
"_#	c #EFC33D",
":#	c #FBF1BB",
"<#	c #FDF7C7",
"[#	c #F8DA68",
"}#	c #FCF2B7",
"|#	c #FAE68F",
"1#	c #F9DD73",
"2#	c #FCEFAE",
"3#	c #FEFAD3",
"4#	c #F8E59A",
"5#	c #F2C842",
"6#	c #F7CC31",
"7#	c #F5BE02",
"8#	c #F5BD00",
"9#	c #F4BA00",
"0#	c #78B399",
"a#	c #43ACD4",
"b#	c #43ABD3",
"c#	c #7DBDBA",
"d#	c #DDCF6A",
"e#	c #F3C944",
"f#	c #EFC036",
"g#	c #EFBF36",
"h#	c #F5D877",
"i#	c #FFFCD9",
"j#	c #FAE385",
"k#	c #FAE795",
"l#	c #FDF9D1",
"m#	c #FEFCD7",
"n#	c #FAE07B",
"o#	c #F7D352",
"p#	c #F0C43D",
"q#	c #F0C339",
"r#	c #EFC33A",
"s#	c #F5CF4D",
"t#	c #F8D553",
"u#	c #F6C720",
"v#	c #D0BA30",
"w#	c #42ABD3",
"x#	c #46ACD2",
"y#	c #A6C28F",
"z#	c #F3D459",
"A#	c #EFC137",
"B#	c #F4D56D",
"C#	c #FAE48A",
"D#	c #F8D860",
"E#	c #FAE68E",
"F#	c #FEFCD8",
"G#	c #FAE282",
"H#	c #F8D249",
"I#	c #F5C10E",
"J#	c #F5C000",
"K#	c #C0BB4C",
"L#	c #A2BB7A",
"M#	c #F9E495",
"N#	c #F8D351",
"O#	c #F8D350",
"P#	c #F6D150",
"Q#	c #EFC33C",
"R#	c #FBF0B6",
"S#	c #FEFBD5",
"T#	c #FEF8CC",
"U#	c #FEFBD4",
"V#	c #FCF1B4",
"W#	c #F8D559",
"X#	c #F7D251",
"Y#	c #EFC038",
"Z#	c #F7CE39",
"`#	c #F5BF06",
" $	c #F4BB00",
".$	c #F5BC00",
"+$	c #B8B84A",
"@$	c #59B3CD",
"#$	c #6EBED5",
"$$	c #5FB9D9",
"%$	c #42ACD4",
"&$	c #61BADB",
"*$	c #E4BF18",
"=$	c #F5C517",
"-$	c #F5C104",
";$	c #F5BF04",
">$	c #F5C51A",
",$	c #F7CE3D",
"'$	c #F5CE46",
")$	c #F4CD4B",
"!$	c #FAE58D",
"~$	c #FBEA9E",
"{$	c #FAE180",
"]$	c #F6CE4A",
"^$	c #F6C827",
"/$	c #F0BC04",
"($	c #97B36E",
"_$	c #43ABD1",
":$	c #4FB0D1",
"<$	c #52B2D1",
"[$	c #51B2D4",
"}$	c #ACC166",
"|$	c #55B4D4",
"1$	c #41ABD3",
"2$	c #85BDB0",
"3$	c #F5BF09",
"4$	c #F6C726",
"5$	c #F7CC37",
"6$	c #F7CF43",
"7$	c #F8D761",
"8$	c #F9DB70",
"9$	c #F6C622",
"0$	c #F3BA00",
"a$	c #EBBB0B",
"b$	c #7BB18F",
"c$	c #4CAFCF",
"d$	c #C3C648",
"e$	c #E0CA29",
"f$	c #EACC20",
"g$	c #4CAFCE",
"h$	c #64BDDD",
"i$	c #AEBE6E",
"j$	c #F9DD78",
"k$	c #F8D661",
"l$	c #F5BE03",
"m$	c #DDBB1B",
"n$	c #65AFA9",
"o$	c #6FBBC6",
"p$	c #FCD00D",
"q$	c #FDCF0B",
"r$	c #A8C069",
"s$	c #CCBD39",
"t$	c #F5C20C",
"u$	c #F5C109",
"v$	c #C7B935",
"w$	c #52ACC0",
"x$	c #76BAB1",
"y$	c #C0C44C",
"z$	c #6CB3A3",
"A$	c #7EB791",
"B$	c #46ACCE",
"C$	c #70BCCC",
"D$	c #F2BF03",
"E$	c #EDB400",
"F$	c #F5C315",
"G$	c #F6C61D",
"H$	c #AEB552",
"I$	c #48ACCB",
"J$	c #5FB0B2",
"K$	c #4AACCA",
"L$	c #9DBE8B",
"M$	c #F2BB00",
"N$	c #F5BF08",
"O$	c #F6C926",
"P$	c #F2BF02",
"Q$	c #95B578",
"R$	c #61BBDD",
"S$	c #B3BA57",
"T$	c #EBAE00",
"U$	c #F5BE01",
"V$	c #F6CB2F",
"W$	c #EABD0C",
"X$	c #73B098",
"Y$	c #7ABCC6",
"Z$	c #45ACD0",
"`$	c #E8BC0F",
" %	c #EAAC00",
".%	c #EDB000",
"+%	c #F7CB2F",
"@%	c #F5BD02",
"#%	c #DFBD21",
"$%	c #70B7B6",
"%%	c #B9AB5B",
"&%	c #ADBC6E",
"*%	c #DEBD24",
"=%	c #F1BE06",
"-%	c #F3BC00",
";%	c #F6C92B",
">%	c #F5BF05",
",%	c #CEBE3B",
"'%	c #70BCCB",
")%	c #52B2D4",
"!%	c #57B1CD",
"~%	c #62BADB",
"{%	c #8FB6A4",
"]%	c #F4A91A",
"^%	c #9AB493",
"/%	c #68BDDB",
"(%	c #54B4D7",
"_%	c #67BAD2",
":%	c #96BF97",
"<%	c #BCBE59",
"[%	c #D5BF32",
"}%	c #EFBE09",
"|%	c #F6C824",
"1%	c #F5C10C",
"2%	c #B9BB54",
"3%	c #6ABED9",
"4%	c #6DB5C1",
"5%	c #52B0CF",
"6%	c #4EAFCF",
"7%	c #B2AC67",
"8%	c #5DB2C9",
"9%	c #58B0C8",
"0%	c #C5AD55",
"a%	c #F5A718",
"b%	c #F5A717",
"c%	c #ECAA25",
"d%	c #A9AD6E",
"e%	c #69B9CF",
"f%	c #59B5D4",
"g%	c #77B094",
"h%	c #9EB465",
"i%	c #C2B83B",
"j%	c #E7BD10",
"k%	c #F5C41A",
"l%	c #F5C319",
"m%	c #EFBB06",
"n%	c #8CB27A",
"o%	c #43ACD3",
"p%	c #97B59B",
"q%	c #EFAB1F",
"r%	c #BFB061",
"s%	c #D3AE45",
"t%	c #DDA931",
"u%	c #42ABD1",
"v%	c #56B2D0",
"w%	c #A1B187",
"x%	c #ECA723",
"y%	c #88B7AD",
"z%	c #69BEDB",
"A%	c #86BEB0",
"B%	c #A9BD77",
"C%	c #C4BE4D",
"D%	c #E9BF13",
"E%	c #F5C10D",
"F%	c #E7BE14",
"G%	c #78B296",
"H%	c #5AB7D9",
"I%	c #CBAE4F",
"J%	c #F6A918",
"K%	c #BFAB52",
"L%	c #B0B379",
"M%	c #77BBC8",
"N%	c #69BEDC",
"O%	c #82BFB6",
"P%	c #9FBD87",
"Q%	c #A4BD7F",
"R%	c #7BBDBE",
"S%	c #86AB8D",
"T%	c #F6AB19",
"U%	c #E8AC2A",
"V%	c #6EBCD4",
"W%	c #71BACB",
"X%	c #63B9D6",
"Y%	c #84AC8F",
"Z%	c #D1AE4B",
"`%	c #8BB8AC",
" &	c #99B89B",
".&	c #A7B485",
"+&	c #9DB289",
"@&	c #72BDD1",
"#&	c #6ABDDC",
"  . + . . @ # + . . + . . . . . $ % & * = - - - . + . ; > , ' + # ) ! ~ { ] ^ + / # > ( & _ : + . < [ } | ~ 1 2 , & 3 > 4 4 ( . ",
"| < . 5 . / / / 5 / . / / < 6 ! .   7 } 8 + / / . 5 + 9 . _ 3 0 a 5 ) b % c d d e a f ) / / . g . 5 . / $ . h i ] j k l ) _ < / ",
"m / / / / / / g / / / - % n / . 7 o o i 4 p q r i 4 s + 5 t ; u 5 + v w x y | % b z g / f _ A g 5 / g / + g / A B C D E F G g / ",
"/ 5 ! % % & b e b e H / / / _ ! I ) $ _ J q y ^ ^ K + / - * ; ) G d ) - J F / g g / L r b % M ) / / g g - / b r E ] p 2 % - / / ",
"N C 8 ) - , & i 7 7 G ) l - O L / f % b / ) & w P L 5 5 5 5 / ; 4 y B   d M y Q R } n g / + S ) T F i y I / f C C 3 w - A g } $ ",
"% ) A $ A k J p # / U V s / 5 / 5 W | ; / L E o > A / + ) ) / / S / 5 / % k B X } u U - / g / A i k B r 8 / g e P P _ / u / 5 / ",
"w U Y Y O Z ` L / _ + / / g - O 8 , D P m W  .f / / Y _ % % f s - / u ..m f / Y g g A s % } 4 } g +.m f d 8 P D o @.#.g + V 3 s ",
"$.$.2 %.&.! *.=.: A + - U -./ ;.+ ;.;.>._ ,.+ >.>.>.;.: 7 '.).$.i } w i P - ;.>.>.>.!.7 >.-.7 L 8 | 7 %.w ! ! >.>.!., w ~.: ;.>.",
"$.$.$.j & a ! C 4 k 2 y $.i   >.= M s / h ! _ >.>.>./ w 2 * &   _ % 8 b + {.e >./ + - - >.]./ ].  O X ^./.$ # . : < h ].>.(.) / ",
"_.a ! M *.:.a y <.. ].: ! [.T }./ - }./ }.}.|.1._.2.& ^ <.3.q $.$.$.q 3.4.h a h 1.' }.5.(./.5.}.z }.].].5.].}.5.}.h 6.1./.5.} h ",
"$   _.* O . T |.G }.}.h 8 7.1 '.5.}./ / |.* & 8.J 1 9.! l 8 <.4 b 1.b 5.T 5._.0.5./ ' ! 9.^.^.^.M }.5.a.}.}.].  h / /.O z }.}./ ",
"z # }.5.z . / / / h * 8 * 5.|.% b.! c.# _.8.i $.d.  |.6.{ e.* % . }.. h |.}.e b , - { ^ , * }.h 1.1 $.o { K , 5.5.# / 5.f.z $   ",
"a a g.> $.h.M & % 8 , % $ /.a s i.! a a j.1.b a m a $ A _.1.$ :.g h # # T a./ ]./ . b.O $ h h _.G ].k./.% % 8 0.*   6 l ..].].}.",
"1.0.c _ G j._.* % e.^.0.- L - # f h g h g g [.* 9.J q 1 C P ! S l - a _.z ].}.g l.  h - m.M b z / ].].z * /.n.G _ /.- a.].].g ].",
"*.W g }.O a b.^ 8 8.* * *.# j.# g $ _.& % 8.i , 2 i % & 9.[.z h - / ].n.a.|./.}.g + O 1.1.% T h ].].z S a _.> $.{ 8 $ $ o.].5.b ",
"e.M - g ) / $ 7 c M 0.p.p.^ A h /.*.s 8 6 > > q.r.a G [.s.S g g.$.i _.n.! 1 3., G b a }.].].].}.:./.^.t.$.$.i.D $.$.$.$.$.> } $.",
"b.O 8 z $ ].].g L & i C i > / ].g T < 8 $.$.$.u.v.w.x.$.$.i < h $ $ a z n././.! 1.L # / A g ].].h *.s.*.y.p.k { $.$.$.$.i & L z.",
"0.A.% b c :.B.g g _ c ) ..m C.a A - t a D.E.s.F.G.H.I.4 ^.6 L % l 8 J.K.L L.B.../ g f G f B.].B.W C M.Z M.J.p.y R p.y.% f B.C.].",
"z / / T N.B.B.< * w w 8 * ^.i > : S < < # . O.P.Q.R.O # G _ s _.s L S A b F b *.$ - }.N./ B.h S.T.T : A *.6 8 *.l $   g B./ $ s ",
"< {.U.N.U.>.6.| D y J p > > b V.9 ! o.: a 1.$ @ # W.U.N.U.$ ! ^ '.O h + N.< / : X.U.X.}.>.  N.Y.Z.X.X.X.X.N.U.# z & | `.2 & O : ",
"^ k / >. +k k j ^ , $ : / >.'  +. / - V.: / 7   # / |.= * J j > & w 2 * b '.i b / . V.& 7 # .+++@+#+$+%+$ < + X.- X.X./ b # < o.",
"p - >.9 ! 9 _.< & O % &+: (.. *+8 - A =+O . . /.b = '.j j j j -+;+>+! 1 1 M # X.X.U.. * > ,+'+)+!+~+{+j o j j ^.| &+! $ $ ! G _.",
"+ X.X.U.X./ f O & > | p y k ) O _ ; 1.f _ - ) + ! b > i j j ]+^+/+(+_+:+<+[+].X.< , y j j }+|+1+2+3+j j j j j y j j j w < G X.X.",
">./ 4+/ h a j B k p Z y F z + 5 g % P > p ; R [.2 y @.F 5+6+7+8+9+0+a+b+c+d+e+f+g+h+i+- g G f z j+k+d A P > } M i D ^.4 ; } F F ",
"N.5 T X.>.) L %.7 b Z l+P F L - ) + $ f s C ^.P L d %.m+n+o+p+q+r+0+s+t+u+v+w+x+y+z+A+B+C+l O   D+E+S + _ _ % 8 k k j @.j j j j ",
"+ 4+4+4+5 : L $ d _ < F+G+% u H+E.+ 4+_.d L L a ) I+J+K+L+M+N+O+P+Q+R+S+T+U+P+V+W+X+Y+Z+`+ @M ; / : - U y Z C 8 & W F ` ; ; % $ ",
"4 # h B./ X.S z _.M .@+@@@p.Z C y.% '.j j p.P Z #@$@%@&@*@=@-@;@>@,@'@)@&@!@P+~@{@]@^@/@(@_@g B.# T 5.2.& % % 8 8 L z _.* / h T ",
"G a.n.* b b L :@<@[@}@|@1@Z y p.2@, b z $ a :.3@4@5@6@7@8@9@0@a@b@c@d@e@L+f@g@h@i@j@k@l@m@n@o@_ 8 C Z Z Z Z Z Z Z Z Z i i c.B.M ",
"w 6 p@q@h.r@C c :.s@t@u@v@w@s.L h h k.x@y@z@A@B@y+M+L+C@D@E@F@G@H@I@J@L+&@K@L@M@N@O@P@P@Q@R@S@E.A _ * C q@Z Z Z Z 2@y p.4 D.....",
"M 8 p.l+* L h - f.! T@U@c.[.k M a.0.4 * V@W@X@Y@Z@5@L+`@ #.#+#@###y+$#*@*@%#&#*#=#-#;#>#=#,#'#)#. $ _.k._.y C k Z 2@p.!#C 1.! 1.",
"b.& ].- }.].& 8.( 8 ~#b.J M p y {#k ]#^#/#(#_#:#<#[#}#|#1#2#3#4#Q+5#*@M+6#7#>#8#>#;#9#;#>#>#*#0#z >.. a#/ X.a  +&+*  +D '.h }.b#",
"b#a#V.z . z 1.'., r @.^.4 8 k * 1.c#d#e#f#g#h#i#j#k#l#m#n#o#p#q#r#s#t#u#*#>#>#*#*#>#>#8#8#*#;#v#M i i 2 k '.r X = @ . - a#b#_.} ",
"O w#b## / a#a#a#a#z . _. +a < x#y#z#e#V+f#A#B#m#C#D#E#F#G#o#Q+x+{@H#I#>#>#J#>#>#>#;#=#;#-#>#;#K#1 p '.i R i 8 - 8.. a#w#/ | h / ",
"M 7 B R /.P > ].].b Z 8 B.a 7 L#M#N#O#P#5#x+Q#R#S#T#U#V#W#X#Y#e#Z#`# $.$.$>#-#>#8#8#>#>#8#>#+$@$_ k.}.# *.! 2 #$$$5.%$].T O A - ",
"!#!#!#!#Z '.k D D - > p.% 2 &$*$=$-$;$>$i@,$'$)$!$~${$$#6@X#]$^$8#>#8#;#;#.$8#*#>#*#8#>#/$($_$%$w#g / a#:$<$[$}$|$M % 1$1$_.. %$",
"P k i y !#^ 4 s P i p.!#r !#2$-#;# $ $8#>#>#8#3$4$5$6$7$8$Z+9$8#.$ $ $.$;#8#;#8#=#8#0$a$b$1$1$1$w#S > 7 c$d$e$f$g$_.g %$W w#1$1$",
"B._.N.(.% h$> y !#!#r !#r !#i$*#=#>#8#>#;#;#>#8#>#>#9#9$j$k$l$>#8#*#*#*#J#;#8#;# $;#m$n$%$w#1$k.%$1$) 4 ^.o$p$q$r$B.B.%$/ B.W w#",
"w#%$1$w#%$%$%$].B./ - G   > s$*#J#J#*#-#8#;#>#>#=#>#;#.$t$u$>#8#J#>#J#>#8#-#8#;# $v$w$1$1$1$w#1$1$1$w#1$f x$y$z$A$B$1$1$1$]., z ",
"].a#1$%$w#%$%$1.P ].F y C C$D$E$=#*#;#8#;#>#*#J#J#>#8#9#F$G$>#*#J#J#J#>#8#;#8#*#H$I$w#%$N.].%$%$1$k.# B.1$J$K$1$%$1$1$%$].h x@1$",
"< B.a#- %$B.1$1$%$%$^.M y L$;#m@M$;#;#.$8#>#>#=#>#-#-#-#N$O$J#J#*#*#8#8#>#>#P$Q$  %$T '.r r P % * D p k R$b _ w > > P p.!#r i . ",
"w#a#+ O d b - b w#a % % i S$;#k@T$8#;# $;#>#>#>#>#8#*#8#U$V$>#>#8#-#8#8#*#W$X$%$_.h } r r r r r !#r C Z Z r r !#r Z r Z h$Z & % ",
"/ M i i a 8.6 !#i Y$$ ].Z$`$-# %k@.%-#-#*#J#-#8#;#8#8#-#8#+%@%>#>#>#>#*##%$%(.) w#1$w#$ $ a p !#!#r !#!#r r r r r r Z !#C P g %$",
"]./ g f 1$w#L.h f.%%i+# b &%*%=%-%=#J#>#>#*#=#8#8#;#;#-#>#;%>%8#8#8#=#,%'%% b '.^.b )%!%T # $ } ^ b 3 M 2 & > S > C !#!#2.e a#w#",
"w#%$%$%$g , C ~%{%]%^%/%@.8 (%_%:%<%[%}%>#>#*#8#8#8#>#>#*#|%1%.$ $-#2%3%} c.4%5%$ 6%7%8%z 1$l+4 $ 1$1$1$1$1$1$1$1$w#w#/ w#/ %$%$",
"%$w#%$%$w#%$9%0%a%b%c%d%e%r y.A t > b f%g%h%i%j%=#*#*#>#>#k%l%.$m%n%o%D !#r p%q%r%s%t%u%1$1$1$1$- , D F O # / / ].1$B._ > D D y ",
". %$%$%$%$%$T v%w%x%y%r r r r r p C i !#i T 0 z%A%B%C%D%=#N$E%F%G%1$%$a#, @.H%I%J%J%K%1$1$1$. ^.r r r !#Z !#Z r !#P J Z Z Z !#!#",
"%$%$%$%$w#%$a ^ p L%M%!#!#!#!#r !#Z !#!#!#!#r r r !#r N%O%P%Q%R%r B T %$1$1$%$S%!+T%U%V%i 8 Q r !#r r !#r !#r Z !#!#Z r !#!#r r ",
"%$%$%$%$%$%$%$a#- W%X%P Z @.r r r r r r !#Z Z Z Z Z !#r Z r i D r % h O * % / Y%Z%`% &.&1 p _.i r r C i F 8 h l r Z r ^.y !#C r ",
"1$w#%$%$%$%$%$%$%$%$a#. l @.r r r r !#r !#r Z !#r r !#Z r N r y r 4 7 h.@.& k +&@&r Z 1 r r k D D i y@a#%$1$1$%$z R b i p.C k !#",
"w#%$w#%$1$%$%$%$g B.- a#].].$ & i y y r r !#!#!#!#Z r y r r r k r M , a k r r #&r !#r C 8 $ ) 1$1$f   A - ) O ) 7 $   k a#: k !#",
"w#%$%$w#%$a#%$a#< > ^.X h S W - $ a#$ ^ 0.y Z !#r !#r r r r r 4 3 f k 2 y r r !#P w O   _.} D 4 *.Z Z !#!#!#Z Z r r !#!#i '.^._ ",
"%$w#%$%$%$%$%$a#B p S 8 y r !#r r Z y w % ^ !#r !#r l+* P C % & a 4 r r '.p z T } % w p 8.x@- _ $ d _ p.!#!#i y !#!#!#y !#y !#!#",
"%$%$1$%$%$%$%$w#*.a L T M !#y > O !#r Z 4 r r r Z !#l _ b b % 8 r r *.! ` p @.J Z r !#r 5.G B.%$%$%$%$B.f *.; y i !#!#y Z !#!#!#",
"a#a#a#%$%$%$%$%$1$%$w#%$z W %.) %$- *.F ..R P < b b '.!#4 r r Z r r r !#r !#r !#!#!#Z Z M # %$%$a#%$%$%$%$a#$ R k i !#4 !#!#!#!#",
"%$a < %$%$w#%$w#1$/ a#w#%$%$w#%$w#%$h 1$_ !#> b ].%$a#a#h y r r r r !#!#r Z !#r r r !#r 1.1$# G O 1$h i r r Z Z r Z Z C !#k _ X ",
"- 1$- P w w#%$w#].%$%$%$_ $ 1$  w#0.G %$, y i b : %$w#1$a#].b i r r r r r r !#Z Z r r T a#1$$ %$B.8 k !#!#r r k r r !#!#!#!#T %$",
"1$%$a#$ G w#%$w#].%$%$1$1$B.1$g 1$g 1$1$5.- /.%$a#P a#%$G 1$%$w#} M J !#r r Z C k r @.* 1$X A A p Z !#r r !#!#k 4 D w ^.w ) %$%$",
"1$%$1$%$%$%$%$%$%$%$%$w#w#w#%$w#1$w## W / %$1$%$].T 1$1$%$1$1$! ^.w v r !#r r y k r r r p r r !#!#r !#Z !#r M s . a#%$1$w#w#].A ",
"w#%$B.z %.7 g h w#%$a#%$w#%$%$a#%$m ^.% k.%$%$%$%$1$w#1$1$%$1$g k.L p r r r r Z Z r r r r r r r r Z !#r r r k 1$].B.1$%$%$1$A D ",
"i ^ C C y p a / %$%$%$%$%$%$N.%$- / %$w#1$%$%$%$%$%$w#1$1$1$1$1$1$%$b r r Z r Z r r !#r r r r r !#Z r Z r F G 1$1$%$%$%$/ c %$W ",
"!#y y y y % %$%$%$%$%$%$_ w p X y O w#w#%$w#%$%$%$%$w#1$1$1$1$1$1$%$w#/.$   C !#r r r r r r r !#r Z r Z r _ %$%$1$%$%$%$%$..%$1$",
"y y !#i w / %$k.N.& '.B.% y !#y !#> p.- ) %$%$1$%$%$w#w#w#1$1$%$1$%$%$%$%$%$_ , M F M % ; P i !#r Z p & g 1$1$%$%$%$%$%$1$1$%$1$",
"p !#y k w X @.M z g B.].8 y C ..h %$w#%$%$%$%$1$%$%$%$%$%$w#%$1$1$%$1$1$1$1$1$1$1$1$1$1$1$1$1$: G ].1$%$1$%$w#w#%$%$1$%$w#w#%$1$",
"h b a G h O $ a#%$%$/ > y r y k w % b O ].%$w#%$%$w#].d , ^.X , l A a#1$1$1$%$1$1$%$1$w#w#1$%$%$%$w#%$1$1$1$1$1$w#1$%$%$%$%$1$%$"};
