/* XPM */
static char * eight_xpm[] = {
"21 21 219 2",
"  	c #F1CE8B",
". 	c #F0CD8A",
"+ 	c #EECB88",
"@ 	c #F1CF8B",
"# 	c #E8C485",
"$ 	c #EAC686",
"% 	c #EDCA88",
"& 	c #F0CF8B",
"* 	c #F0CE8B",
"= 	c #EFCB89",
"- 	c #ECC988",
"; 	c #EBC787",
"> 	c #EAC687",
", 	c #EAC787",
"' 	c #ECCA88",
") 	c #EECC8A",
"! 	c #EFCC8A",
"~ 	c #ECC888",
"{ 	c #EFCD8A",
"] 	c #F0CD8B",
"^ 	c #EBC988",
"/ 	c #EAC586",
"( 	c #D39D6E",
"_ 	c #C77959",
": 	c #BC5041",
"< 	c #BD5242",
"[ 	c #BE5443",
"} 	c #C87657",
"| 	c #D09066",
"1 	c #E3BE82",
"2 	c #DDB87D",
"3 	c #DDB77D",
"4 	c #E8BC80",
"5 	c #BF5543",
"6 	c #AB001C",
"7 	c #BA453B",
"8 	c #E3B27A",
"9 	c #E7C385",
"0 	c #EAC486",
"a 	c #F0CC8A",
"b 	c #ECC385",
"c 	c #B01C28",
"d 	c #B84139",
"e 	c #BB4E40",
"f 	c #B22C2F",
"g 	c #ECC485",
"h 	c #EFCB88",
"i 	c #EECA89",
"j 	c #EBC786",
"k 	c #ECC786",
"l 	c #E5C083",
"m 	c #D28760",
"n 	c #D08B63",
"o 	c #E5BE82",
"p 	c #E3BD82",
"q 	c #E9C485",
"r 	c #D08963",
"s 	c #C67758",
"t 	c #DEB77E",
"u 	c #E8C384",
"v 	c #F0CB8A",
"w 	c #F0CC89",
"x 	c #BF5443",
"y 	c #EAC184",
"z 	c #E7C284",
"A 	c #EECA88",
"B 	c #C97B5A",
"C 	c #E7C183",
"D 	c #E4BE82",
"E 	c #E5BF83",
"F 	c #E2BC81",
"G 	c #E2BC82",
"H 	c #BE5946",
"I 	c #DBAB77",
"J 	c #E6C184",
"K 	c #E9C486",
"L 	c #D38E65",
"M 	c #DFAB77",
"N 	c #E6C183",
"O 	c #E9C586",
"P 	c #E7C184",
"Q 	c #DEB87F",
"R 	c #E0BA80",
"S 	c #CE8861",
"T 	c #C66C51",
"U 	c #D59166",
"V 	c #C2664E",
"W 	c #ECC788",
"X 	c #EBC687",
"Y 	c #E8C385",
"Z 	c #DFB880",
"` 	c #E8C285",
" .	c #EDC988",
"..	c #E4BC82",
"+.	c #B63C37",
"@.	c #D0855F",
"#.	c #E7C084",
"$.	c #E3BC82",
"%.	c #DBB57D",
"&.	c #DDB67E",
"*.	c #E0B980",
"=.	c #E2BB81",
"-.	c #E4BA80",
";.	c #C87556",
">.	c #B32D2F",
",.	c #CC8A63",
"'.	c #DBB37D",
").	c #DCB47D",
"!.	c #DCB57E",
"~.	c #E0BA7F",
"{.	c #EAC487",
"].	c #EFCA8A",
"^.	c #EFCA89",
"/.	c #E6C084",
"(.	c #EBC587",
"_.	c #E2AE79",
":.	c #BC5042",
"<.	c #C9805E",
"[.	c #DBB47D",
"}.	c #DDB57E",
"|.	c #E0B97F",
"1.	c #D59469",
"2.	c #C15E4A",
"3.	c #E3B47C",
"4.	c #CF825E",
"5.	c #B53231",
"6.	c #DAA976",
"7.	c #EFC888",
"8.	c #EEC889",
"9.	c #EBC486",
"0.	c #AF1926",
"a.	c #BC5544",
"b.	c #DAB27C",
"c.	c #DCB47C",
"d.	c #DFB97F",
"e.	c #D8996B",
"f.	c #AF1A27",
"g.	c #CC7F5C",
"h.	c #E4BD82",
"i.	c #EDC788",
"j.	c #EEC989",
"k.	c #EEC888",
"l.	c #DBA071",
"m.	c #DDA372",
"n.	c #ECC787",
"o.	c #EDC787",
"p.	c #E1BA81",
"q.	c #DEB77F",
"r.	c #CB8963",
"s.	c #CD805D",
"t.	c #E6BF84",
"u.	c #E4BE83",
"v.	c #E1BA80",
"w.	c #E7BF84",
"x.	c #DAA372",
"y.	c #CE815E",
"z.	c #DFB77F",
"A.	c #E1B980",
"B.	c #DDB47D",
"C.	c #DEB67E",
"D.	c #C57557",
"E.	c #D19166",
"F.	c #EAC386",
"G.	c #E2BA81",
"H.	c #DCB37D",
"I.	c #BA4C3F",
"J.	c #CC8863",
"K.	c #D3976B",
"L.	c #D7966A",
"M.	c #C76B51",
"N.	c #B73E38",
"O.	c #E8C185",
"P.	c #ECC687",
"Q.	c #E8C085",
"R.	c #E0B880",
"S.	c #DDB47E",
"T.	c #DBAE79",
"U.	c #B63B37",
"V.	c #B43031",
"W.	c #DFAA77",
"X.	c #ECC688",
"Y.	c #E0B77F",
"Z.	c #DBB17D",
"`.	c #DCB37E",
" +	c #DEB57E",
".+	c #DEB67F",
"++	c #E5BB83",
"@+	c #D38C65",
"#+	c #B9413A",
"$+	c #B42E30",
"%+	c #CC7E5C",
"&+	c #E4B87F",
"*+	c #E9C286",
"=+	c #E7C085",
"-+	c #DCB37C",
";+	c #E6BE84",
">+	c #E3BA82",
",+	c #DEB57F",
"'+	c #E3BB82",
")+	c #E6BD84",
"!+	c #EBC487",
"~+	c #E7BB82",
"{+	c #D79C6E",
"]+	c #DDA272",
"^+	c #DA9E6F",
"/+	c #E3B880",
"(+	c #E5BD84",
"_+	c #E2B981",
":+	c #EDC589",
"<+	c #EDC689",
"[+	c #EDC789",
"}+	c #EDC688",
"|+	c #ECC588",
"1+	c #EBC388",
"2+	c #E9C185",
"3+	c #EBC387",
"4+	c #EAC387",
"5+	c #E5BD83",
"6+	c #DBB27D",
"  .     .   +   @   . # $     @   @ @   % ",
"& * * * = - ; % > $ , ' ) . ! ~ { * & * # ",
"* ] * . ^ , / ( _ : < [ } | 1 ; * * * # 2 ",
"3 1 . % ] 4 5 6 6 6 6 6 6 6 7 8 ] * 9 # # ",
"0 . . a b c 6 6 6 d e f 6 6 6 c g . h i j ",
"a k l $ m 6 6 6 n o p q r 6 6 6 s t u . . ",
"v w a a x 6 6 6 y u z A = 6 6 6 B C D E F ",
"; i G / x 6 6 6 H I J K L 6 6 6 M N O ! ! ",
"z P Q R S 6 6 6 6 6 T U c 6 6 V W X Y K ~ ",
"Z Q `  ...+.6 6 6 6 6 6 6 6 @.p #.$.%.&.*.",
"p X =.0 X -.;.6 6 6 6 6 6 6 >.,.'.).!.~.).",
"{.].^./.(._.:.6 6 6 6 6 6 6 6 6 <.[.}.|.*.",
"].].W #.1.6 6 6 2.3.4.5.6 6 6 6 6 6.G 0 W ",
"(.7.8.9.0.6 6 a.b.c.d.F e.f.6 6 6 g.$.h.o ",
"i.j.k.l.6 6 6 m.n.o...p.q.r.6 6 6 s.(.t.u.",
"&.v.w.x.6 6 6 y.z.A.}.B.C.D.6 6 6 E.C.[.~.",
"{.F.G.H.I.6 6 6 a.J.K.L.M.6 6 6 N.&.p.O.(.",
"P.Q.R.S.T.U.6 6 6 6 6 6 6 6 6 V.W.X.F...h.",
"Y.Z.`. +.+++@+#+6 6 6 6 6 $+%+&+*+=+O.w.-+",
"R.;+>+,+'+)+t.!+~+{+]+^+/+(+.._+>+O.t.C.}.",
":+<+[+}+!+|+1+2+1+3+4+X.w.}+4+5+R.6+'.H.R."};
