/* XPM */
static char * five_xpm[] = {
"21 21 217 2",
"  	c #F1CE8B",
". 	c #F0CD8A",
"+ 	c #EECB88",
"@ 	c #F1CF8B",
"# 	c #E8C485",
"$ 	c #EAC686",
"% 	c #EDCA88",
"& 	c #F0CF8B",
"* 	c #F0CE8B",
"= 	c #EFCB89",
"- 	c #ECC988",
"; 	c #EBC787",
"> 	c #EAC687",
", 	c #EAC787",
"' 	c #ECCA88",
") 	c #EECC8A",
"! 	c #EFCC8A",
"~ 	c #ECC888",
"{ 	c #EFCD8A",
"] 	c #F0CD8B",
"^ 	c #EBC988",
"/ 	c #DAA371",
"( 	c #DAA170",
"_ 	c #D09569",
": 	c #D1966A",
"< 	c #D79E6E",
"[ 	c #DBA372",
"} 	c #DDA672",
"| 	c #D89F6F",
"1 	c #D3996C",
"2 	c #CA7E5B",
"3 	c #BD5242",
"4 	c #E3B27A",
"5 	c #DDB87D",
"6 	c #DDB77D",
"7 	c #E3BE82",
"8 	c #AB001C",
"9 	c #DFA874",
"0 	c #E7C385",
"a 	c #EAC486",
"b 	c #F0CC8A",
"c 	c #DFA873",
"d 	c #EFCB88",
"e 	c #EECA89",
"f 	c #EBC786",
"g 	c #ECC786",
"h 	c #E5C083",
"i 	c #DFA773",
"j 	c #D09469",
"k 	c #DEB77E",
"l 	c #E8C384",
"m 	c #F0CB8A",
"n 	c #F0CC89",
"o 	c #C76E51",
"p 	c #DDA572",
"q 	c #D99F6E",
"r 	c #D89E6E",
"s 	c #DEA672",
"t 	c #DCA371",
"u 	c #DCA372",
"v 	c #DEB37B",
"w 	c #E7C183",
"x 	c #E4BE82",
"y 	c #E5BF83",
"z 	c #E2BC81",
"A 	c #E2BC82",
"B 	c #EAC586",
"C 	c #DEA773",
"D 	c #CB7F5C",
"E 	c #E0BB80",
"F 	c #E6C184",
"G 	c #E9C486",
"H 	c #E6C284",
"I 	c #ECC788",
"J 	c #EBC687",
"K 	c #E6C183",
"L 	c #E9C586",
"M 	c #E7C284",
"N 	c #E7C184",
"O 	c #DEB87F",
"P 	c #E0BA80",
"Q 	c #D69B6D",
"R 	c #BD5142",
"S 	c #C3624B",
"T 	c #BF5343",
"U 	c #BE5343",
"V 	c #D18660",
"W 	c #DA9C6D",
"X 	c #EDC988",
"Y 	c #E8C385",
"Z 	c #DFB880",
"` 	c #E8C285",
" .	c #CB7C5B",
"..	c #B53231",
"+.	c #D59A6D",
"@.	c #E7C084",
"#.	c #E3BC82",
"$.	c #DBB57D",
"%.	c #DDB67E",
"&.	c #E0B980",
"*.	c #E3BD82",
"=.	c #E2BB81",
"-.	c #CF835E",
";.	c #CF9269",
">.	c #DCB47D",
",.	c #DCB57E",
"'.	c #E0BA7F",
").	c #EAC487",
"!.	c #EFCA8A",
"~.	c #EFCA89",
"{.	c #E6C084",
"].	c #DBA171",
"^.	c #DA9A6D",
"/.	c #DDA876",
"(.	c #E6BE84",
"_.	c #E8C185",
":.	c #E5B57E",
"<.	c #D48E66",
"[.	c #AF1A27",
"}.	c #B22B2F",
"|.	c #DBB47D",
"1.	c #DDB57E",
"2.	c #E0B97F",
"3.	c #EBC587",
"4.	c #EFC989",
"5.	c #E2B77F",
"6.	c #D7A171",
"7.	c #EFC888",
"8.	c #EEC889",
"9.	c #EBC486",
"0.	c #D19066",
"a.	c #B9493E",
"b.	c #C47457",
"c.	c #DBB27C",
"d.	c #DAB27C",
"e.	c #DCB47C",
"f.	c #DFB97F",
"g.	c #ECC787",
"h.	c #C97557",
"i.	c #D79D6E",
"j.	c #E4BD82",
"k.	c #E5BE82",
"l.	c #EDC788",
"m.	c #EEC989",
"n.	c #EEC888",
"o.	c #E3B37C",
"p.	c #D8996C",
"q.	c #EDC787",
"r.	c #E4BC82",
"s.	c #E1BA81",
"t.	c #DEB77F",
"u.	c #C57657",
"v.	c #DDA875",
"w.	c #E6BF84",
"x.	c #E4BE83",
"y.	c #E1BA80",
"z.	c #E7BF84",
"A.	c #DAA372",
"B.	c #B43031",
"C.	c #DFB77F",
"D.	c #E1B980",
"E.	c #DDB47D",
"F.	c #DEB67E",
"G.	c #B53B36",
"H.	c #B42F30",
"I.	c #E3BD81",
"J.	c #EAC386",
"K.	c #E2BA81",
"L.	c #DCB37D",
"M.	c #B73D38",
"N.	c #BC5544",
"O.	c #D5A273",
"P.	c #E3B27B",
"Q.	c #C25F4A",
"R.	c #D18F66",
"S.	c #ECC687",
"T.	c #E8C085",
"U.	c #E0B880",
"V.	c #DDB47E",
"W.	c #D49D6F",
"X.	c #D38D64",
"Y.	c #EBC487",
"Z.	c #ECC688",
"`.	c #E0B77F",
" +	c #DBB17D",
".+	c #DCB37E",
"++	c #DEB57E",
"@+	c #DEB67F",
"#+	c #E1B37E",
"$+	c #CF825E",
"%+	c #C4674F",
"&+	c #E0AE79",
"*+	c #E8C084",
"=+	c #E9C286",
"-+	c #E7C085",
";+	c #DCB37C",
">+	c #E3BA82",
",+	c #DEB57F",
"'+	c #E3BB82",
")+	c #E6BD84",
"!+	c #D79C6E",
"~+	c #DDA272",
"{+	c #DDA775",
"]+	c #E5BD84",
"^+	c #E2B981",
"/+	c #EDC589",
"(+	c #EDC689",
"_+	c #EDC789",
":+	c #EDC688",
"<+	c #ECC588",
"[+	c #EBC388",
"}+	c #E9C185",
"|+	c #EBC387",
"1+	c #EAC387",
"2+	c #E5BD83",
"3+	c #DBB27D",
"4+	c #DBB37D",
"  .     .   +   @   . # $     @   @ @   % ",
"& * * * = - ; % > $ , ' ) . ! ~ { * & * # ",
"* ] * . ^ / ( _ : < [ } | 1 2 3 4 * * # 5 ",
"6 7 . % ] 8 8 8 8 8 8 8 8 8 8 8 9 * 0 # # ",
"a . . b b 8 8 8 8 8 8 8 8 8 8 8 c . d e f ",
"b g h $ i 8 8 8 8 8 8 8 8 8 8 8 j k l . . ",
"m n b b i 8 8 o p q r p s t s u v w x y z ",
"; e A B C 8 8 D E z F G ; H I # J K L ! ! ",
"M N O P Q 8 8 R S T R U V W X A I J Y G ~ ",
"Z O ` X  .8 8 8 8 8 8 8 8 8 ..+.@.#.$.%.&.",
"*.J =.a -.8 8 8 8 8 8 8 8 8 8 8 ;.>.,.'.>.",
").!.~.{.].^./.(.(._.:.<.[.8 8 8 }.|.1.2.&.",
"!.!.I @._._.N _.).J 3.4.5.[.8 8 8 6.A a I ",
"3.7.8.9.0.a.b.c.d.e.f.z g.h.8 8 8 i.#.j.k.",
"l.m.n.o.8 8 8 p.g.q.r.s.t.u.8 8 8 v.3.w.x.",
"%.y.z.A.8 8 8 B.C.D.1.E.F.G.8 8 H.I.F.|.'.",
").J.K.L.M.8 8 8 N.O.&.P.Q.8 8 8 R.%.s._.3.",
"S.T.U.V.W.}.8 8 8 8 8 8 8 8 8 X.Y.Z.J.r.j.",
"`. +.+++@+#+$+B.8 8 8 8 8 %+&+*+=+-+_.z.;+",
"U.(.>+,+'+)+w.Y.o.!+~+{+-+]+r.^+>+_.w.F.1.",
"/+(+_+:+Y.<+[+}+[+|+1+Z.z.:+1+2+U.3+4+L.U."};
