/* XPM */
static char * four_xpm[] = {
"21 21 200 2",
"  	c #F1CE8B",
". 	c #F0CD8A",
"+ 	c #EECB88",
"@ 	c #F1CF8B",
"# 	c #E8C485",
"$ 	c #EAC686",
"% 	c #EDCA88",
"& 	c #F0CF8B",
"* 	c #F0CE8B",
"= 	c #EFCB89",
"- 	c #ECC988",
"; 	c #EBC787",
"> 	c #EAC687",
", 	c #EAC787",
"' 	c #ECCA88",
") 	c #EECC8A",
"! 	c #EFCC8A",
"~ 	c #ECC888",
"{ 	c #EFCD8A",
"] 	c #F0CD8B",
"^ 	c #EBC988",
"/ 	c #EAC586",
"( 	c #DCB67D",
"_ 	c #DEB87E",
": 	c #E6C284",
"< 	c #E7BF83",
"[ 	c #C3624B",
"} 	c #BC5041",
"| 	c #BA4D40",
"1 	c #C67355",
"2 	c #DDB87D",
"3 	c #DDB77D",
"4 	c #E3BE82",
"5 	c #E8C486",
"6 	c #DEB87F",
"7 	c #E0B67D",
"8 	c #B9423A",
"9 	c #AB001C",
"0 	c #BF5544",
"a 	c #E7C385",
"b 	c #EAC486",
"c 	c #F0CC8A",
"d 	c #E8BF82",
"e 	c #B84139",
"f 	c #BE5342",
"g 	c #EFCB88",
"h 	c #EECA89",
"i 	c #EBC786",
"j 	c #ECC786",
"k 	c #E5C083",
"l 	c #E8BF83",
"m 	c #B94A3E",
"n 	c #DDB67E",
"o 	c #DCB57D",
"p 	c #DEB77E",
"q 	c #E8C384",
"r 	c #F0CB8A",
"s 	c #F0CC89",
"t 	c #BF5443",
"u 	c #E1BB80",
"v 	c #E7C183",
"w 	c #E4BE82",
"x 	c #E5BF83",
"y 	c #E2BC81",
"z 	c #E2BC82",
"A 	c #C86F52",
"B 	c #B73E38",
"C 	c #E2B97F",
"D 	c #BE5242",
"E 	c #EBC687",
"F 	c #E6C183",
"G 	c #E9C586",
"H 	c #E7C284",
"I 	c #E7C184",
"J 	c #E0BA80",
"K 	c #C76E52",
"L 	c #BA443B",
"M 	c #EBC185",
"N 	c #ECC788",
"O 	c #E8C385",
"P 	c #E9C486",
"Q 	c #DFB880",
"R 	c #E8C285",
"S 	c #EDC988",
"T 	c #C3664E",
"U 	c #B63C37",
"V 	c #E8BE83",
"W 	c #EFCA8A",
"X 	c #E3BD82",
"Y 	c #E7C084",
"Z 	c #E3BC82",
"` 	c #DBB57D",
" .	c #E0B980",
"..	c #E2BB81",
"+.	c #CA7657",
"@.	c #AF1A27",
"#.	c #DFAB77",
"$.	c #E4BD82",
"%.	c #BA4C3F",
"&.	c #DBB47D",
"*.	c #DBB37D",
"=.	c #DCB47D",
"-.	c #DCB57E",
";.	c #E0BA7F",
">.	c #EAC487",
",.	c #EFCA89",
"'.	c #BC4F41",
").	c #CD805E",
"!.	c #D79B6E",
"~.	c #D99E6F",
"{.	c #DDA372",
"].	c #B73F38",
"^.	c #D0956A",
"/.	c #CF9369",
"(.	c #D29C6E",
"_.	c #DDB57E",
":.	c #E0B97F",
"<.	c #EBC587",
"[.	c #EFC888",
"}.	c #EEC889",
"|.	c #BD5042",
"1.	c #BC4F40",
"2.	c #E5BE82",
"3.	c #EDC788",
"4.	c #EEC989",
"5.	c #EEC888",
"6.	c #D38C65",
"7.	c #CE805E",
"8.	c #CF825E",
"9.	c #D0845F",
"0.	c #CF845E",
"a.	c #D0845E",
"b.	c #CB7C5B",
"c.	c #B22B2E",
"d.	c #C67758",
"e.	c #CC7F5C",
"f.	c #D18B63",
"g.	c #E6BF84",
"h.	c #E4BE83",
"i.	c #E1BA80",
"j.	c #E7BF84",
"k.	c #E5BD82",
"l.	c #E6BE84",
"m.	c #EFC989",
"n.	c #EAC386",
"o.	c #DFB77F",
"p.	c #E1B980",
"q.	c #B8493E",
"r.	c #DEB77F",
"s.	c #E3BD81",
"t.	c #DEB67E",
"u.	c #E2BA81",
"v.	c #DCB37D",
"w.	c #DEB47E",
"x.	c #DCB37E",
"y.	c #DEB57E",
"z.	c #DBB37C",
"A.	c #DBB27D",
"B.	c #BC4E40",
"C.	c #E3BC81",
"D.	c #E1BA81",
"E.	c #E8C185",
"F.	c #ECC687",
"G.	c #E8C085",
"H.	c #E0B880",
"I.	c #DDB47E",
"J.	c #DDB47D",
"K.	c #E3BB81",
"L.	c #ECC587",
"M.	c #E8BE85",
"N.	c #EBC586",
"O.	c #EBC487",
"P.	c #ECC688",
"Q.	c #E4BC82",
"R.	c #E0B77F",
"S.	c #DBB17D",
"T.	c #DEB67F",
"U.	c #E5BB83",
"V.	c #EBC387",
"W.	c #EEC689",
"X.	c #EDC588",
"Y.	c #E8C084",
"Z.	c #E9C286",
"`.	c #E7C085",
" +	c #DCB37C",
".+	c #E3BA82",
"++	c #DEB57F",
"@+	c #E3BB82",
"#+	c #E6BD84",
"$+	c #EDC688",
"%+	c #E9C185",
"&+	c #E5BD84",
"*+	c #E2B981",
"=+	c #EDC589",
"-+	c #EDC689",
";+	c #EDC789",
">+	c #ECC588",
",+	c #EBC388",
"'+	c #EAC387",
")+	c #E5BD83",
"  .     .   +   @   . # $     @   @ @   % ",
"& * * * = - ; % > $ , ' ) . ! ~ { * & * # ",
"* ] * . ^ , / ( _ : < [ } | 1 ; * * * # 2 ",
"3 4 . % ] * . 5 6 7 8 9 9 9 0 * ] * a # # ",
"b . . c c c c c d e 9 9 9 9 f c . . g h i ",
"c j k $ c . . l e 9 9 9 9 9 m n o p q . . ",
"r s c c c c c f 9 9 e 9 9 9 t ~ u v w x y ",
"; h z / ! ! A 9 9 B C 9 9 9 D # E F G ! ! ",
"H I 6 J w K 9 9 L M > 9 9 9 f z N E O P ~ ",
"Q 6 R S T 9 9 U V W W 9 9 9 f X Y Z ` n  .",
"X E ..+.9 9 @.#.R $.J 9 9 9 %.&.*.=.-.;.=.",
">.W ,.'.9 9 ).!.!.~.{.9 9 9 ].^./.(._.:. .",
"W W N '.9 9 9 9 9 9 9 9 9 9 9 9 9 %.z b N ",
"<.[.}.|.9 9 9 9 9 9 9 9 9 9 9 9 9 1.Z $.2.",
"3.4.5.6.7.8.8.9.0.a.b.9 9 9 c.d.e.f.<.g.h.",
"n i.j.k.l.Y m.n.o.p._.9 9 9 q.r.g.s.t.&.;.",
">.n.u.v.p.w.x.y.z.A. .9 9 9 B.C...n D.E.<.",
"F.G.H.I.t.J.K.n.L.M.u.9 9 9 B.N.O.P.n.Q.$.",
"R.S.x.y.T.U.O.V.W.X.O.9 9 9 B.Y.Z.`.E.j. +",
"H.l..+++@+#+g.O.O.g.$+%+`.&+Q.*+.+E.g.t._.",
"=+-+;+$+O.>+,+%+,+V.'+P.j.$+'+)+H.A.*.v.H."};
