/* XPM */
static char * nine_xpm[] = {
"21 21 216 2",
"  	c #F1CE8B",
". 	c #F0CD8A",
"+ 	c #EECB88",
"@ 	c #F1CF8B",
"# 	c #E8C485",
"$ 	c #EAC686",
"% 	c #EDCA88",
"& 	c #F0CF8B",
"* 	c #F0CE8B",
"= 	c #EFCB89",
"- 	c #ECC988",
"; 	c #EBC787",
"> 	c #EAC687",
", 	c #EAC787",
"' 	c #ECCA88",
") 	c #EECC8A",
"! 	c #EFCC8A",
"~ 	c #ECC888",
"{ 	c #EFCD8A",
"] 	c #F0CD8B",
"^ 	c #EBC988",
"/ 	c #E6BC81",
"( 	c #C9825E",
"_ 	c #C0644C",
": 	c #BC5041",
"< 	c #BD5242",
"[ 	c #C3624B",
"} 	c #CC815D",
"| 	c #DAAB77",
"1 	c #E3BE82",
"2 	c #DDB87D",
"3 	c #DDB77D",
"4 	c #D69468",
"5 	c #B01D28",
"6 	c #AB001C",
"7 	c #D28861",
"8 	c #E7C385",
"9 	c #EAC486",
"0 	c #F0CC8A",
"a 	c #D69267",
"b 	c #B43030",
"c 	c #BB4E40",
"d 	c #C86F52",
"e 	c #EFCB88",
"f 	c #EECA89",
"g 	c #EBC786",
"h 	c #ECC786",
"i 	c #E5C083",
"j 	c #E2B47B",
"k 	c #CC805C",
"l 	c #E5BE82",
"m 	c #E3BD82",
"n 	c #E5BB80",
"o 	c #B84039",
"p 	c #D09469",
"q 	c #DEB77E",
"r 	c #E8C384",
"s 	c #F0CB8A",
"t 	c #F0CC89",
"u 	c #D28760",
"v 	c #BA433A",
"w 	c #E7C284",
"x 	c #EECA88",
"y 	c #DA9C6C",
"z 	c #BE5946",
"A 	c #E7C183",
"B 	c #E4BE82",
"C 	c #E5BF83",
"D 	c #E2BC81",
"E 	c #E2BC82",
"F 	c #BD5142",
"G 	c #CB7F5C",
"H 	c #E0BB80",
"I 	c #E6C184",
"J 	c #E9C486",
"K 	c #E6C183",
"L 	c #E9C586",
"M 	c #E7C184",
"N 	c #DEB87F",
"O 	c #BA4C3F",
"P 	c #CF835E",
"Q 	c #EFCB8A",
"R 	c #EFCA8A",
"S 	c #DBA271",
"T 	c #E8C385",
"U 	c #DFB880",
"V 	c #E8C285",
"W 	c #C76E51",
"X 	c #B63C37",
"Y 	c #ECC788",
"Z 	c #D39369",
"` 	c #D5996D",
" .	c #DBB57D",
"..	c #DDB67E",
"+.	c #E0B980",
"@.	c #EBC687",
"#.	c #E2BB81",
"$.	c #D28C64",
"%.	c #D18B63",
"&.	c #E4BD82",
"*.	c #E0BA80",
"=.	c #DFB37D",
"-.	c #B84139",
";.	c #D09369",
">.	c #DCB57E",
",.	c #E0BA7F",
"'.	c #DCB47D",
").	c #EAC487",
"!.	c #EFCA89",
"~.	c #E6C084",
"{.	c #B9423A",
"].	c #B42F30",
"^.	c #BE5243",
"/.	c #D5A473",
"(.	c #DDB57E",
"_.	c #E0B97F",
":.	c #E7C084",
"<.	c #E4B980",
"[.	c #BC4F41",
"}.	c #AF1A27",
"|.	c #E1BA80",
"1.	c #EBC587",
"2.	c #EFC888",
"3.	c #EEC889",
"4.	c #EBC486",
"5.	c #E3BC81",
"6.	c #DDB47E",
"7.	c #CD9068",
"8.	c #C26B51",
"9.	c #B8483E",
"0.	c #B9493E",
"a.	c #C1644D",
"b.	c #D19066",
"c.	c #D8996B",
"d.	c #C3674E",
"e.	c #E6C083",
"f.	c #E3BC82",
"g.	c #EDC788",
"h.	c #EEC989",
"i.	c #EEC888",
"j.	c #EBC487",
"k.	c #EAC286",
"l.	c #ECC587",
"m.	c #ECC787",
"n.	c #EDC787",
"o.	c #E4BC82",
"p.	c #DEB27C",
"q.	c #B22C2F",
"r.	c #DFAF79",
"s.	c #E6BF84",
"t.	c #E4BE83",
"u.	c #E7BF84",
"v.	c #E5BD82",
"w.	c #E6BE84",
"x.	c #EFC989",
"y.	c #EAC386",
"z.	c #DFB77F",
"A.	c #E1B980",
"B.	c #D7A574",
"C.	c #B63B37",
"D.	c #C77959",
"E.	c #E3BD81",
"F.	c #DEB67E",
"G.	c #DBB47D",
"H.	c #E2BA81",
"I.	c #DCB37D",
"J.	c #DEB47E",
"K.	c #D9AB79",
"L.	c #D1946A",
"M.	c #C57657",
"N.	c #BC5545",
"O.	c #CB7E5C",
"P.	c #E1BA81",
"Q.	c #E8C185",
"R.	c #ECC687",
"S.	c #E8C085",
"T.	c #E0B880",
"U.	c #B22B2F",
"V.	c #E6BF83",
"W.	c #EBC586",
"X.	c #ECC688",
"Y.	c #E0B77F",
"Z.	c #DBB17D",
"`.	c #DCB37E",
" +	c #DEB57E",
".+	c #DEB67F",
"++	c #B53031",
"@+	c #C25E4A",
"#+	c #D28A64",
"$+	c #E8BF84",
"%+	c #E6BE83",
"&+	c #E7BF83",
"*+	c #E8C084",
"=+	c #E9C286",
"-+	c #E7C085",
";+	c #DCB37C",
">+	c #E3BA82",
",+	c #DEB57F",
"'+	c #E3BB82",
")+	c #D79A6E",
"!+	c #D79C6E",
"~+	c #DFAA77",
"{+	c #EDC688",
"]+	c #E9C185",
"^+	c #E5BD84",
"/+	c #E2B981",
"(+	c #EDC589",
"_+	c #EDC689",
":+	c #EDC789",
"<+	c #ECC588",
"[+	c #EBC388",
"}+	c #EBC387",
"|+	c #EAC387",
"1+	c #E5BD83",
"2+	c #DBB27D",
"3+	c #DBB37D",
"  .     .   +   @   . # $     @   @ @   % ",
"& * * * = - ; % > $ , ' ) . ! ~ { * & * # ",
"* ] * . ^ , / ( _ : < [ } | 1 ; * * * # 2 ",
"3 1 . % ] 4 5 6 6 6 6 6 6 6 7 * ] * 8 # # ",
"9 . . 0 a 6 6 6 6 b c 6 6 6 6 d . . e f g ",
"0 h i j 6 6 6 6 k l m n o 6 6 6 p q r . . ",
"s t 0 u 6 6 6 v f r w x y 6 6 6 z A B C D ",
"; f E F 6 6 6 G H D I J ; 6 6 6 6 K L ! ! ",
"w M N O 6 6 6 P Q R > f Q 6 6 6 6 S T J ~ ",
"U N V W 6 6 6 X Y R R T Z 6 6 6 6 `  ...+.",
"m @.#.$.6 6 6 6 %.&.*.=.-.6 6 6 6 ;.>.,.'.",
").R !.~.{.6 6 6 6 ].^.6 6 6 6 6 6 /.(._.+.",
"R R Y :.<.[.6 6 6 6 6 6 o 6 6 6 }.|.E 9 Y ",
"1.2.3.4.5.6.7.8.9.0.a.b.c.6 6 6 d.e.f.&.l ",
"g.h.i.j.k.l.4.g.m.n.o.p.q.6 6 6 r.V 1.s.t.",
"..|.u.v.w.:.x.y.z.A.B.C.6 6 6 D.s.E.F.G.,.",
").y.H.I.A.J.K.L.M.N.6 6 6 6 O.5.#...P.Q.1.",
"R.S.T.6.F.6 6 6 6 6 6 6 U.p V.W.j.X.y.o.&.",
"Y.Z.`. +.+6 6 6 6 ++@+#+$+%+&+*+=+-+Q.u.;+",
"T.w.>+,+'+)+!+~+j.s.{+]+-+^+o./+>+Q.s.F.(.",
"(+_+:+{+j.<+[+]+[+}+|+X.u.{+|+1+T.2+3+I.T."};
