/* XPM */
static char * 16_xpm[] = {
"64 64 574 2",
"  	c #50B2D7",
". 	c #48AED5",
"+ 	c #49AFD6",
"@ 	c #49AED5",
"# 	c #4CB0D6",
"$ 	c #4FB2D7",
"% 	c #59B7DA",
"& 	c #5AB7DA",
"* 	c #57B6D9",
"= 	c #51B2D8",
"- 	c #4BB0D6",
"; 	c #57B6DA",
"> 	c #60BADC",
", 	c #5EB9DB",
"' 	c #4DB0D6",
") 	c #4DB1D7",
"! 	c #56B5D9",
"~ 	c #66BCDD",
"{ 	c #66BDDD",
"] 	c #6CBFDF",
"^ 	c #62BBDC",
"/ 	c #47AED5",
"( 	c #60B9DC",
"_ 	c #51B3D8",
": 	c #4AAFD6",
"< 	c #4EB1D7",
"[ 	c #56B4D9",
"} 	c #58B6DA",
"| 	c #5DB8DB",
"1 	c #69BEDE",
"2 	c #63BBDD",
"3 	c #5BB7DB",
"4 	c #63BCDD",
"5 	c #48AFD6",
"6 	c #5CB9DB",
"7 	c #54B4D9",
"8 	c #5DB9DB",
"9 	c #4FB1D7",
"0 	c #59B6DA",
"a 	c #53B4D8",
"b 	c #55B5D9",
"c 	c #5AB8DA",
"d 	c #53B4D9",
"e 	c #55B4D9",
"f 	c #4AB0D6",
"g 	c #46AED5",
"h 	c #49AFD5",
"i 	c #64BCDD",
"j 	c #6ABFDF",
"k 	c #66BDDE",
"l 	c #58B7DA",
"m 	c #4DB2D7",
"n 	c #4BB1D7",
"o 	c #6BBFDF",
"p 	c #67BDDE",
"q 	c #6CC0DF",
"r 	c #69BEDF",
"s 	c #54B5D9",
"t 	c #4BB1D6",
"u 	c #4CB1D7",
"v 	c #5DB9DC",
"w 	c #5CB8DB",
"x 	c #6DC0E0",
"y 	c #68BEDE",
"z 	c #4DB1D6",
"A 	c #4EB2D7",
"B 	c #5EB9DC",
"C 	c #67BEDE",
"D 	c #62BBDD",
"E 	c #6CC0E0",
"F 	c #5BB8DB",
"G 	c #4CB1D6",
"H 	c #56B6DA",
"I 	c #49B0D6",
"J 	c #65BCDD",
"K 	c #67BDDD",
"L 	c #52B4D8",
"M 	c #5BB8DA",
"N 	c #65BCDE",
"O 	c #52B3D8",
"P 	c #5FBADC",
"Q 	c #68BDDE",
"R 	c #60BBDC",
"S 	c #50B3D7",
"T 	c #48AFD5",
"U 	c #4FB2D8",
"V 	c #55B6D9",
"W 	c #50B3D8",
"X 	c #5FB9DC",
"Y 	c #47AFD6",
"Z 	c #69BFDF",
"` 	c #5AB7DB",
" .	c #56B5DA",
"..	c #47AFD5",
"+.	c #4FB3D8",
"@.	c #65BDDE",
"#.	c #52B4D9",
"$.	c #6BC0DF",
"%.	c #50B2D8",
"&.	c #59B7DB",
"*.	c #56B6D9",
"=.	c #53B3D9",
"-.	c #4CB0D7",
";.	c #47AED6",
">.	c #46ADD5",
",.	c #48AED6",
"'.	c #61BADC",
").	c #6BC0E0",
"!.	c #4BB0D7",
"~.	c #57B5DA",
"{.	c #4DB0D7",
"].	c #45ADD4",
"^.	c #61BBDC",
"/.	c #51B3D7",
"(.	c #57B5D9",
"_.	c #54B4D8",
":.	c #4EB2D6",
"<.	c #67BEDD",
"[.	c #55B5D8",
"}.	c #46ADD4",
"|.	c #4EB1D6",
"1.	c #58B6D9",
"2.	c #54B5D8",
"3.	c #6ABFDE",
"4.	c #5DB8DA",
"5.	c #4AAFD5",
"6.	c #55B4D8",
"7.	c #5FB9DB",
"8.	c #5BB7DA",
"9.	c #60BADB",
"0.	c #5FBADB",
"a.	c #47AED4",
"b.	c #5CB8DA",
"c.	c #4FB2D6",
"d.	c #63BBDC",
"e.	c #63BCDC",
"f.	c #4BB0D5",
"g.	c #58B7D9",
"h.	c #62BCDC",
"i.	c #69BFDE",
"j.	c #59B7D9",
"k.	c #46AED4",
"l.	c #48AED4",
"m.	c #53B4D7",
"n.	c #4AB0D5",
"o.	c #52B3D7",
"p.	c #65BDDD",
"q.	c #52B4D7",
"r.	c #6BBFDE",
"s.	c #5EBADB",
"t.	c #56B5D8",
"u.	c #57B7D9",
"v.	c #44ADD4",
"w.	c #4FB3D7",
"x.	c #5CB9DA",
"y.	c #51B4D8",
"z.	c #62BCDD",
"A.	c #5EB5D5",
"B.	c #478DA6",
"C.	c #578898",
"D.	c #849B9E",
"E.	c #8CA4A8",
"F.	c #7A9BA2",
"G.	c #5D96A9",
"H.	c #5DB5D5",
"I.	c #45AED4",
"J.	c #68BFDE",
"K.	c #6AC0DF",
"L.	c #45ADD5",
"M.	c #469EC0",
"N.	c #3B8099",
"O.	c #4F8699",
"P.	c #558595",
"Q.	c #438095",
"R.	c #36809C",
"S.	c #4BA7CA",
"T.	c #4798B7",
"U.	c #568B9D",
"V.	c #98A5A4",
"W.	c #DAD7CD",
"X.	c #E0DCD1",
"Y.	c #8FA2A4",
"Z.	c #4DA1C0",
"`.	c #45ACD4",
" +	c #43A1C5",
".+	c #598695",
"++	c #A1AAA6",
"@+	c #A0A9A6",
"#+	c #90A0A0",
"$+	c #8C9A9A",
"%+	c #BCC0BA",
"&+	c #99ACAD",
"*+	c #4CACD0",
"=+	c #44ACD4",
"-+	c #64BCDE",
";+	c #51B2D7",
">+	c #449CBF",
",+	c #88999A",
"'+	c #C9CBC4",
")+	c #7198A4",
"!+	c #69A1B5",
"~+	c #99AAAC",
"{+	c #6AA6BB",
"]+	c #4BAFD6",
"^+	c #53B3D8",
"/+	c #598898",
"(+	c #C0C4BE",
"_+	c #DAD8CE",
":+	c #B8BBB4",
"<+	c #5B99B0",
"[+	c #5392A9",
"}+	c #8BAEB7",
"|+	c #80999E",
"1+	c #8B9EA0",
"2+	c #4E8CA2",
"3+	c #4799B7",
"4+	c #4D92AB",
"5+	c #809DA3",
"6+	c #B7BDB8",
"7+	c #5796AD",
"8+	c #4C8EA8",
"9+	c #3F6C7F",
"0+	c #8F9392",
"a+	c #5E7983",
"b+	c #409DC2",
"c+	c #66BCDE",
"d+	c #44ADD5",
"e+	c #448299",
"f+	c #BCBEB7",
"g+	c #588392",
"h+	c #52AFD2",
"i+	c #59B6D7",
"j+	c #5C9AAF",
"k+	c #5995AA",
"l+	c #4FA5C5",
"m+	c #5E3B43",
"n+	c #7B282B",
"o+	c #79272A",
"p+	c #39758F",
"q+	c #5EBADC",
"r+	c #51B1D5",
"s+	c #5A828E",
"t+	c #CACCC4",
"u+	c #C6C8C1",
"v+	c #738C91",
"w+	c #5497B0",
"x+	c #43ACD4",
"y+	c #42A1C5",
"z+	c #A9A78E",
"A+	c #C2B99A",
"B+	c #C1B89A",
"C+	c #C0B899",
"D+	c #608E97",
"E+	c #5AB8DB",
"F+	c #4591AC",
"G+	c #45859C",
"H+	c #3B7F98",
"I+	c #4794B0",
"J+	c #3B86A1",
"K+	c #EDD7AB",
"L+	c #97A191",
"M+	c #508CA5",
"N+	c #5F3C45",
"O+	c #4B7186",
"P+	c #64BDDD",
"Q+	c #59909F",
"R+	c #A9A991",
"S+	c #46788B",
"T+	c #85504D",
"U+	c #585961",
"V+	c #4DB2D6",
"W+	c #66BEDE",
"X+	c #47889C",
"Y+	c #4B889A",
"Z+	c #4F8A9C",
"`+	c #548C9C",
" @	c #4D899B",
".@	c #4C899A",
"+@	c #4C899B",
"@@	c #538C9C",
"#@	c #5D909F",
"$@	c #5F92A0",
"%@	c #6CA2B0",
"&@	c #899990",
"*@	c #C3BA9A",
"=@	c #BFB899",
"-@	c #A8A890",
";@	c #5593A4",
">@	c #449DBD",
",@	c #43ACD3",
"'@	c #7E968F",
")@	c #999D89",
"!@	c #5BB9DA",
"~@	c #68BFDF",
"{@	c #49B0D5",
"]@	c #42ACD3",
"^@	c #B0B49D",
"/@	c #6CA4B2",
"(@	c #9CA18E",
"_@	c #B6B194",
":@	c #4DA9CA",
"<@	c #5F8E9D",
"[@	c #63B6D4",
"}@	c #B2AC90",
"|@	c #5097B1",
"1@	c #68BEDF",
"2@	c #4C89A6",
"3@	c #38526D",
"4@	c #37516D",
"5@	c #435669",
"6@	c #495A6C",
"7@	c #485A6C",
"8@	c #4A5B6C",
"9@	c #4B5B6C",
"0@	c #354961",
"a@	c #3B5F78",
"b@	c #559AB5",
"c@	c #E1CFA7",
"d@	c #4B8DA2",
"e@	c #43ABD3",
"f@	c #4882A0",
"g@	c #455D82",
"h@	c #456B89",
"i@	c #5191A7",
"j@	c #65949D",
"k@	c #42ABD3",
"l@	c #3FA1C7",
"m@	c #3A97BA",
"n@	c #3B97BA",
"o@	c #439BBB",
"p@	c #3F99BB",
"q@	c #489EBD",
"r@	c #469CBC",
"s@	c #499DBD",
"t@	c #439BBC",
"u@	c #3C97BA",
"v@	c #336984",
"w@	c #3E597A",
"x@	c #3C5979",
"y@	c #3E5A7A",
"z@	c #3C5879",
"A@	c #32475E",
"B@	c #2C3536",
"C@	c #2F4155",
"D@	c #3F5A7A",
"E@	c #374F6B",
"F@	c #272F30",
"G@	c #2E3F4F",
"H@	c #405A7A",
"I@	c #355B73",
"J@	c #4E808E",
"K@	c #7D928B",
"L@	c #5CA7C3",
"M@	c #5AA6C3",
"N@	c #54A3C1",
"O@	c #58A5C2",
"P@	c #55A4C1",
"Q@	c #53A3C0",
"R@	c #429ABB",
"S@	c #4FA0BF",
"T@	c #3F98BB",
"U@	c #40A5CC",
"V@	c #47859D",
"W@	c #6A2C31",
"X@	c #77272A",
"Y@	c #78272A",
"Z@	c #7A282B",
"`@	c #79272B",
" #	c #5F292C",
".#	c #6A7C85",
"+#	c #57272B",
"@#	c #6B2326",
"##	c #5C6C74",
"$#	c #604044",
"%#	c #79282B",
"&#	c #4B3038",
"*#	c #3EA1C6",
"=#	c #574954",
"-#	c #911D1D",
";#	c #712223",
">#	c #5B1E1E",
",#	c #7F1919",
"'#	c #6F1616",
")#	c #6C3B3E",
"!#	c #7E2325",
"~#	c #4B8BA5",
"{#	c #41ABD3",
"]#	c #42ACD4",
"^#	c #489AB9",
"/#	c #385A6D",
"(#	c #3D4F68",
"_#	c #3C4F68",
":#	c #3B4E67",
"<#	c #384C66",
"[#	c #3C4F67",
"}#	c #364557",
"|#	c #607078",
"1#	c #896856",
"2#	c #A47C66",
"3#	c #8F6C59",
"4#	c #415161",
"5#	c #394D66",
"6#	c #3A4E67",
"7#	c #32495E",
"8#	c #377E9B",
"9#	c #58A0BD",
"0#	c #425B7E",
"a#	c #3C4F6A",
"b#	c #65767E",
"c#	c #554C4D",
"d#	c #6C6164",
"e#	c #5F5557",
"f#	c #48596F",
"g#	c #3E7592",
"h#	c #376785",
"i#	c #3D5676",
"j#	c #4A606E",
"k#	c #415A7C",
"l#	c #586D77",
"m#	c #435C7F",
"n#	c #435C80",
"o#	c #526672",
"p#	c #405A7B",
"q#	c #445B80",
"r#	c #516572",
"s#	c #435B7B",
"t#	c #3F505D",
"u#	c #384962",
"v#	c #4D6373",
"w#	c #425A74",
"x#	c #465E73",
"y#	c #3A5165",
"z#	c #495C67",
"A#	c #496376",
"B#	c #3E5672",
"C#	c #486272",
"D#	c #3D5675",
"E#	c #4D6572",
"F#	c #3E5979",
"G#	c #49626F",
"H#	c #445C81",
"I#	c #3F597B",
"J#	c #486370",
"K#	c #405B7D",
"L#	c #3D5A7B",
"M#	c #3C9DC1",
"N#	c #388AAA",
"O#	c #415B7E",
"P#	c #415B76",
"Q#	c #798279",
"R#	c #3F5876",
"S#	c #868B7E",
"T#	c #3F5878",
"U#	c #3F5979",
"V#	c #888D7E",
"W#	c #3E5775",
"X#	c #78827A",
"Y#	c #405974",
"Z#	c #4B595C",
"`#	c #667677",
" $	c #4A6273",
".$	c #607177",
"+$	c #526166",
"@$	c #576466",
"#$	c #5D6E70",
"$$	c #465F72",
"%$	c #627372",
"&$	c #3E5871",
"*$	c #687773",
"=$	c #3B5672",
"-$	c #747F77",
";$	c #3B5676",
">$	c #848C7F",
",$	c #326986",
"'$	c #3D647F",
")$	c #687A83",
"!$	c #3A3F4B",
"~$	c #464E62",
"{$	c #3D4455",
"]$	c #415B7D",
"^$	c #489DBC",
"/$	c #4791AE",
"($	c #425C80",
"_$	c #B88C73",
":$	c #DBA689",
"<$	c #BF9178",
"[$	c #436E88",
"}$	c #386483",
"|$	c #464F62",
"1$	c #3D4556",
"2$	c #589FBA",
"3$	c #3D88A6",
"4$	c #3C5171",
"5$	c #406985",
"6$	c #3A5E79",
"7$	c #415B7F",
"8$	c #3589A9",
"9$	c #458BA6",
"0$	c #534B4C",
"a$	c #5E5457",
"b$	c #3E6581",
"c$	c #3C5F79",
"d$	c #A47C67",
"e$	c #8F6C5A",
"f$	c #5090A9",
"g$	c #5192AD",
"h$	c #426383",
"i$	c #436383",
"j$	c #3C5B77",
"k$	c #3A5873",
"l$	c #344B5F",
"m$	c #2C3F4E",
"n$	c #314C62",
"o$	c #324C62",
"p$	c #274054",
"q$	c #3F5566",
"r$	c #335470",
"s$	c #355571",
"t$	c #395772",
"u$	c #3B6179",
"v$	c #5593AB",
"w$	c #4F869C",
"x$	c #3F99BA",
"y$	c #4E8398",
"z$	c #4C859B",
"A$	c #499EBD",
"B$	c #55869A",
"C$	c #5493AA",
"D$	c #61727A",
"E$	c #705A4D",
"F$	c #81695A",
"G$	c #81685A",
"H$	c #80685A",
"I$	c #6F5B4F",
"J$	c #58889B",
"K$	c #63747C",
"L$	c #75675E",
"M$	c #8F8176",
"N$	c #8E8176",
"O$	c #897E75",
"P$	c #887D74",
"Q$	c #7C7067",
"R$	c #488DA7",
"S$	c #4E869B",
"T$	c #5CA6C3",
"U$	c #538599",
"V$	c #438AA6",
"W$	c #428098",
"X$	c #4D9FBE",
"Y$	c #518599",
"Z$	c #5493AB",
"`$	c #426774",
" %	c #568DA2",
".%	c #568EA2",
"+%	c #4B7B8D",
"@%	c #3B87A3",
"#%	c #5E6E76",
"$%	c #B78B73",
"%%	c #3986A3",
"&%	c #667880",
"*%	c #3E5C67",
"=%	c #528191",
"-%	c #608895",
";%	c #648A97",
">%	c #587884",
",%	c #3A86A3",
"'%	c #367A94",
")%	c #58A4C1",
"!%	c #3989A7",
"~%	c #46575F",
"{%	c #367E9A",
"]%	c #54A7C7",
"^%	c #425158",
"/%	c #4F8094",
"  . + . . @ # + . . + . . . . . $ % & * = - - - . + . ; > , ' + # ) ! ~ { ] ^ + / # > ( & _ : + . < [ } | ~ 1 2 , & 3 > 4 4 ( . ",
"| < . 5 . / / / 5 / . / / < 6 ! .   7 } 8 + / / . 5 + 9 . _ 3 0 a 5 ) b % c d d e a f ) / / . g . 5 . / $ . h i ] j k l ) _ < / ",
"m / / / / / / g / / / - % n / . 7 o o i 4 p q r i 4 s + 5 t ; u 5 + v w x y | % b z g / f _ A g 5 / g / + g / A B C D E F G g / ",
"/ 5 ! % % & b e b e H / / / _ ! I ) $ _ J q y ^ ^ K + / - * ; ) G d ) - J F / g g / L r b % M ) / / g g - / b r E ] p 2 % - / / ",
"N C 8 ) - , & i 7 7 G ) l - O L / f % b / ) & w P L 5 5 5 5 / ; 4 y B   d M y Q R } n g / + S ) T F i y I / f C C 3 w - A g } $ ",
"% ) A $ A k J p # / U V s / 5 / 5 W | ; / L E o > A / + ) ) / / S / 5 / % k B X } u U - / g / A i k B r 8 / g e P P _ / u / 5 / ",
"w U Y Y O Z ` L / _ + / / g - O 8 , D P m W  .f / / Y _ % % f s - / u ..m f / Y g g A s % } 4 } g +.m f d 8 P D o @.#.g + V 3 s ",
"$.$.2 %.&.! *.=.: A + - U -./ ;.+ ;.;.>._ ,.+ >.>.>.;.: 7 '.).$.i } w i P - ;.>.>.>.!.7 >.-.7 L 8 | 7 %.w ! ! >.>.!., w ~.: ;.>.",
"$.$.$.j & a ! C 4 k 2 y $.i   >.= M s / h ! _ >.>.>./ w 2 * &   _ % 8 b + {.e >./ + - - >.]./ ].  O X ^./.$ # . : < h ].>.(.) / ",
"_.a ! M *.:.a y <.. ].: ! [.T }./ - }./ }.}.|.1._.2.& ^ <.3.q $.$.$.q 3.4.h a h 1.' }.5.(./.5.}.z }.].].5.].}.5.}.h 6.1./.5.} h ",
"$   _.* O . T |.G }.}.h 8 7.1 '.5.}./ / |.* & 8.J 1 9.! l 8 <.4 b 1.b 5.T 5._.0.5./ ' ! 9.^.^.^.M }.5.a.}.}.].  h / /.O z }.}./ ",
"z # }.5.z . / / / h * 8 * 5.|.% b.! c.# _.8.i $.d.  |.6.{ e.* % . }.. h |.}.e b , - { ^ , * }.h 1.1 $.o { K , 5.5.# / 5.f.z $   ",
"a a g.> $.h.M & % 8 , % $ /.a s i.! a a j.1.b a m a $ A _.1.$ :.g h # # T a./ ]./ . b.O $ h h _.G ].k./.% % 8 0.*   6 l ..].].}.",
"1.0.c _ G j._.* % e.^.0.- L - # f h g h g g [.* 9.J q 1 C P ! S l - a _.z ].}.g l.  h - m.M b z / ].].z * /.n.G _ /.- a.].].g ].",
"*.W g }.O a b.^ 8 8.* * *.# j.# g $ _.& % 8.i , 2 i % & 9.[.z h - / ].n.a.|./.}.g + O 1.1.% T h ].].z S a _.> $.{ 8 $ $ o.].5.b ",
"e.M - g ) / $ 7 c M 0.p.p.^ A h /.*.s 8 6 > > * * a G [.q.S g g.$.i _.n.! 1 3., G b a }.].].].}.:./.^.r.$.$.i.D $.$.$.$.$.> } $.",
"b.O 8 z $ ].].g L & i C i > / ].g T < 8 $.$.$.3.3.$.$.$.$.i < h $ $ a z n././.! 1.L # / A g ].].h *.q.*.s.p.k { $.$.$.$.i & L t.",
"0.u.% b c :.v.g g _ c ) ..m w.a A - t a x.y.y.G a z.s.4 A.B.C.D.E.F.G.H.L I.v.../ g f G f v.].v.W C J.Z J.K.p.y R p.s.% f v.w.].",
"z / / T L.v.v.< * w w 8 * ^.i > : M.N.O.P.Q.R.S./ W T.U.V.W.X.X.X.X.X.Y.Z.F b *.$ - }.L./ v.h T / T : A *.6 8 *.l $   g v./ $ s ",
"< {.`.L.`.>.6.| D y J p > > b  +.+++X.X.X.X.W.@+#+$+%+X.X.X.X.X.X.X.X.X.&+*+/ : =+`.=+}.>.  L.L.L.=+=+=+=+L.`.# z & | -+2 & O : ",
"^ k / >.;+k k j ^ , $ : / >.>+,+X.X.X.X.X.X.X.X.X.X.X.X.X.X.X.X.'+)+!+~+X.{+i b / . ]+& 7 # - 7 1.' O = $ < + =+- =+=+/ b # < o.",
"p - >.9 ! 9 _.< & O % ^+: (./+X.X.X.X.X.X.X.X.X.X.(+_+X.X.X.X.:+<+, ! [+X.}+# =+=+`.. * > j j Q j j j j o j j ^.| ^+! $ $ ! G _.",
"+ =+=+`.=+/ f O & > | p y k |+X.X.X.X.X.X.X.X.1+2+3+4+5+X.X.6+7+y j 8+9+0+a+b+=+< , y j j y c+> J p j j j j j y j j j w < G =+=+",
">./ d+/ h a j B k p Z y F z e+W.X.X.X.X.X.f+g+h+2 y @.i+j+k+l+% @.j m+n+o+o+p+2.i _ G - g G f ) O d d A P > } M i D ^.4 ; } F F ",
"L.5 T =+>.) L %.7 b Z q+P F r+s+t+X.X.u+v+w+^.P L d %.: x+=+d+x+/ y+z+A+B+C+D++ =+d+f / / l O     O S + _ _ % 8 k k j @.j j j j ",
"+ d+d+d+5 : L $ d _ < P 8 % u E+F+G+H+I+d L L a ) ) U u 5 . + 5 g J+K+K+K+K+L+^.| a L * M+N+O+; / : - U y Z C 8 & W F ` ; ; % $ ",
"4 # h v./ =+S z _.M P+Z Z p.Z C s.% '.j j p.P Z j y 4 _.b S _.! - Q+K+K+K+K+R+% & b.a y.S+T+U+v.# T 5.2.& % % 8 8 L z _.* / h T ",
"G a.n.* b b L V+  * % i y Z y p.W+, b z X+Y+Y+Z+`+ @.@Y++@@@#@$@%@&@*@*@A+=@-@;@>@k.,@,@'@K+)@_ 8 C Z Z Z Z Z Z Z Z Z i i c.v.M ",
"w 6 !@~@h.z.C c :.v.V+S {@V+q.L h h k.]@^@K+K+K+K+K+K+K+K+K+K+K+K+K+K+K+K+K+K+K+/@% % 6 (@K+_@:@A _ * C ~@Z Z Z Z W+y p.4 x.....",
"M 8 p.q+* L h - f.! ^.} $ [.k M a.0.4 * ^@K+K+K+K+K+K+K+K+K+K+K+K+K+K+K+K+K+K+K+<@k 4 [@}@K+K+|@. $ _.k._.y C k Z W+p.1@C 1.! 1.",
"b.& ].- }.].& 8.( 8 M b.J M p y 2@3@4@3@5@6@6@6@7@6@6@6@6@6@6@8@9@9@9@9@8@9@8@9@0@a@k b@c@K+K+d@z >.. x+/ =+a ;+^+* ;+D '.h }.e@",
"e@x+]+z . z 1.'., r @.^.4 8 k * f@g@g@g@g@g@g@g@g@g@g@g@g@g@g@g@g@g@g@g@g@g@g@g@g@h@y i@K+K+K+j@M i i 2 k '.r X = @ . - x+e@_.} ",
"O k@e@# / x+l@m@n@o@p@q@r@s@t@u@v@w@x@y@x@z@x@x@z@z@x@A@B@C@y@y@y@D@E@F@G@H@H@H@H@I@s@J@C+C+C+K@L@M@N@O@P@O@Q@R@S@T@U@k@/ | h / ",
"M 7 B R /.P V@W@X@Y@n+Z@X@Z@Z@o+`@`@X@X@X@X@X@X@X@X@X@ #.#+#X@X@X@Y@@###$#n+Z@%#n+Y@Z@Y@X@X@Y@Z@Z@Y@Y@Y@X@X@Z@n+n+&#*#].T O A - ",
"1@1@1@1@Z '.k =#-#-#-#-#-#-#-#-#-#-#-#-#-#-#-#-#-#-#-#;#.#>#,#,#,#,#'###)#-#-#-#-#-#-#-#-#-#-#-#-#-#-#-#-#-#-#-#!#~#% {#{#_.. ]#",
"P k i y 1@^ 4 ^#/#(#(#(#(#(#(#(#_#(#(#:#<#<#[#(#(#(#(#}#|#1#2#2#2#2#3###4#<#<#5#<#<#<#<#<#<#<#<#<#6#:#5#<#<#<#7#8#_.g ]#W k@{#{#",
"v._.L.(.% P+> y 9#0#g@g@g@g@g@g@g@g@g@g@g@g@g@g@g@g@g@a#b#c#d#d#d#d#e###f#g@g@g@g@g@g@g@g@g@g@g@g@g@g@g@g@g@g@g#=+v.v.]#/ v.W k@",
"k@]#{#k@]#]#]#].v.h#g@g@g@g@i#j#g@k#l#m#n#o#p#q#r#s#g@t#.#u#v#w#g@x#y###z#A#g@B#C#g@D#E#g@F#G#H#I#J#K#g@g@g@L#M#{#]#{#{#{#]., z ",
"].x+{#]#k@]#]#1.P N#O#g@g@g@P#Q#m#R#S#T#U#V#W#0#X#Y#g@Z#.#u#`# $g@.$+$##@$#$g@$$%$g@&$*$g@=$-$K#;$>$;$g@g@g@,${#]#{#{#]#].h ]@{#",
"< v.x+- ]#v.{#{#]#]#'$g@g@g@g@g@g@g@g@g@g@g@g@g@g@g@g@a#)$!$~$~$~$~${$##f#g@g@g@g@g@g@g@g@g@g@g@g@g@g@g@g@]$^$w > > P p.1@r i . ",
"k@x++ O d b - b k@a /$($g@g@g@g@g@g@g@g@g@g@g@g@g@g@g@a###_$:$:$:$:$<$##f#g@g@g@g@g@g@g@g@g@g@g@g@g@g@g@g@[$r 1@r Z r Z P+Z & % ",
"/ M i i a 8.6 1@i y $ }$g@g@g@g@g@g@g@g@g@g@g@g@g@g@g@a#.#!$|$|$|$|$1$##f#g@g@g@g@g@g@g@g@g@g@g@g@g@g@g@k#2$r r r r Z 1@C P g ]#",
"]./ g f {#k@I.h n.$ < 3$n#g@g@g@g@g@g@g@g@g@g@g@g@g@g@a#.#u#g@g@g@g@4$##f#g@g@g@g@g@g@g@g@g@g@g@g@g@g@g@5$& > S > C 1@1@2.e x+k@",
"k@]#]#]#g , C ^.k r k p 6$g@g@g@g@g@g@g@g@g@g@g@g@g@g@a#.#u#g@g@g@g@4$##f#g@g@g@g@g@g@g@g@g@g@g@g@g@g@7$8${#{#{#{#k@k@/ k@/ ]#]#",
"]#k@]#]#k@]#t s W X 8 z 9$n#g@g@g@g@g@g@g@g@g@g@g@g@g@a#b#0$d#d#d#d#a$##f#g@g@g@g@g@g@g@g@g@g@g@g@g@g@b$O # / / ].{#v._ > D D y ",
". ]#]#]#]#]#T $ 6 C i r r c$g@g@g@g@g@g@g@g@g@g@g@g@g@a#|#1#d$d$d$d$e$##f#g@g@g@g@g@g@g@g@g@g@g@g@g@n#f$Z 1@Z r 1@P J Z Z Z 1@1@",
"]#]#]#]#k@]#a ^ p r C 1@1@g$h$i$h$i$i$h$i$h$i$i$i$j$k$l$.#m$n$n$o$n$p$##q$r$r$r$s$s$t$k$k$k$k$k$k$k$u$1@r 1@r Z 1@1@Z r 1@1@r r ",
"]#]#]#]#]#]#]#x+- @.P P Z @.r r r r r r 1@Z Z Z Z Z 1@v$.#w$i D r % x$##y$% / x+y 1@r 1@r p _.i r r C i F 8 h l r Z r ^.y 1@C r ",
"{#k@]#]#]#]#]#]#]#]#x+. l @.r r r r 1@r 1@r Z 1@r r 1@v$.#z$r y r 4 A$##B$& k B Z r Z r r r k D D i {@x+]#{#{#]#z R b i p.C k 1@",
"k@]#k@]#{#]#]#]#g v.- x+].].$ & i y y r r 1@1@1@1@Z r C$D$E$F$G$F$H$I$##J$r r r r 1@r C 8 $ ) {#{#f   A - ) O ) 7 $   k x+: k 1@",
"k@]#]#k@]#x+]#x+< > ^.X h S W - $ x+$ ^ 0.y Z 1@r 1@r v$K$L$M$N$O$P$Q$##J$r r 1@P w O   _.} D 4 *.Z Z 1@1@1@Z Z r r 1@1@i '.^._ ",
"]#k@]#]#]#]#]#x+B p S 8 y r 1@r r Z y w % ^ 1@r 1@r q+R$.#S$% & a 4 T$##U$p z T } % w p 8.]@- _ $ d _ p.1@1@i y 1@1@1@y 1@y 1@1@",
"]#]#{#]#]#]#]#k@*.a L T M 1@y > O 1@r Z 4 r r r Z 1@l V$.#W$% 8 r r X$##Y$p @.J Z r 1@r 5.G v.]#]#]#]#v.f *.; y i 1@1@y Z 1@1@1@",
"x+x+x+]#]#]#]#]#{#]#k@]#z W %.) ]#- *.F ..R P < b b '.Z$.#`$ %.% % %+%##J$1@r 1@1@1@Z Z M # ]#]#x+]#]#]#]#x+$ R k i 1@4 1@1@1@1@",
"]#a < ]#]#k@]#k@{#/ x+k@]#]#k@]#k@]#h {#_ 1@> b ].]#x+@%#%$%:$:$:$:$<$##J$Z 1@r r r 1@r 1.{## G O {#h i r r Z Z r Z Z C 1@k _ X ",
"- {#- P w k@]#k@].]#]#]#_ $ {#  k@0.G ]#, y i b : ]#k@%%&%*%=%-%;%;%>%##J$r 1@Z Z r r T x+{#$ ]#v.8 k 1@1@r r k r r 1@1@1@1@T ]#",
"{#]#x+$ G k@]#k@].]#]#{#{#v.{#g {#g {#{#5.- /.]#x+P x+,%.#'%]#k@} M )%##J$r Z C k r @.* {#X A A p Z 1@r r 1@1@k 4 D w ^.w ) ]#]#",
"{#]#{#]#]#]#]#]#]#]#]#k@k@k@]#k@{#k@# W / ]#{#]#].T {#!%~%{%{#! ^.w ]%^%/%r r y k r r r p r r 1@1@r 1@Z 1@r M s . x+]#{#k@k@].A ",
"k@]#v.z %.7 g h k@]#x+]#k@]#]#x+]#m ^.% k.]#]#]#]#{#k@{#{#]#{#g k.L p r r r r Z Z r r r r r r r r Z 1@r r r k {#].v.{#]#]#{#A D ",
"i ^ C C y p a / ]#]#]#]#]#]#L.]#- / ]#k@{#]#]#]#]#]#k@{#{#{#{#{#{#]#b r r Z r Z r r 1@r r r r r 1@Z r Z r F G {#{#]#]#]#/ c ]#W ",
"1@y y y y % ]#]#]#]#]#]#_ w p X y O k@k@]#k@]#]#]#]#k@{#{#{#{#{#{#]#k@/.$   C 1@r r r r r r r 1@r Z r Z r _ ]#]#{#]#]#]#]#..]#{#",
"y y 1@i w / ]#k.L.& '.v.% y 1@y 1@> p.- ) ]#]#{#]#]#k@k@k@{#{#]#{#]#]#]#]#]#_ , M F M % ; P i 1@r Z p & g {#{#]#]#]#]#]#{#{#]#{#",
"p 1@y k w X @.M z g v.].8 y C ..h ]#k@]#]#]#]#{#]#]#]#]#]#k@]#{#{#]#{#{#{#{#{#{#{#{#{#{#{#{#{#: G ].{#]#{#]#k@k@]#]#{#]#k@k@]#{#",
"h b a G h O $ x+]#]#/ > y r y k w % b O ].]#k@]#]#k@].d , ^.X , l A x+{#{#{#]#{#{#]#{#k@k@{#]#]#]#k@]#{#{#{#{#{#k@{#]#]#]#]#{#]#"};
