/* XPM */
static char * one_xpm[] = {
"21 21 192 2",
"  	c #F1CE8B",
". 	c #F0CD8A",
"+ 	c #EECB88",
"@ 	c #F1CF8B",
"# 	c #E8C485",
"$ 	c #EAC686",
"% 	c #EDCA88",
"& 	c #F0CF8B",
"* 	c #F0CE8B",
"= 	c #EFCB89",
"- 	c #ECC988",
"; 	c #EBC787",
"> 	c #EAC687",
", 	c #EAC787",
"' 	c #ECCA88",
") 	c #EECC8A",
"! 	c #EFCC8A",
"~ 	c #ECC888",
"{ 	c #EFCD8A",
"] 	c #F0CD8B",
"^ 	c #EBC988",
"/ 	c #EAC586",
"( 	c #DCB67D",
"_ 	c #DEB87E",
": 	c #E6C284",
"< 	c #D7996C",
"[ 	c #C76F52",
"} 	c #C87657",
"| 	c #E1BC81",
"1 	c #E3BE82",
"2 	c #DDB87D",
"3 	c #DDB77D",
"4 	c #DFA873",
"5 	c #CD825E",
"6 	c #BD5846",
"7 	c #AF1A26",
"8 	c #AB001C",
"9 	c #BE5443",
"0 	c #EECB89",
"a 	c #E7C385",
"b 	c #EAC486",
"c 	c #F0CC8A",
"d 	c #BA4D3F",
"e 	c #E8C484",
"f 	c #EECA88",
"g 	c #EFCB88",
"h 	c #EECA89",
"i 	c #EBC786",
"j 	c #ECC786",
"k 	c #E5C083",
"l 	c #BC4F41",
"m 	c #E1BB80",
"n 	c #DDB67E",
"o 	c #DCB57D",
"p 	c #DEB77E",
"q 	c #E8C384",
"r 	c #F0CB8A",
"s 	c #F0CC89",
"t 	c #EEC988",
"u 	c #BF5443",
"v 	c #ECC887",
"w 	c #E7C183",
"x 	c #E4BE82",
"y 	c #E5BF83",
"z 	c #E2BC81",
"A 	c #E2BC82",
"B 	c #E0BB80",
"C 	c #BD5242",
"D 	c #ECC788",
"E 	c #EBC687",
"F 	c #E6C183",
"G 	c #E9C586",
"H 	c #E7C284",
"I 	c #E7C184",
"J 	c #DEB87F",
"K 	c #E0BA80",
"L 	c #EDC989",
"M 	c #EDC888",
"N 	c #EFCB8A",
"O 	c #EDC988",
"P 	c #E8C385",
"Q 	c #E9C486",
"R 	c #DFB880",
"S 	c #E8C285",
"T 	c #E4BC82",
"U 	c #DEB67F",
"V 	c #DAB37D",
"W 	c #DEB77F",
"X 	c #E3BD82",
"Y 	c #E7C084",
"Z 	c #E3BC82",
"` 	c #DBB57D",
" .	c #E0B980",
"..	c #E2BB81",
"+.	c #BD5042",
"@.	c #E5BF84",
"#.	c #DBB47D",
"$.	c #DBB37D",
"%.	c #DCB47D",
"&.	c #DCB57E",
"*.	c #E0BA7F",
"=.	c #EAC487",
"-.	c #EFCA8A",
";.	c #EFCA89",
">.	c #E6C084",
",.	c #EBC587",
"'.	c #EFC98A",
").	c #E8C286",
"!.	c #E6BE84",
"~.	c #E9C285",
"{.	c #E5BE83",
"].	c #DDB57E",
"^.	c #E0B97F",
"/.	c #E8C185",
"(.	c #BC4E41",
"_.	c #E7C085",
":.	c #E5BD83",
"<.	c #E1BA80",
"[.	c #EFC888",
"}.	c #EEC889",
"|.	c #EBC486",
"1.	c #E3BC81",
"2.	c #DDB47E",
"3.	c #D9B07C",
"4.	c #DBB27C",
"5.	c #DAB27C",
"6.	c #BE5242",
"7.	c #EBC586",
"8.	c #E6C083",
"9.	c #E4BD82",
"0.	c #E5BE82",
"a.	c #EDC788",
"b.	c #EEC989",
"c.	c #EEC888",
"d.	c #EBC487",
"e.	c #EAC286",
"f.	c #ECC587",
"g.	c #ECC787",
"h.	c #B94B3F",
"i.	c #DAB37C",
"j.	c #DAB17C",
"k.	c #E6BF84",
"l.	c #E4BE83",
"m.	c #E7BF84",
"n.	c #E5BD82",
"o.	c #EFC989",
"p.	c #EAC386",
"q.	c #DFB77F",
"r.	c #B94A3E",
"s.	c #E3BD81",
"t.	c #DEB67E",
"u.	c #E2BA81",
"v.	c #DCB37D",
"w.	c #E1B980",
"x.	c #DEB47E",
"y.	c #D0926A",
"z.	c #D1946A",
"A.	c #C57657",
"B.	c #B01B27",
"C.	c #D18F67",
"D.	c #D79B6E",
"E.	c #D9A371",
"F.	c #E1BA81",
"G.	c #ECC687",
"H.	c #E8C085",
"I.	c #E0B880",
"J.	c #DDB47D",
"K.	c #BD5142",
"L.	c #ECC688",
"M.	c #E0B77F",
"N.	c #DBB17D",
"O.	c #DCB37E",
"P.	c #DEB57E",
"Q.	c #E5BB83",
"R.	c #E9C286",
"S.	c #DCB37C",
"T.	c #E3BA82",
"U.	c #DEB57F",
"V.	c #E3BB82",
"W.	c #E6BD84",
"X.	c #EDC688",
"Y.	c #E9C185",
"Z.	c #E5BD84",
"`.	c #E2B981",
" +	c #EDC589",
".+	c #EDC689",
"++	c #EDC789",
"@+	c #ECC588",
"#+	c #EBC388",
"$+	c #EBC387",
"%+	c #EAC387",
"&+	c #DBB27D",
"  .     .   +   @   . # $     @   @ @   % ",
"& * * * = - ; % > $ , ' ) . ! ~ { * & * # ",
"* ] * . ^ , / ( _ : < [ } | 1 ; * * * # 2 ",
"3 1 . % ] * 4 5 6 7 8 8 9 0 * * ] * a # # ",
"b . . c c c 8 8 8 8 8 8 d e f c . . g h i ",
"c j k $ c . 8 8 8 8 8 8 l m n n o p q . . ",
"r s c c c c c t h 8 8 8 u v = ~ m w x y z ",
"; h A / ! ! = k B 8 8 8 C : D # E F G ! ! ",
"H I J K x L M E N 8 8 8 u N O A D E P Q ~ ",
"R J S O T U V W D 8 8 8 l Q O X Y Z ` n  .",
"X E ..b E P H E S 8 8 8 +.@.K #.$.%.&.*.%.",
"=.-.;.>.,.'.).!.!.8 8 8 l ~.{.n #.#.].^. .",
"-.-.D Y /./.I /.=.8 8 8 (._.-.t :.<.A b D ",
",.[.}.|.1.2.3.4.5.8 8 8 6./.S 7.x 8.Z 9.0.",
"a.b.c.d.e.f.|.a.g.8 8 8 h.i.j.o 8.S ,.k.l.",
"n <.m.n.!.Y o.p.q.8 8 8 r.5.i.W k.s.t.#.*.",
"=.p.u.v.w.x.y.z.A.8 8 8 B.C.D.E...n F./.,.",
"G.H.I.2.t.J.8 8 8 8 8 8 8 8 8 K.d.L.p.T 9.",
"M.N.O.P.U Q.8 8 8 8 8 8 8 8 8 l R._./.m.S.",
"I.!.T.U.V.W.k.d.d.k.X.Y._.Z.T `.T./.k.t.].",
" +.+++X.d.@+#+Y.#+$+%+L.m.X.%+:.I.&+$.v.I."};
