/* XPM */
static char * 5_xpm[] = {
"64 64 202 2",
"  	c #50B2D7",
". 	c #48AED5",
"+ 	c #49AFD6",
"@ 	c #49AED5",
"# 	c #4CB0D6",
"$ 	c #4FB2D7",
"% 	c #59B7DA",
"& 	c #5AB7DA",
"* 	c #57B6D9",
"= 	c #51B2D8",
"- 	c #4BB0D6",
"; 	c #57B6DA",
"> 	c #60BADC",
", 	c #5EB9DB",
"' 	c #4DB0D6",
") 	c #4DB1D7",
"! 	c #56B5D9",
"~ 	c #66BCDD",
"{ 	c #66BDDD",
"] 	c #6CBFDF",
"^ 	c #62BBDC",
"/ 	c #47AED5",
"( 	c #60B9DC",
"_ 	c #51B3D8",
": 	c #4AAFD6",
"< 	c #4EB1D7",
"[ 	c #56B4D9",
"} 	c #58B6DA",
"| 	c #5DB8DB",
"1 	c #69BEDE",
"2 	c #63BBDD",
"3 	c #5BB7DB",
"4 	c #63BCDD",
"5 	c #48AFD6",
"6 	c #5CB9DB",
"7 	c #54B4D9",
"8 	c #5DB9DB",
"9 	c #4FB1D7",
"0 	c #59B6DA",
"a 	c #53B4D8",
"b 	c #55B5D9",
"c 	c #5AB8DA",
"d 	c #53B4D9",
"e 	c #55B4D9",
"f 	c #4AB0D6",
"g 	c #46AED5",
"h 	c #49AFD5",
"i 	c #64BCDD",
"j 	c #6ABFDF",
"k 	c #66BDDE",
"l 	c #58B7DA",
"m 	c #4DB2D7",
"n 	c #4BB1D7",
"o 	c #6BBFDF",
"p 	c #67BDDE",
"q 	c #6CC0DF",
"r 	c #69BEDF",
"s 	c #54B5D9",
"t 	c #4BB1D6",
"u 	c #4CB1D7",
"v 	c #5DB9DC",
"w 	c #5CB8DB",
"x 	c #6DC0E0",
"y 	c #68BEDE",
"z 	c #4DB1D6",
"A 	c #4EB2D7",
"B 	c #5EB9DC",
"C 	c #67BEDE",
"D 	c #62BBDD",
"E 	c #6CC0E0",
"F 	c #5BB8DB",
"G 	c #4CB1D6",
"H 	c #56B6DA",
"I 	c #49B0D6",
"J 	c #65BCDD",
"K 	c #67BDDD",
"L 	c #52B4D8",
"M 	c #5BB8DA",
"N 	c #65BCDE",
"O 	c #52B3D8",
"P 	c #5FBADC",
"Q 	c #68BDDE",
"R 	c #60BBDC",
"S 	c #50B3D7",
"T 	c #48AFD5",
"U 	c #4FB2D8",
"V 	c #55B6D9",
"W 	c #50B3D8",
"X 	c #5FB9DC",
"Y 	c #47AFD6",
"Z 	c #69BFDF",
"` 	c #5AB7DB",
" .	c #56B5DA",
"..	c #47AFD5",
"+.	c #4FB3D8",
"@.	c #65BDDE",
"#.	c #52B4D9",
"$.	c #6BC0DF",
"%.	c #50B2D8",
"&.	c #59B7DB",
"*.	c #56B6D9",
"=.	c #53B3D9",
"-.	c #4CB0D7",
";.	c #47AED6",
">.	c #46ADD5",
",.	c #48AED6",
"'.	c #61BADC",
").	c #6BC0E0",
"!.	c #4BB0D7",
"~.	c #57B5DA",
"{.	c #4DB0D7",
"].	c #45ADD4",
"^.	c #61BBDC",
"/.	c #51B3D7",
"(.	c #57B5D9",
"_.	c #54B4D8",
":.	c #4EB2D6",
"<.	c #67BEDD",
"[.	c #55B5D8",
"}.	c #46ADD4",
"|.	c #4EB1D6",
"1.	c #58B6D9",
"2.	c #54B5D8",
"3.	c #6ABFDE",
"4.	c #5DB8DA",
"5.	c #4AAFD5",
"6.	c #55B4D8",
"7.	c #5FB9DB",
"8.	c #5BB7DA",
"9.	c #60BADB",
"0.	c #5FBADB",
"a.	c #47AED4",
"b.	c #5CB8DA",
"c.	c #4FB2D6",
"d.	c #63BBDC",
"e.	c #63BCDC",
"f.	c #4BB0D5",
"g.	c #58B7D9",
"h.	c #62BCDC",
"i.	c #69BFDE",
"j.	c #59B7D9",
"k.	c #46AED4",
"l.	c #48AED4",
"m.	c #53B4D7",
"n.	c #4AB0D5",
"o.	c #52B3D7",
"p.	c #65BDDD",
"q.	c #52B4D7",
"r.	c #6BBFDE",
"s.	c #5EBADB",
"t.	c #56B5D8",
"u.	c #57B7D9",
"v.	c #44ADD4",
"w.	c #4FB3D7",
"x.	c #5CB9DA",
"y.	c #51B4D8",
"z.	c #62BCDD",
"A.	c #6AC0DF",
"B.	c #5FBBDC",
"C.	c #45AED4",
"D.	c #68BFDE",
"E.	c #45ADD5",
"F.	c #45ACD4",
"G.	c #4BAFD6",
"H.	c #44ACD4",
"I.	c #64BCDE",
"J.	c #51B2D7",
"K.	c #53B3D8",
"L.	c #62BADC",
"M.	c #47ADD5",
"N.	c #6ABEDE",
"O.	c #66BCDE",
"P.	c #44ADD5",
"Q.	c #5EBADC",
"R.	c #43ACD4",
"S.	c #5AB8DB",
"T.	c #64BDDD",
"U.	c #43ACD3",
"V.	c #25131A",
"W.	c #4DB2D6",
"X.	c #66BEDE",
"Y.	c #43ADD3",
"Z.	c #3D253B",
"`.	c #42ACD3",
" +	c #43ADD4",
".+	c #5BB9DA",
"++	c #68BFDF",
"@+	c #49B0D5",
"#+	c #68BEDF",
"$+	c #64BBDD",
"%+	c #42ABD3",
"&+	c #43ABD3",
"*+	c #CAE6F5",
"=+	c #895A45",
"-+	c #FFD569",
";+	c #41ABD3",
">+	c #BF704D",
",+	c #42ACD4",
"'+	c #523B40",
")+	c #606060",
"!+	c #D1851E",
"~+	c #61BBDD",
"  . + . . @ # + . . + . . . . . $ % & * = - - - . + . ; > , ' + # ) ! ~ { ] ^ + / # > ( & _ : + . < [ } | ~ 1 2 , & 3 > 4 4 ( . ",
"| < . 5 . / / / 5 / . / / < 6 ! .   7 } 8 + / / . 5 + 9 . _ 3 0 a 5 ) b % c d d e a f ) / / . g . 5 . / $ . h i ] j k l ) _ < / ",
"m / / / / / / g / / / - % n / . 7 o o i 4 p q r i 4 s + 5 t ; u 5 + v w x y | % b z g / f _ A g 5 / g / + g / A B C D E F G g / ",
"/ 5 ! % % & b e b e H / / / _ ! I ) $ _ J q y ^ ^ K + / - * ; ) G d ) - J F / g g / L r b % M ) / / g g - / b r E ] p 2 % - / / ",
"N C 8 ) - , & i 7 7 G ) l - O L / f % b / ) & w P L 5 5 5 5 / ; 4 y B   d M y Q R } n g / + S ) T F i y I / f C C 3 w - A g } $ ",
"% ) A $ A k J p # / U V s / 5 / 5 W | ; / L E o > A / + ) ) / / S / 5 / % k B X } u U - / g / A i k B r 8 / g e P P _ / u / 5 / ",
"w U Y Y O Z ` L / _ + / / g - O 8 , D P m W  .f / / Y _ % % f s - / u ..m f / Y g g A s % } 4 } g +.m f d 8 P D o @.#.g + V 3 s ",
"$.$.2 %.&.! *.=.: A + - U -./ ;.+ ;.;.>._ ,.+ >.>.>.;.: 7 '.).$.i } w i P - ;.>.>.>.!.7 >.-.7 L 8 | 7 %.w ! ! >.>.!., w ~.: ;.>.",
"$.$.$.j & a ! C 4 k 2 y $.i   >.= M s / h ! _ >.>.>./ w 2 * &   _ % 8 b + {.e >./ + - - >.]./ ].  O X ^./.$ # . : < h ].>.(.) / ",
"_.a ! M *.:.a y <.. ].: ! [.T }./ - }./ }.}.|.1._.2.& ^ <.3.q $.$.$.q 3.4.h a h 1.' }.5.(./.5.}.z }.].].5.].}.5.}.h 6.1./.5.} h ",
"$   _.* O . T |.G }.}.h 8 7.1 '.5.}./ / |.* & 8.J 1 9.! l 8 <.4 b 1.b 5.T 5._.0.5./ ' ! 9.^.^.^.M }.5.a.}.}.].  h / /.O z }.}./ ",
"z # }.5.z . / / / h * 8 * 5.|.% b.! c.# _.8.i $.d.  |.6.{ e.* % . }.. h |.}.e b , - { ^ , * }.h 1.1 $.o { K , 5.5.# / 5.f.z $   ",
"a a g.> $.h.M & % 8 , % $ /.a s i.! a a j.1.b a m a $ A _.1.$ :.g h # # T a./ ]./ . b.O $ h h _.G ].k./.% % 8 0.*   6 l ..].].}.",
"1.0.c _ G j._.* % e.^.0.- L - # f h g h g g [.* 9.J q 1 C P ! S l - a _.z ].}.g l.  h - m.M b z / ].].z * /.n.G _ /.- a.].].g ].",
"*.W g }.O a b.^ 8 8.* * *.# j.# g $ _.& % 8.i , 2 i % & 9.[.z h - / ].n.a.|./.}.g + O 1.1.% T h ].].z S a _.> $.{ 8 $ $ o.].5.b ",
"e.M - g ) / $ 7 c M 0.p.p.^ A h /.*.s 8 6 > > * * a G [.q.S g g.$.i _.n.! 1 3., G b a }.].].].}.:./.^.r.$.$.i.D $.$.$.$.$.> } $.",
"b.O 8 z $ ].].g L & i C i > / ].g T < 8 $.$.$.3.3.$.$.$.$.i < h $ $ a z n././.! 1.L # / A g ].].h *.q.*.s.p.k { $.$.$.$.i & L t.",
"0.u.% b c :.v.g g _ c ) ..m w.a A - t a x.y.y.G a z.s.4 ^.6 L % l 8 A.B.L C.v.../ g f G f v.].v.W C D.Z D.A.p.y R p.s.% f v.w.].",
"z / / T E.v.v.< * w w 8 * ^.i > : S < < # . E.$ / W O # G _ s _.s L S A b F b *.$ - }.E./ v.h T / T : A *.6 8 *.l $   g v./ $ s ",
"< {.F.E.F.>.6.| D y J p > > b G.9 ! o.: a 1.$ @ # : H.E.F.$ ! ^ '.O h + E.< / : H.F.H.}.>.  E.E.E.H.H.H.H.E.F.# z & | I.2 & O : ",
"^ k / >.J.k k j ^ , $ : / >.' J.. / - G.: / 7   # / < = * J j > & w 2 * b '.i b / . G.& 7 # - 7 1.' O = $ < + H.- H.H./ b # < o.",
"p - >.9 ! 9 _.< & O % K.: (.. L.8 - A M.O . . /.b = '.j j j j N.j , ! 1 1 M # H.H.F.. * > j j Q j j j j o j j ^.| K.! $ $ ! G _.",
"+ H.H.F.H./ f O & > | p y k ) O _ ; 1.f _ - ) + ! b > i j j j j y j > 7   : E.H.< , y j j y O.> J p j j j j j y j j j w < G H.H.",
">./ P./ h a j B k p Z y F z + 5 g % P > p ; R [.2 y @.F * _ ; % @.j y j F } / 2.i _ G - g G f ) O d d A P > } M i D ^.4 ; } F F ",
"E.5 T H.>.) L %.7 b Z Q.P F L - ) + $ f s C ^.P L d %.: R.H.P.R./ T O b W ..) + H.P.f / / l O     O S + _ _ % 8 k k j @.j j j j ",
"+ P.P.P.5 : L $ d _ < P 8 % u S.y.+ P._.d L L a ) ) U u 5 . + 5 g P.f R.$ S.i ^.| a L * > M M ; / : - U y Z C 8 & W F ` ; ; % $ ",
"4 # h v./ H.S z _.M T.Z Z p.Z C s.% '.j j p.P Z j y 4 _.b S _.! - f H.R.U.z $ V.V.V.V.y.T / g v.# T 5.2.& % % 8 8 L z _.* / h T ",
"G a.n.* b b L W.  * % i y Z y p.X., b z $ a W.b , _ z /.n.8 k Z Z Z Z 4 * Y.V.Z.Z.Z.Z.V.`. +U._ 8 C Z Z Z Z Z Z Z Z Z i i c.v.M ",
"w 6 .+++h.z.C c :.v.W.S @+W.q.L h h k.`.@+- /.2.$ / v.W.n.g.1.6 P 4 , 4 , V.Z.Z.Z.Z.Z.V.F f...y.A _ * C ++Z Z Z Z X.y p.4 x.....",
"M 8 p.Q.* L h - f.! ^.} $ [.k M a.0.4 * G % > ^ 6 L : / /.5.]._ > ++C k C V.Z.Z.Z.Z.Z.V.Z Z b > . $ _.k._.y C k Z X.p.#+C 1.! 1.",
"b.& ].- }.].& 8.( 8 M b.J V.V.V.$+k } > /.F.%+R.&+&+R.R.|._ b.k r #+r i V.Z.*+*+*+*+*+V.2   5./ z >.. R./ H.a J.K.* J.D '.h }.&+",
"&+R.G.z . z 1.'., r @.^.4 V.=+=+V.e # %+# &+>.R.%+R.%+].g J.p i C V.V.V.V.Z.Z.Z.Z.Z.*+*+V.@ O   M i i 2 k '.r X = @ . - R.&+_.} ",
"O %+&+# / R.R.R.R.z . _.J.a V.=+=+V.}.  H.&+R.R.%+%+z H.5.! > ^ V.-+-+-+V.Z.Z.Z.Z.Z.Z.Z.V.%+R.* r p '.i R i 8 - 8.. R.%+/ | h / ",
"M 7 B R /.P > ].].b Z 8 v.a 7 V.=+=+V.V.;+].R.%+H.R.)   n.V.V.V.-+-+-+-+-+>+>+>+Z.Z.Z.Z.V.;+/ a _ k.}.# *.! 2 #+8 5.,+].T O A - ",
"#+#+#+#+Z '.k D D - > p.% 2 > V.=+=+'+'+V.V.g A & i V.V.V.Z.Z.Z.-+-+-+-+-+>+>+>+>+>+V.V.,+,+;+,+%+g / R.- z A / O M % ;+;+_.. ,+",
"P k i y #+^ 4 s P i p.#+r #+#+#+V.'+'+'+'+'+V.V.V.V.)+Z.Z.Z.Z.Z.-+-+-+-+-+>+>+>+>+>+V.;+%+;+;+;+%+S > 7 T ;+z *.a._.g ,+W %+;+;+",
"v._.E.(.% T.> y #+#+r #+r #+#+#+C V.'+'+'+'+'+'+'+)+)+Z.Z.Z.Z.Z.Z.-+-+-+*+>+>+>+>+>+V.%+,+%+;+k.,+;+) 4 ^.X D 0 H.v.v.,+/ v.W %+",
"%+,+;+%+,+,+,+].v./ - G   > *._ G } V.'+'+'+'+)+)+)+)+Z.Z.Z.Z.Z.Z.!+!+!+*+>+>+>+>+V.%+;+;+;+%+;+;+;+%+;+f ! }.;+;+,+;+;+;+]., z ",
"].R.;+,+%+,+,+1.P ].F y C @.8 Z Z #+V.V.'+)+)+)+)+)+)+Z.Z.Z.Z.Z.!+!+!+*+*+*+>+>+>+V.%+,+E.].,+,+;+k.# v.;+;+%+;+,+;+;+,+].h `.;+",
"< v.R.- ,+v.;+;+,+,+^.M y r r Z V.V.)+)+)+)+)+)+)+)+)+)+Z.Z.Z.Z.-+-+-+!+*+*+*+V.V.V.T '.r r P % * D p k ~+b _ w > > P p.#+r i . ",
"%+R.+ O d b - b %+a % % i f V.V.)+)+)+)+)+)+)+)+)+)+)+)+)+Z.Z.*+-+-+-+!+!+!+-+-+-+V.} r r r r r #+r C Z Z r r #+r Z r Z T.Z & % ",
"/ M i i a 8.6 #+i y $ ].V.V.)+)+)+)+)+)+)+)+V.V.V.V.V.V.V.V.V.V.V.V.V.V.V.!+-+-+-+V.%+$ $ a p #+#+r #+#+r r r r r r Z #+C P g ,+",
"]./ g f ;+%+C.h n.$ < V.Z.Z.)+)+)+)+)+V.V.V.].E.;+;+,+].O b / $ % H.9 ^ i V.V.V.V.b     T # $ } ^ b 3 M 2 & > S > C #+#+2.e R.%+",
"%+,+,+,+g , C ^.k r k V.Z.Z.)+)+V.V.V.#+~+L v.;+,+;+%+M c 7 $ - A %+_.C } A % G $ h A _ z ;+Q.4 $ ;+;+;+;+;+;+;+;+%+%+/ %+/ ,+,+",
",+%+,+,+%+,+t s W X 8 V.V.V.V.V.t > b ! }.v.;+/   - }.;+;+;+;+;+g ;+R.D #+r r v.K.- ;+;+;+;+;+;+- , D F O # / / ].;+v._ > D D y ",
". ,+,+,+,+,+T $ 6 C i r r r r r p C i #+i T 0 y r ^ #+D w %   % v.;+,+R., @.% F f ;+;+;+;+;+. ^.r r r #+Z #+Z r #+P J Z Z Z #+#+",
",+,+,+,+%+,+a ^ p r C #+#+#+#+r #+Z #+#+#+#+r r r #+r #+r r y y r B T ,+;+;+,+,+/ a.b p i 8 Q r #+r r #+r #+r Z #+#+Z r #+#+r r ",
",+,+,+,+,+,+,+R.- @.P P Z @.r r r r r r #+Z Z Z Z Z #+r Z r i D r % h O * % / R.y #+r #+r p _.i r r C i F 8 h l r Z r ^.y #+C r ",
";+%+,+,+,+,+,+,+,+,+R.. l @.r r r r #+r #+r Z #+r r #+Z r N r y r 4 7 h.@.& k B Z r Z r r r k D D i @+R.,+;+;+,+z R b i p.C k #+",
"%+,+%+,+;+,+,+,+g v.- R.].].$ & i y y r r #+#+#+#+Z r y r r r k r M , a k r r r r #+r C 8 $ ) ;+;+f   A - ) O ) 7 $   k R.: k #+",
"%+,+,+%+,+R.,+R.< > ^.X h S W - $ R.$ ^ 0.y Z #+r #+r r r r r 4 3 f k 2 y r r #+P w O   _.} D 4 *.Z Z #+#+#+Z Z r r #+#+i '.^._ ",
",+%+,+,+,+,+,+R.B p S 8 y r #+r r Z y w % ^ #+r #+r Q.* P C % & a 4 r r '.p z T } % w p 8.`.- _ $ d _ p.#+#+i y #+#+#+y #+y #+#+",
",+,+;+,+,+,+,+%+*.a L T M #+y > O #+r Z 4 r r r Z #+l _ b b % 8 r r *.! ` p @.J Z r #+r 5.G v.,+,+,+,+v.f *.; y i #+#+y Z #+#+#+",
"R.R.R.,+,+,+,+,+;+,+%+,+z W %.) ,+- *.F ..R P < b b '.#+4 r r Z r r r #+r #+r #+#+#+Z Z M # ,+,+R.,+,+,+,+R.$ R k i #+4 #+#+#+#+",
",+a < ,+,+%+,+%+;+/ R.%+,+,+%+,+%+,+h ;+_ #+> b ].,+R.R.h y r r r r #+#+r Z #+r r r #+r 1.;+# G O ;+h i r r Z Z r Z Z C #+k _ X ",
"- ;+- P w %+,+%+].,+,+,+_ $ ;+  %+0.G ,+, y i b : ,+%+;+R.].b i r r r r r r #+Z Z r r T R.;+$ ,+v.8 k #+#+r r k r r #+#+#+#+T ,+",
";+,+R.$ G %+,+%+].,+,+;+;+v.;+g ;+g ;+;+5.- /.,+R.P R.,+G ;+,+%+} M J #+r r Z C k r @.* ;+X A A p Z #+r r #+#+k 4 D w ^.w ) ,+,+",
";+,+;+,+,+,+,+,+,+,+,+%+%+%+,+%+;+%+# W / ,+;+,+].T ;+;+,+;+;+! ^.w v r #+r r y k r r r p r r #+#+r #+Z #+r M s . R.,+;+%+%+].A ",
"%+,+v.z %.7 g h %+,+R.,+%+,+,+R.,+m ^.% k.,+,+,+,+;+%+;+;+,+;+g k.L p r r r r Z Z r r r r r r r r Z #+r r r k ;+].v.;+,+,+;+A D ",
"i ^ C C y p a / ,+,+,+,+,+,+E.,+- / ,+%+;+,+,+,+,+,+%+;+;+;+;+;+;+,+b r r Z r Z r r #+r r r r r #+Z r Z r F G ;+;+,+,+,+/ c ,+W ",
"#+y y y y % ,+,+,+,+,+,+_ w p X y O %+%+,+%+,+,+,+,+%+;+;+;+;+;+;+,+%+/.$   C #+r r r r r r r #+r Z r Z r _ ,+,+;+,+,+,+,+..,+;+",
"y y #+i w / ,+k.E.& '.v.% y #+y #+> p.- ) ,+,+;+,+,+%+%+%+;+;+,+;+,+,+,+,+,+_ , M F M % ; P i #+r Z p & g ;+;+,+,+,+,+,+;+;+,+;+",
"p #+y k w X @.M z g v.].8 y C ..h ,+%+,+,+,+,+;+,+,+,+,+,+%+,+;+;+,+;+;+;+;+;+;+;+;+;+;+;+;+;+: G ].;+,+;+,+%+%+,+,+;+,+%+%+,+;+",
"h b a G h O $ R.,+,+/ > y r y k w % b O ].,+%+,+,+%+].d , ^.X , l A R.;+;+;+,+;+;+,+;+%+%+;+,+,+,+%+,+;+;+;+;+;+%+;+,+,+,+,+;+,+"};
