/* XPM */
static char * seven_xpm[] = {
"21 21 213 2",
"  	c #F1CE8B",
". 	c #F0CD8A",
"+ 	c #EECB88",
"@ 	c #F1CF8B",
"# 	c #E8C485",
"$ 	c #EAC686",
"% 	c #EDCA88",
"& 	c #F0CF8B",
"* 	c #F0CE8B",
"= 	c #EFCB89",
"- 	c #ECC988",
"; 	c #EBC787",
"> 	c #EAC687",
", 	c #EAC787",
"' 	c #ECCA88",
") 	c #EECC8A",
"! 	c #EFCC8A",
"~ 	c #ECC888",
"{ 	c #EFCD8A",
"] 	c #F0CD8B",
"^ 	c #EBC988",
"/ 	c #BD5242",
"( 	c #C66B50",
"_ 	c #D09569",
": 	c #D1966A",
"< 	c #D79E6E",
"[ 	c #DBA372",
"} 	c #DDA672",
"| 	c #D89F6F",
"1 	c #D3996C",
"2 	c #D59B6D",
"3 	c #DBA371",
"4 	c #DFA874",
"5 	c #E3B27A",
"6 	c #DDB87D",
"7 	c #DDB77D",
"8 	c #E3BE82",
"9 	c #E3B17A",
"0 	c #AB001C",
"a 	c #BF5544",
"b 	c #E7C385",
"c 	c #EAC486",
"d 	c #F0CC8A",
"e 	c #D28760",
"f 	c #BF5543",
"g 	c #EFCB88",
"h 	c #EECA89",
"i 	c #EBC786",
"j 	c #ECC786",
"k 	c #E5C083",
"l 	c #BF5443",
"m 	c #CB835E",
"n 	c #E8C384",
"o 	c #F0CB8A",
"p 	c #F0CC89",
"q 	c #BA443B",
"r 	c #D99A6C",
"s 	c #DDA572",
"t 	c #D99F6E",
"u 	c #D89E6E",
"v 	c #DEA672",
"w 	c #B9433A",
"x 	c #CC8660",
"y 	c #E7C183",
"z 	c #E4BE82",
"A 	c #E5BF83",
"B 	c #E2BC81",
"C 	c #E2BC82",
"D 	c #D6976A",
"E 	c #D59166",
"F 	c #E0BB80",
"G 	c #E6C184",
"H 	c #E9C486",
"I 	c #CF845E",
"J 	c #C97657",
"K 	c #EBC687",
"L 	c #E6C183",
"M 	c #E9C586",
"N 	c #E7C284",
"O 	c #E7C184",
"P 	c #DEB87F",
"Q 	c #D6A171",
"R 	c #CB7E5B",
"S 	c #BE5343",
"T 	c #E9BF83",
"U 	c #EFCB8A",
"V 	c #EFCA8A",
"W 	c #D99B6C",
"X 	c #B53231",
"Y 	c #ECC788",
"Z 	c #E8C385",
"` 	c #DFB880",
" .	c #E8C285",
"..	c #EDC988",
"+.	c #E4BC82",
"@.	c #DEB67F",
"#.	c #DAB37D",
"$.	c #DEB77F",
"%.	c #E7B87F",
"&.	c #AF1B27",
"*.	c #D89A6C",
"=.	c #E3BD82",
"-.	c #E7C084",
";.	c #E3BC82",
">.	c #DBB57D",
",.	c #DDB67E",
"'.	c #E0B980",
").	c #E2BB81",
"!.	c #E4BD82",
"~.	c #BA4C3F",
"{.	c #B74039",
"].	c #E0BA80",
"^.	c #DBB47D",
"/.	c #DBB37D",
"(.	c #DCB47D",
"_.	c #DCB57E",
":.	c #E0BA7F",
"<.	c #EAC487",
"[.	c #EFCA89",
"}.	c #E6C084",
"|.	c #EBC587",
"1.	c #EFC98A",
"2.	c #E8C286",
"3.	c #E6BE84",
"4.	c #D59469",
"5.	c #D28B63",
"6.	c #E5BE83",
"7.	c #DDB57E",
"8.	c #E0B97F",
"9.	c #E8C185",
"0.	c #B43131",
"a.	c #AF1A27",
"b.	c #E7C085",
"c.	c #EEC988",
"d.	c #E5BD83",
"e.	c #E1BA80",
"f.	c #EFC888",
"g.	c #EEC889",
"h.	c #EBC486",
"i.	c #E3BC81",
"j.	c #DDB47E",
"k.	c #D9B07C",
"l.	c #DBB27C",
"m.	c #CB8863",
"n.	c #C76C51",
"o.	c #EBC586",
"p.	c #E6C083",
"q.	c #E5BE82",
"r.	c #EDC788",
"s.	c #EEC989",
"t.	c #EEC888",
"u.	c #EBC487",
"v.	c #EAC286",
"w.	c #ECC587",
"x.	c #CB835F",
"y.	c #DAB37C",
"z.	c #DAB17C",
"A.	c #DCB57D",
"B.	c #E6BF84",
"C.	c #E4BE83",
"D.	c #E7BF84",
"E.	c #E5BD82",
"F.	c #EFC989",
"G.	c #EAC386",
"H.	c #AF1826",
"I.	c #D1956A",
"J.	c #DAB27C",
"K.	c #E3BD81",
"L.	c #DEB67E",
"M.	c #E2BA81",
"N.	c #DCB37D",
"O.	c #E1B980",
"P.	c #DEB47E",
"Q.	c #DCB37E",
"R.	c #D49C6F",
"S.	c #E3BA82",
"T.	c #E1BA81",
"U.	c #ECC687",
"V.	c #E8C085",
"W.	c #E0B880",
"X.	c #DDB47D",
"Y.	c #E3BB81",
"Z.	c #DA9F70",
"`.	c #DBB27D",
" +	c #DDB57D",
".+	c #E6BF83",
"++	c #ECC688",
"@+	c #E0B77F",
"#+	c #DBB17D",
"$+	c #DEB57E",
"%+	c #E5BB83",
"&+	c #CF815E",
"*+	c #BD4F42",
"=+	c #E8BF84",
"-+	c #E6BE83",
";+	c #E7BF83",
">+	c #E8C084",
",+	c #E9C286",
"'+	c #DCB37C",
")+	c #DEB57F",
"!+	c #E3BB82",
"~+	c #E6BD84",
"{+	c #EDC688",
"]+	c #E9C185",
"^+	c #E5BD84",
"/+	c #E2B981",
"(+	c #EDC589",
"_+	c #EDC689",
":+	c #EDC789",
"<+	c #ECC588",
"[+	c #EBC388",
"}+	c #EBC387",
"|+	c #EAC387",
"  .     .   +   @   . # $     @   @ @   % ",
"& * * * = - ; % > $ , ' ) . ! ~ { * & * # ",
"* ] * . ^ / ( _ : < [ } | 1 2 3 4 5 * # 6 ",
"7 8 . % 9 0 0 0 0 0 0 0 0 0 0 0 0 a b # # ",
"c . . d e 0 0 0 0 0 0 0 0 0 0 0 0 f g h i ",
"d j k $ l 0 0 0 0 0 0 0 0 0 0 0 0 m n . . ",
"o p d d 0 0 q r s t u s v w 0 0 x y z A B ",
"; h C D 0 0 E k F B G H I 0 0 J K L M ! ! ",
"N O P Q R S T K U V > W 0 0 X C Y K Z H ~ ",
"` P  ...+.@.#.$.Y V %.&.0 0 *.=.-.;.>.,.'.",
"=.K ).c K Z N K  .!.~.0 0 {.].^./.(._.:.(.",
"<.V [.}.|.1.2.3.3.4.0 0 0 5.6.,.^.^.7.8.'.",
"V V Y -.9.9.O 9.<.0.0 0 a.b.V c.d.e.C c Y ",
"|.f.g.h.i.j.k.l.m.0 0 0 n.9. .o.z p.;.!.q.",
"r.s.t.u.v.w.h.r.n.0 0 0 x.y.z.A.p. .|.B.C.",
",.e.D.E.3.-.F.G.H.0 0 0 I.J.y.$.B.K.L.^.:.",
"<.G.M.N.O.P.Q.R.0 0 0 0 w.S.6.i.).,.T.9.|.",
"U.V.W.j.L.X.Y.Z.0 0 0 H.`. +.+o.u.++G.+.!.",
"@+#+Q.$+@.%+u.&+0 0 0 *+=+-+;+>+,+b.9.D.'+",
"W.3.S.)+!+~+B.u.u.B.{+]+b.^++./+S.9.B.L.7.",
"(+_+:+{+u.<+[+]+[+}+|+++D.{+|+d.W.`./.N.W."};
