/* XPM */
static char * six_xpm[] = {
"21 21 216 2",
"  	c #F1CE8B",
". 	c #F0CD8A",
"+ 	c #EECB88",
"@ 	c #F1CF8B",
"# 	c #E8C485",
"$ 	c #EAC686",
"% 	c #EDCA88",
"& 	c #F0CF8B",
"* 	c #F0CE8B",
"= 	c #EFCB89",
"- 	c #ECC988",
"; 	c #EBC787",
"> 	c #EAC687",
", 	c #EAC787",
"' 	c #ECCA88",
") 	c #EECC8A",
"! 	c #EFCC8A",
"~ 	c #ECC888",
"{ 	c #EFCD8A",
"] 	c #F0CD8B",
"^ 	c #EBC988",
"/ 	c #EAC586",
"( 	c #DCB67D",
"_ 	c #DEB87E",
": 	c #E6C284",
"< 	c #DFAD77",
"[ 	c #D08660",
"} 	c #CC815D",
"| 	c #BA4D40",
"1 	c #BB4E40",
"2 	c #CA7858",
"3 	c #DDB87D",
"4 	c #DDB77D",
"5 	c #E3BE82",
"6 	c #E4BB81",
"7 	c #C77959",
"8 	c #B32E30",
"9 	c #AB001C",
"0 	c #BF5544",
"a 	c #E7C385",
"b 	c #EAC486",
"c 	c #F0CC8A",
"d 	c #E3B079",
"e 	c #B53332",
"f 	c #B73E38",
"g 	c #BC5041",
"h 	c #D0865F",
"i 	c #D69267",
"j 	c #EFCB88",
"k 	c #EECA89",
"l 	c #EBC786",
"m 	c #ECC786",
"n 	c #E5C083",
"o 	c #DFA873",
"p 	c #AF1A26",
"q 	c #CA7D5B",
"r 	c #E1B37A",
"s 	c #E6C084",
"t 	c #E1BB80",
"u 	c #DDB67E",
"v 	c #DCB57D",
"w 	c #DEB77E",
"x 	c #E8C384",
"y 	c #F0CB8A",
"z 	c #F0CC89",
"A 	c #E8BA7F",
"B 	c #B01C28",
"C 	c #B01C27",
"D 	c #DDA974",
"E 	c #E7C284",
"F 	c #EECA88",
"G 	c #ECC887",
"H 	c #E7C183",
"I 	c #E4BE82",
"J 	c #E5BF83",
"K 	c #E2BC81",
"L 	c #E2BC82",
"M 	c #C86F52",
"N 	c #CF8F66",
"O 	c #DBA774",
"P 	c #DAA070",
"Q 	c #DBA371",
"R 	c #ECC788",
"S 	c #EBC687",
"T 	c #E6C183",
"U 	c #E9C586",
"V 	c #E7C184",
"W 	c #DEB87F",
"X 	c #DDB27B",
"Y 	c #B43131",
"Z 	c #D18660",
"` 	c #B53232",
" .	c #C76E51",
"..	c #DBAB78",
"+.	c #E8C385",
"@.	c #E9C486",
"#.	c #DFB880",
"$.	c #E8C285",
"%.	c #DDA472",
"&.	c #DCA674",
"*.	c #E3BC82",
"=.	c #DBB57D",
"-.	c #E0B980",
";.	c #E3BD82",
">.	c #E2BB81",
",.	c #CE825E",
"'.	c #AF1A27",
").	c #CB7D5B",
"!.	c #D3986B",
"~.	c #C97B5B",
"{.	c #B01B27",
"].	c #B22B2F",
"^.	c #DCB47D",
"/.	c #DCB57E",
"(.	c #E0BA7F",
"_.	c #EAC487",
":.	c #EFCA8A",
"<.	c #EFCA89",
"[.	c #CC7F5C",
"}.	c #D79B6E",
"|.	c #E8C185",
"1.	c #EDC789",
"2.	c #D99E6F",
"3.	c #CF9369",
"4.	c #DDB57E",
"5.	c #E0B97F",
"6.	c #B42F30",
"7.	c #EBC587",
"8.	c #EFC989",
"9.	c #E6BF84",
"0.	c #C97B5A",
"a.	c #EFC888",
"b.	c #EEC889",
"c.	c #D38C64",
"d.	c #B9483E",
"e.	c #DAB27C",
"f.	c #DCB47C",
"g.	c #DFB97F",
"h.	c #ECC787",
"i.	c #BC4F41",
"j.	c #E4BD82",
"k.	c #E5BE82",
"l.	c #EDC788",
"m.	c #EEC989",
"n.	c #EEC888",
"o.	c #DFAA77",
"p.	c #B53131",
"q.	c #EDC787",
"r.	c #E4BC82",
"s.	c #E1BA81",
"t.	c #DEB77F",
"u.	c #B22B2E",
"v.	c #D18B63",
"w.	c #E4BE83",
"x.	c #E1BA80",
"y.	c #E7BF84",
"z.	c #E5BD82",
"A.	c #BC4E41",
"B.	c #D2956A",
"C.	c #E1B980",
"D.	c #DDB47D",
"E.	c #D1956A",
"F.	c #DCAC77",
"G.	c #DEB67E",
"H.	c #DBB47D",
"I.	c #EAC386",
"J.	c #E2BA81",
"K.	c #DCB37D",
"L.	c #D3976B",
"M.	c #AE1826",
"N.	c #C57558",
"O.	c #CF815E",
"P.	c #C67154",
"Q.	c #ECC687",
"R.	c #E8C085",
"S.	c #E0B880",
"T.	c #DDB47E",
"U.	c #CA805E",
"V.	c #C66B50",
"W.	c #EBC487",
"X.	c #ECC688",
"Y.	c #E0B77F",
"Z.	c #DBB17D",
"`.	c #DCB37E",
" +	c #DEB57E",
".+	c #DEB67F",
"++	c #E5BB83",
"@+	c #C25E4A",
"#+	c #B83F38",
"$+	c #D08962",
"%+	c #E8C084",
"&+	c #E9C286",
"*+	c #E7C085",
"=+	c #DCB37C",
"-+	c #E6BE84",
";+	c #E3BA82",
">+	c #DEB57F",
",+	c #E3BB82",
"'+	c #E6BD84",
")+	c #D79C6E",
"!+	c #DDA272",
"~+	c #DA9E6F",
"{+	c #E3B880",
"]+	c #E5BD84",
"^+	c #E2B981",
"/+	c #EDC589",
"(+	c #EDC689",
"_+	c #EDC688",
":+	c #ECC588",
"<+	c #EBC388",
"[+	c #E9C185",
"}+	c #EBC387",
"|+	c #EAC387",
"1+	c #E5BD83",
"2+	c #DBB27D",
"3+	c #DBB37D",
"  .     .   +   @   . # $     @   @ @   % ",
"& * * * = - ; % > $ , ' ) . ! ~ { * & * # ",
"* ] * . ^ , / ( _ : < [ } | 1 2 * * * # 3 ",
"4 5 . % ] * . 6 7 8 9 9 9 9 9 0 ] * a # # ",
"b . . c c c d e 9 9 9 9 f g h i . . j k l ",
"c m n $ c o 9 9 9 p q r s t u u v w x . . ",
"y z c c A B 9 9 C D E F = G = ~ t H I J K ",
"; k L / M 9 9 9 N K O P Q : R # S T U ! ! ",
"E V W X 9 9 9 Y Z ` 9 9 9 9  ...R S +.@.~ ",
"#.W $.%.9 9 9 9 9 9 9 9 9 9 9 p &.*.=.u -.",
";.S >.,.9 9 9 9 '.).!.~.{.9 9 9 ].^./.(.^.",
"_.:.<.[.9 9 9 9 }.|.1.1.2.9 9 9 9 3.4.5.-.",
":.:.R [.9 9 9 6._.S 7.8.9.6.9 9 9 0.L b R ",
"7.a.b.c.9 9 9 d.e.f.g.K h.i.9 9 9 [.*.j.k.",
"l.m.n.o.9 9 9 p.h.q.r.s.t.u.9 9 9 v.7.9.w.",
"u x.y.z.A.9 9 9 B.C.4.D.E.9 9 9 9 F.G.H.(.",
"_.I.J.K.L.9 9 9 M.N.L.O.{.9 9 9 P.u s.|.7.",
"Q.R.S.T.G.U.9 9 9 9 9 9 9 9 9 V.W.X.I.r.j.",
"Y.Z.`. +.+++o.@+9 9 9 9 9 #+$+%+&+*+|.y.=+",
"S.-+;+>+,+'+9.W.W.)+!+~+{+]+r.^+;+|.9.G.4.",
"/+(+1._+W.:+<+[+<+}+|+X.y._+|+1+S.2+3+K.S."};
