/* XPM */
static char * three_xpm[] = {
"21 21 218 2",
"  	c #F1CE8B",
". 	c #F0CD8A",
"+ 	c #EECB88",
"@ 	c #F1CF8B",
"# 	c #E8C485",
"$ 	c #EAC686",
"% 	c #EDCA88",
"& 	c #F0CF8B",
"* 	c #F0CE8B",
"= 	c #EFCB89",
"- 	c #ECC988",
"; 	c #EBC787",
"> 	c #EAC687",
", 	c #EAC787",
"' 	c #ECCA88",
") 	c #EECC8A",
"! 	c #EFCC8A",
"~ 	c #ECC888",
"{ 	c #EFCD8A",
"] 	c #F0CD8B",
"^ 	c #EBC988",
"/ 	c #EAC586",
"( 	c #D39D6E",
"_ 	c #C77959",
": 	c #BC5041",
"< 	c #BD5242",
"[ 	c #BE5443",
"} 	c #CC815D",
"| 	c #D7A371",
"1 	c #E3BE82",
"2 	c #DDB87D",
"3 	c #DDB77D",
"4 	c #ECC585",
"5 	c #BF5543",
"6 	c #AB001C",
"7 	c #C4634C",
"8 	c #E7C385",
"9 	c #EAC486",
"0 	c #F0CC8A",
"a 	c #ECC385",
"b 	c #BA443B",
"c 	c #EFCB88",
"d 	c #EECA89",
"e 	c #EBC786",
"f 	c #ECC786",
"g 	c #E5C083",
"h 	c #D28760",
"i 	c #B9433A",
"j 	c #DCA874",
"k 	c #E5BE82",
"l 	c #E3BD82",
"m 	c #D69669",
"n 	c #AF1A27",
"o 	c #CC8B63",
"p 	c #DEB77E",
"q 	c #E8C384",
"r 	c #F0CB8A",
"s 	c #F0CC89",
"t 	c #BF5443",
"u 	c #EAC083",
"v 	c #E7C284",
"w 	c #EECA88",
"x 	c #D59166",
"y 	c #C97B5A",
"z 	c #E7C183",
"A 	c #E4BE82",
"B 	c #E5BF83",
"C 	c #E2BC81",
"D 	c #E2BC82",
"E 	c #CC7C5A",
"F 	c #CC7B59",
"G 	c #E0BB80",
"H 	c #E6C184",
"I 	c #E9C486",
"J 	c #D7996B",
"K 	c #D38E65",
"L 	c #E6C183",
"M 	c #E9C586",
"N 	c #E7C184",
"O 	c #DEB87F",
"P 	c #E0BA80",
"Q 	c #EDC989",
"R 	c #EDC888",
"S 	c #EBC687",
"T 	c #EFCB8A",
"U 	c #EFCA8A",
"V 	c #EAC184",
"W 	c #B73E38",
"X 	c #ECC788",
"Y 	c #E8C385",
"Z 	c #DFB880",
"` 	c #E8C285",
" .	c #EDC988",
"..	c #E4BC82",
"+.	c #DEB67F",
"@.	c #DAB37D",
"#.	c #DEB77F",
"$.	c #BF5343",
"%.	c #BE5342",
"&.	c #DCAC78",
"*.	c #E7C084",
"=.	c #E3BC82",
"-.	c #DBB57D",
";.	c #DDB67E",
">.	c #E0B980",
",.	c #E2BB81",
"'.	c #CD805D",
").	c #C57054",
"!.	c #D5A473",
"~.	c #DBB37D",
"{.	c #DCB47D",
"].	c #DCB57E",
"^.	c #E0BA7F",
"/.	c #EAC487",
"(.	c #EFCA89",
"_.	c #E6C084",
":.	c #EBC587",
"<.	c #EFC98A",
"[.	c #E8C286",
"}.	c #E6BE84",
"|.	c #D79B6E",
"1.	c #CB7859",
"2.	c #C9805E",
"3.	c #DBB47D",
"4.	c #DDB57E",
"5.	c #E0B97F",
"6.	c #E4B980",
"7.	c #D99E6F",
"8.	c #E3B97F",
"9.	c #E8C185",
"0.	c #EFC989",
"a.	c #D08963",
"b.	c #DAA976",
"c.	c #EFC888",
"d.	c #EEC889",
"e.	c #E3B37B",
"f.	c #AF1926",
"g.	c #AE1726",
"h.	c #D8AA77",
"i.	c #DAB27C",
"j.	c #DCB47C",
"k.	c #DFB97F",
"l.	c #ECC787",
"m.	c #B84039",
"n.	c #CC7F5C",
"o.	c #E4BD82",
"p.	c #EDC788",
"q.	c #EEC989",
"r.	c #EEC888",
"s.	c #CF825E",
"t.	c #D0845F",
"u.	c #EDC787",
"v.	c #E1BA81",
"w.	c #B8493E",
"x.	c #E6BF84",
"y.	c #E4BE83",
"z.	c #E1BA80",
"A.	c #E7BF84",
"B.	c #CF8761",
"C.	c #B43031",
"D.	c #DFB77F",
"E.	c #E1B980",
"F.	c #DDB47D",
"G.	c #DBAE79",
"H.	c #D9A371",
"I.	c #DEB67E",
"J.	c #EAC386",
"K.	c #E2BA81",
"L.	c #DCB37D",
"M.	c #B73D38",
"N.	c #BC5544",
"O.	c #D5A273",
"P.	c #DB9F70",
"Q.	c #B9423A",
"R.	c #BB4C40",
"S.	c #ECC687",
"T.	c #E8C085",
"U.	c #E0B880",
"V.	c #DDB47E",
"W.	c #D49D6F",
"X.	c #B63B37",
"Y.	c #B94239",
"Z.	c #E7BB82",
"`.	c #ECC688",
" +	c #E0B77F",
".+	c #DBB17D",
"++	c #DCB37E",
"@+	c #DEB57E",
"#+	c #E5BB83",
"$+	c #B9413A",
"%+	c #B83F38",
"&+	c #D08962",
"*+	c #E8C084",
"=+	c #E9C286",
"-+	c #E7C085",
";+	c #DCB37C",
">+	c #E3BA82",
",+	c #DEB57F",
"'+	c #E3BB82",
")+	c #E6BD84",
"!+	c #EBC487",
"~+	c #D79C6E",
"{+	c #DDA272",
"]+	c #DA9E6F",
"^+	c #E3B880",
"/+	c #E5BD84",
"(+	c #E2B981",
"_+	c #EDC589",
":+	c #EDC689",
"<+	c #EDC789",
"[+	c #EDC688",
"}+	c #ECC588",
"|+	c #EBC388",
"1+	c #E9C185",
"2+	c #EBC387",
"3+	c #EAC387",
"4+	c #E5BD83",
"5+	c #DBB27D",
"  .     .   +   @   . # $     @   @ @   % ",
"& * * * = - ; % > $ , ' ) . ! ~ { * & * # ",
"* ] * . ^ , / ( _ : < [ } | 1 ; * * * # 2 ",
"3 1 . % ] 4 5 6 6 6 6 6 6 6 7 4 ] * 8 # # ",
"9 . . 0 a b 6 6 6 6 6 6 6 6 6 b . . c d e ",
"0 f g $ h 6 6 i j k l m n 6 6 6 o p q . . ",
"r s 0 0 t 6 6 u d q v w x 6 6 6 y z A B C ",
"; d D / E t F g G C H I J 6 6 6 K L M ! ! ",
"v N O P A Q R S T U > V b 6 6 W X S Y I ~ ",
"Z O `  ...+.@.#.K $.$.6 6 6 %.&.*.=.-.;.>.",
"l S ,.9 S Y v S '.6 6 6 6 n ).!.~.{.].^.{.",
"/.U (._.:.<.[.}.|.'.1.i 6 6 6 6 2.3.4.5.>.",
"U U X *.6.7.8.9./.S :.0.a.6 6 6 6 b.D 9 X ",
":.c.d.e.f.6 g.h.i.j.k.C l.m.6 6 6 n.=.o.k ",
"p.q.r.s.6 6 6 t.l.u...v.#.w.6 6 6 '.:.x.y.",
";.z.A.B.6 6 6 C.D.E.4.F.G.g.6 6 6 H.I.3.^.",
"/.J.K.L.M.6 6 6 N.O.>.P.Q.6 6 6 R.;.v.9.:.",
"S.T.U.V.W.X.6 6 6 6 6 6 6 6 6 Y.Z.`.J...o.",
" +.+++@++.#+s.$+6 6 6 6 6 %+&+*+=+-+9.A.;+",
"U.}.>+,+'+)+x.!+Z.~+{+]+^+/+..(+>+9.x.I.4.",
"_+:+<+[+!+}+|+1+|+2+3+`.A.[+3+4+U.5+~.L.U."};
