/* XPM */
static char * two_xpm[] = {
"21 21 207 2",
"  	c #F1CE8B",
". 	c #F0CD8A",
"+ 	c #EECB88",
"@ 	c #F1CF8B",
"# 	c #E8C485",
"$ 	c #EAC686",
"% 	c #EDCA88",
"& 	c #F0CF8B",
"* 	c #F0CE8B",
"= 	c #EFCB89",
"- 	c #ECC988",
"; 	c #EBC787",
"> 	c #EAC687",
", 	c #EAC787",
"' 	c #ECCA88",
") 	c #EECC8A",
"! 	c #EFCC8A",
"~ 	c #ECC888",
"{ 	c #EFCD8A",
"] 	c #F0CD8B",
"^ 	c #EBC988",
"/ 	c #EAC586",
"( 	c #D39D6E",
"_ 	c #C77959",
": 	c #BC5041",
"< 	c #BD5242",
"[ 	c #BE5443",
"} 	c #CC815D",
"| 	c #D7A371",
"1 	c #E3BE82",
"2 	c #DDB87D",
"3 	c #DDB77D",
"4 	c #E3B27A",
"5 	c #BF5543",
"6 	c #AB001C",
"7 	c #BF5544",
"8 	c #E8BC80",
"9 	c #E7C385",
"0 	c #EAC486",
"a 	c #F0CC8A",
"b 	c #E3B079",
"c 	c #B01C28",
"d 	c #ECC485",
"e 	c #EFCB88",
"f 	c #EECA89",
"g 	c #EBC786",
"h 	c #ECC786",
"i 	c #E5C083",
"j 	c #B53332",
"k 	c #CF845F",
"l 	c #E0B179",
"m 	c #E5BE82",
"n 	c #E0B57D",
"o 	c #CE825D",
"p 	c #C0624C",
"q 	c #DEB77E",
"r 	c #E8C384",
"s 	c #F0CB8A",
"t 	c #F0CC89",
"u 	c #DB9D6D",
"v 	c #D28760",
"w 	c #EEC988",
"x 	c #E7C284",
"y 	c #EECA88",
"z 	c #D18660",
"A 	c #AF1926",
"B 	c #E7C183",
"C 	c #E4BE82",
"D 	c #E5BF83",
"E 	c #E2BC81",
"F 	c #E2BC82",
"G 	c #CE825E",
"H 	c #EBC284",
"I 	c #E0BB80",
"J 	c #E6C184",
"K 	c #E9C486",
"L 	c #DBA371",
"M 	c #E6C183",
"N 	c #E9C586",
"O 	c #E7C184",
"P 	c #DEB87F",
"Q 	c #C87B5A",
"R 	c #EDC888",
"S 	c #EBC687",
"T 	c #EFCB8A",
"U 	c #EFCA8A",
"V 	c #D59167",
"W 	c #B9433A",
"X 	c #E8C385",
"Y 	c #DFB880",
"Z 	c #E8C285",
"` 	c #E5B77D",
" .	c #D9A372",
"..	c #DEB67F",
"+.	c #DAB37D",
"@.	c #DEB77F",
"#.	c #ECC788",
"$.	c #B32F30",
"%.	c #CC7F5C",
"&.	c #E3BC82",
"*.	c #DBB57D",
"=.	c #DDB67E",
"-.	c #E0B980",
";.	c #E3BD82",
">.	c #E2BB81",
",.	c #E4BD82",
"'.	c #E0BA80",
").	c #C2664E",
"!.	c #B53B37",
"~.	c #DBB37D",
"{.	c #DCB47D",
"].	c #DCB57E",
"^.	c #E0BA7F",
"/.	c #EAC487",
"(.	c #EFCA89",
"_.	c #E6C084",
":.	c #EBC587",
"<.	c #EFC98A",
"[.	c #E8C286",
"}.	c #E6BE84",
"|.	c #E8C185",
"1.	c #C76C52",
"2.	c #B73F38",
"3.	c #DAAE79",
"4.	c #DBB47D",
"5.	c #DDB57E",
"6.	c #E0B97F",
"7.	c #E7C084",
"8.	c #E6BB82",
"9.	c #B9423A",
"0.	c #C87457",
"a.	c #EBC185",
"b.	c #E5BD83",
"c.	c #E1BA80",
"d.	c #EFC888",
"e.	c #EEC889",
"f.	c #EBC486",
"g.	c #E3BC81",
"h.	c #DDB47E",
"i.	c #D9B07C",
"j.	c #D29A6D",
"k.	c #AE1726",
"l.	c #B32E30",
"m.	c #DCA371",
"n.	c #CF825E",
"o.	c #CB7E5B",
"p.	c #D79D6E",
"q.	c #EDC788",
"r.	c #EEC989",
"s.	c #EEC888",
"t.	c #EBC487",
"u.	c #EAC286",
"v.	c #ECC587",
"w.	c #C77155",
"x.	c #DEB27C",
"y.	c #DAB37C",
"z.	c #D7A977",
"A.	c #D59569",
"B.	c #E6BF84",
"C.	c #E4BE83",
"D.	c #E7BF84",
"E.	c #E5BD82",
"F.	c #E2B67F",
"G.	c #C05C48",
"H.	c #BE5846",
"I.	c #C77759",
"J.	c #C77758",
"K.	c #C77859",
"L.	c #C57557",
"M.	c #B8493E",
"N.	c #DCAC77",
"O.	c #DEB67E",
"P.	c #EAC386",
"Q.	c #E2BA81",
"R.	c #D09269",
"S.	c #E1BA81",
"T.	c #ECC687",
"U.	c #E8C085",
"V.	c #E0B880",
"W.	c #BD5042",
"X.	c #ECC688",
"Y.	c #E4BC82",
"Z.	c #E0B77F",
"`.	c #DBB17D",
" +	c #DCB37E",
".+	c #C97557",
"++	c #E7C085",
"@+	c #DCB37C",
"#+	c #E3BA82",
"$+	c #DEB57F",
"%+	c #E3BB82",
"&+	c #E6BD84",
"*+	c #EDC688",
"=+	c #E9C185",
"-+	c #E5BD84",
";+	c #DDAB78",
">+	c #C97A5A",
",+	c #D5986D",
"'+	c #EDC589",
")+	c #EDC689",
"!+	c #EDC789",
"~+	c #ECC588",
"{+	c #EBC388",
"]+	c #EBC387",
"^+	c #EAC387",
"/+	c #DBB27D",
"(+	c #DCB37D",
"  .     .   +   @   . # $     @   @ @   % ",
"& * * * = - ; % > $ , ' ) . ! ~ { * & * # ",
"* ] * . ^ , / ( _ : < [ } | 1 ; * * * # 2 ",
"3 1 . % ] 4 5 6 6 6 6 6 6 6 7 8 ] * 9 # # ",
"0 . . a b c 6 6 6 6 6 6 6 6 6 c d . e f g ",
"a h i $ j 6 6 k l m n o 6 6 6 6 p q r . . ",
"s t a u 6 6 v w f r x y z 6 6 6 A B C D E ",
"; f F G 6 6 H i I E J K L 6 6 6 6 M N ! ! ",
"x O P Q 6 6 R S T U > f V 6 6 6 W S X K ~ ",
"Y P Z `  ...+.@.#.U U X $.6 6 6 %.&.*.=.-.",
";.S >.0 S X x S Z ,.'.).6 6 6 !.~.{.].^.{.",
"/.U (._.:.<.[.}.}.|.1.6 6 6 2.3.4.4.5.6.-.",
"U U #.7.|.|.O |.8.9.6 6 6 0.a.w b.c.F 0 #.",
":.d.e.f.g.h.i.j.k.6 6 l.m.|.Z n.o.p.&.,.m ",
"q.r.s.t.u.v.n.6 6 6 w.x.@.y.z.6 6 A.:.B.C.",
"=.c.D.E.F.G.6 6 6 H.I.J.K.L.M.6 6 N.O.4.^.",
"/.P.Q.R.A 6 6 6 6 6 6 6 6 6 6 6 6 =.S.|.:.",
"T.U.V.I.6 6 6 6 6 6 6 6 6 6 6 6 W.X.P.Y.,.",
"Z.`. +I.6 6 6 6 6 6 6 6 6 6 6 6 .+++|.D.@+",
"V.}.#+$+%+&+B.t.t.B.*+=+++-+;+>+,+|.B.O.5.",
"'+)+!+*+t.~+{+=+{+]+^+X.D.*+^+b.V./+~.(+V."};
