/* XPM */
static char * 2_xpm[] = {
"64 64 465 2",
"  	c #F1CE8B",
". 	c #F0CD8A",
"+ 	c #EECB88",
"@ 	c #F1CF8B",
"# 	c #E8C485",
"$ 	c #EAC686",
"% 	c #EDCA88",
"& 	c #DFB97E",
"* 	c #E1BC80",
"= 	c #E5C182",
"- 	c #DFB87E",
"; 	c #E4BF82",
"> 	c #E3BE82",
", 	c #E2BD81",
"' 	c #E0BA7F",
") 	c #F1CD8A",
"! 	c #F0CE8A",
"~ 	c #E9C486",
"{ 	c #EDC988",
"] 	c #E9C485",
"^ 	c #E9C686",
"/ 	c #EFCC89",
"( 	c #EBC786",
"_ 	c #E3BE81",
": 	c #DFB97F",
"< 	c #E5C082",
"[ 	c #E8C484",
"} 	c #E5C083",
"| 	c #EECB89",
"1 	c #EDC888",
"2 	c #E1BB80",
"3 	c #DEB87E",
"4 	c #DDB67D",
"5 	c #DDB77D",
"6 	c #E0BB7F",
"7 	c #F0CF8B",
"8 	c #F0CE8B",
"9 	c #EFCB89",
"0 	c #ECC988",
"a 	c #EBC787",
"b 	c #EAC687",
"c 	c #EAC787",
"d 	c #ECCA88",
"e 	c #EECC8A",
"f 	c #EFCC8A",
"g 	c #ECC888",
"h 	c #EFCD8A",
"i 	c #DDB87D",
"j 	c #DCB77D",
"k 	c #DCB67D",
"l 	c #DEB97E",
"m 	c #EDCA89",
"n 	c #F0CD8B",
"o 	c #EDC989",
"p 	c #E4C082",
"q 	c #E0BA80",
"r 	c #E1BC81",
"s 	c #E6C183",
"t 	c #DFB87F",
"u 	c #DDB77E",
"v 	c #E2BD82",
"w 	c #E1BD81",
"x 	c #E5C284",
"y 	c #E4C083",
"z 	c #EBC888",
"A 	c #EECA89",
"B 	c #EBC988",
"C 	c #EAC586",
"D 	c #E6C284",
"E 	c #E7C385",
"F 	c #DBB57D",
"G 	c #E9C586",
"H 	c #E5C183",
"I 	c #E0BB80",
"J 	c #DFBA7F",
"K 	c #DBB47C",
"L 	c #DDB67E",
"M 	c #E7C485",
"N 	c #E8C486",
"O 	c #DEB87F",
"P 	c #E4BE82",
"Q 	c #EAC587",
"R 	c #EBC887",
"S 	c #E6C285",
"T 	c #E6C384",
"U 	c #E1BB81",
"V 	c #DCB57D",
"W 	c #E5BF83",
"X 	c #E4BF83",
"Y 	c #E7C384",
"Z 	c #EAC486",
"` 	c #F0CC8A",
" .	c #ECC887",
"..	c #E7C284",
"+.	c #EECA88",
"@.	c #EFCB88",
"#.	c #E6C182",
"$.	c #ECC987",
"%.	c #EAC585",
"&.	c #E8C384",
"*.	c #E8C385",
"=.	c #EBC686",
"-.	c #DCB47D",
";.	c #DBB47D",
">.	c #DCB57E",
",.	c #ECC786",
"'.	c #E5BE82",
").	c #E3BD82",
"!.	c #E6C084",
"~.	c #DEB77E",
"{.	c #E7C283",
"].	c #E3BD81",
"^.	c #E6C283",
"/.	c #E7C184",
"(.	c #E5BF82",
"_.	c #F0CB8A",
":.	c #F0CC89",
"<.	c #EEC988",
"[.	c #E7C183",
"}.	c #E2BC81",
"|.	c #E0B97F",
"1.	c #DBB37D",
"2.	c #ECC787",
"3.	c #E8C284",
"4.	c #E2BC82",
"5.	c #E6C184",
"6.	c #ECC788",
"7.	c #EBC687",
"8.	c #EFCB8A",
"9.	c #E9C585",
"0.	c #E3BF82",
"a.	c #E7C285",
"b.	c #DAB47D",
"c.	c #E0B980",
"d.	c #E2BC80",
"e.	c #EFCA8A",
"f.	c #E8C285",
"g.	c #E9C385",
"h.	c #E6C083",
"i.	c #E4BD82",
"j.	c #E4BE83",
"k.	c #DFB880",
"l.	c #E4BC82",
"m.	c #DEB67F",
"n.	c #DAB37D",
"o.	c #DEB77F",
"p.	c #E5C084",
"q.	c #E7C084",
"r.	c #E3BC82",
"s.	c #EBC788",
"t.	c #DFBA80",
"u.	c #E2BB81",
"v.	c #E9C386",
"w.	c #E5BF84",
"x.	c #E2BA80",
"y.	c #DCB47E",
"z.	c #DAB37C",
"A.	c #E2BB82",
"B.	c #E6BF83",
"C.	c #ECC687",
"D.	c #EDC889",
"E.	c #EBC587",
"F.	c #E9C286",
"G.	c #E4BD83",
"H.	c #E1BA81",
"I.	c #EAC487",
"J.	c #EFCA89",
"K.	c #EFC98A",
"L.	c #E8C286",
"M.	c #E6BE84",
"N.	c #E8C185",
"O.	c #EDC789",
"P.	c #E9C285",
"Q.	c #E5BE83",
"R.	c #DDB57E",
"S.	c #EEC989",
"T.	c #EDC788",
"U.	c #DFB77F",
"V.	c #DAB27D",
"W.	c #E1B980",
"X.	c #E3BB81",
"Y.	c #E0B87F",
"Z.	c #EEC889",
"`.	c #ECC688",
" +	c #E4BC83",
".+	c #E6BF84",
"++	c #E7C185",
"@+	c #E1B981",
"#+	c #DEB67E",
"$+	c #DCB37E",
"%+	c #E1BA80",
"&+	c #EFC989",
"*+	c #E7C085",
"=+	c #E5BD83",
"-+	c #EBC487",
";+	c #EBC486",
">+	c #EBC688",
",+	c #DBB27D",
"'+	c #E3BC81",
")+	c #EFC888",
"!+	c #DDB47E",
"~+	c #D9B07C",
"{+	c #DBB27C",
"]+	c #DAB27C",
"^+	c #DCB47C",
"/+	c #EBC586",
"(+	c #EFC988",
"_+	c #EDC887",
":+	c #EAC386",
"<+	c #DEB57E",
"[+	c #DCB37D",
"}+	c #EEC888",
"|+	c #EDC687",
"1+	c #E8C184",
"2+	c #EDC787",
"3+	c #EAC286",
"4+	c #ECC587",
"5+	c #DAB17C",
"6+	c #E2BB80",
"7+	c #DBB37C",
"8+	c #E7BF84",
"9+	c #E5BD82",
"0+	c #DDB47D",
"a+	c #EDC688",
"b+	c #EEC788",
"c+	c #EFC889",
"d+	c #DAB07C",
"e+	c #E2B980",
"f+	c #E2BA81",
"g+	c #DEB47E",
"h+	c #EBC386",
"i+	c #E3BA82",
"j+	c #D9B17C",
"k+	c #DFB77E",
"l+	c #E7BF83",
"m+	c #E8C085",
"n+	c #EDC588",
"o+	c #E3BB82",
"p+	c #E6BD83",
"q+	c #E0B880",
"r+	c #E8BE85",
"s+	c #DDB57D",
"t+	c #E6BE83",
"u+	c #EAC385",
"v+	c #EEC789",
"w+	c #E1B880",
"x+	c #E3BA81",
"y+	c #DFB67F",
"z+	c #E0B77F",
"A+	c #DBB17D",
"B+	c #E5BB83",
"C+	c #EBC387",
"D+	c #EEC689",
"E+	c #EAC186",
"F+	c #E8BF84",
"G+	c #E8C084",
"H+	c #DCB37C",
"I+	c #E7BE84",
"J+	c #ECC487",
"K+	c #E4BB82",
"L+	c #EBC287",
"M+	c #D9AF7C",
"N+	c #DCB27D",
"O+	c #E0B780",
"P+	c #DEB57F",
"Q+	c #E6BD84",
"R+	c #E9C185",
"S+	c #E5BD84",
"T+	c #E2B981",
"U+	c #ECC488",
"V+	c #EAC387",
"W+	c #E5BC82",
"X+	c #EAC287",
"Y+	c #E9C186",
"Z+	c #DFB780",
"`+	c #EDC589",
" @	c #EDC689",
".@	c #ECC588",
"+@	c #EBC388",
"@@	c #E7BF85",
"#@	c #E5BC83",
"$@	c #E2BA82",
"%@	c #DDB37E",
"&@	c #EBC488",
"*@	c #DFB680",
"=@	c #E4BB83",
"-@	c #E8C086",
";@	c #E1B881",
">@	c #E8BF85",
",@	c #E1B780",
"'@	c #DAAF7C",
")@	c #EAC285",
"!@	c #EAC185",
"~@	c #E0B67F",
"{@	c #EBC286",
"]@	c #DCB17D",
"^@	c #EEC688",
"/@	c #EDC487",
"(@	c #E3B981",
"_@	c #EDC587",
":@	c #E2B881",
"<@	c #DAAF7B",
"[@	c #DBB17C",
"}@	c #DFB67E",
"|@	c #ECC387",
"1@	c #ECC386",
"2@	c #E9BF85",
"3@	c #E6BC83",
"4@	c #E9C085",
"5@	c #EDC488",
"6@	c #EEC588",
"7@	c #E7BD84",
"8@	c #DDB37D",
"9@	c #E4BA82",
"0@	c #D9AE7B",
"a@	c #E0B680",
"b@	c #E8BE84",
"c@	c #EDC387",
"d@	c #E7BE83",
"e@	c #DDB27D",
"f@	c #E2B880",
"g@	c #E6BC82",
"h@	c #DAB07B",
"i@	c #DFB57E",
"j@	c #DCB07D",
"k@	c #DAAE7B",
"l@	c #DCB17C",
"m@	c #DFB57F",
"n@	c #E0B57F",
"o@	c #DEB37E",
"p@	c #DEB27E",
"q@	c #DFB47F",
"r@	c #DDB27E",
"s@	c #E5BB82",
"t@	c #E2B780",
"u@	c #E4B982",
"v@	c #EAC086",
"w@	c #EBC186",
"x@	c #EEC488",
"y@	c #EDC388",
"z@	c #E7BD83",
"A@	c #E3B881",
"B@	c #DBAF7C",
"C@	c #ECC287",
"D@	c #EAC085",
"E@	c #E4BA83",
"F@	c #E9C086",
"G@	c #ECC388",
"H@	c #DEB47F",
"I@	c #EAC187",
"J@	c #DBB07D",
"K@	c #EBC187",
"L@	c #ECC288",
"M@	c #E9BF86",
"N@	c #E9BE86",
"O@	c #DEB37F",
"P@	c #E1B681",
"Q@	c #D8AC7B",
"R@	c #E3B982",
"S@	c #ECC188",
"T@	c #E1B781",
"U@	c #E0B580",
"V@	c #E5BA83",
"W@	c #DFB580",
"X@	c #E6BC84",
"Y@	c #DEB27F",
"Z@	c #E2B781",
"`@	c #E5BB84",
" #	c #E2B882",
".#	c #DBB07C",
"+#	c #E5B984",
"@#	c #E9BE85",
"##	c #E1B680",
"$#	c #DCB07E",
"%#	c #D9AD7B",
"&#	c #DAAE7C",
"*#	c #E2B681",
"=#	c #E8BD85",
"-#	c #DFB37E",
";#	c #E7BC84",
">#	c #EBC087",
",#	c #E6BB84",
"'#	c #ECC187",
")#	c #DDB17E",
"!#	c #DFB37F",
"~#	c #EABE86",
"{#	c #E7BC85",
"]#	c #E1B580",
"^#	c #DBAE7C",
"/#	c #DDB17D",
"(#	c #E3B882",
"_#	c #E8BE83",
":#	c #E0B47F",
"<#	c #E8BD84",
"[#	c #EBC086",
"}#	c #DFB47E",
"|#	c #DCB07C",
"1#	c #E6BB82",
"2#	c #EBBF87",
"3#	c #EABF86",
"4#	c #E3B681",
"5#	c #E5B983",
"6#	c #DFB480",
"7#	c #E5BA82",
"8#	c #D9AD7C",
"9#	c #D9AE7C",
"0#	c #E6BB83",
"a#	c #E4B882",
"b#	c #E6BA83",
"c#	c #D8AD7B",
"d#	c #EBBE87",
"e#	c #E7BB83",
"f#	c #DFB27F",
"g#	c #E1B581",
"h#	c #DEB17E",
"i#	c #E3B781",
"j#	c #D9AC7C",
"k#	c #DAAE7D",
"l#	c #E0B480",
"m#	c #E7BB84",
"n#	c #DAAD7C",
"o#	c #E2B680",
"p#	c #DFB380",
"q#	c #D7AA7B",
"r#	c #D8AB7B",
"s#	c #D9AC7B",
"t#	c #DBAF7D",
"u#	c #E9BD85",
"v#	c #E1B480",
"w#	c #EABF85",
"x#	c #DCB17E",
"y#	c #DDB17F",
"z#	c #E4B983",
"A#	c #E5B982",
"B#	c #DCAF7E",
"C#	c #DDB07E",
"D#	c #DCAF7D",
"E#	c #E3B782",
"F#	c #E8BC85",
"G#	c #E6BA84",
"H#	c #E9BD86",
"I#	c #EBBF86",
"J#	c #E7BA84",
"K#	c #E8BC84",
"L#	c #E5B882",
"M#	c #E2B580",
"N#	c #DBAE7D",
"O#	c #E4B782",
"P#	c #E7BC83",
"Q#	c #E3B682",
"R#	c #ECC087",
"S#	c #E0B37F",
"T#	c #E4B881",
"U#	c #D7AB7B",
"V#	c #DEB17F",
"W#	c #E8BB84",
"X#	c #EABD86",
"Y#	c #EABE85",
"Z#	c #E2B581",
"`#	c #E5B883",
" $	c #E6B983",
".$	c #E9BC86",
"+$	c #EBBE86",
"@$	c #DFB280",
"#$	c #E4B981",
"  .     .   +   @   . # $     @   @ @   % & * = - & ; > , ' #   )   ! % ~ % { ] ^ / ( _ : : * < $ ] [ ! @ { } | 1 2 : 3 4 5 5 6 ",
"7 8 8 8 9 0 a % b $ c d e . f g h 8 7 8 # i j j i k l m n h o p q r s ^ t k k k j u 2 v 6 j r w x y ^ 8 h z m m | A A a ^ ^ h 8 ",
"8 n 8 . B c C k 3 D z | E r > a 8 8 8 # i k u j F k j u } G m b o 0 0 u k , H * F I * r J k k K ; _ ; r 3 L u > , } k r } H m M ",
"5 > . % n 8 . N O P Q , | | 8 8 n 8 E # # 2 j u k u j 2 D R > I S b h g # T U u u q , l V k 2 E a > W X k , i 6 _ g D Y z D m f ",
"Z . . ` ` ` ` `  ...P 5 * [ +.` . . @.A ( { 9 +./ $ #.< Y ` $.%.} Y } s &.*.&.=.] | * V V J 2 : k -.L V ;.>.;.k k t / . A 9 $ 2 ",
"` ,.} $ ` . . g ..'.).] !.2 L L V ~.&.. . / @.W {.] ..{ P =.. . / | . ` 9 1 P s _ ].V ~.D ^.+.` 1 /.; * : U > (.s *.` . . ! ) A ",
"_.:.` ` ` ` ` <.A &...+.9  .9 g 2 [.P W }._ 3 2 ..9 ` _.. $ ].|.+.` ` { 4 k V 1.5 -.L V V !.+.C 9 ; 3 5 t 2.1 ..3.{ 9 . . ` . ` ",
"a A 4.C f f 9 } I }.5.~ a D 6.# 7.s G f f +.0 a f f f 8.1 r ~ 8.| , } 9.# 0.}.> 5.a.~.b.F : !.Q b $ r 2 , ).c.O d.5.~ J *.f 8. .",
"../.O q P o 1 7.8.e.b A 8.8.{ 4.6.7.*.~ g ~ # e.f 1 8.1 C f.g.} } ..P U s h.t !.}.4.O ;.V q 4.5.W ).a e.e.8.8.*.*./.3 i.).f.f.j.",
"k.O f.{ l.m.n.o.6.e.e.*.p.~ { ).q.r.F L c.t } 1 , W > } j.u L F n.;.i.1 g Z V F c.5...s.8.8.{ h.v t.q 2 u.i.Z v.f.W w.x.y.F ;.z.",
").7.u.Z 7.*...7.f.i.q A.~ w.q ;.1.-.>.' -.L P ' 5.P u B.*.g.1 C.Q D.8.E.o F.G.Z A g 8.1 C Z e.A e.7.2.a.).H.h.u.o.O r.: *.6.7.v.",
"I.e.J.!.E.K.L.M.M.N.O.O.N.P.Q.L ;.;.R.|.c.).a.S.e.T.7.v.Q.U.V.W.X.t t Y.k.W.Z v.Z.E.`. +R.L i.1 .+Z.O.++H.H.@+#+$+7.1 S._.f.%+Q.",
"e.e.6.q.N.N./.N.I.7.E.&+.+*+e.<.=+%+4.Z 6.P.f.1 &+1 D.&+7.N.E.-+;+>+Z.1 v.v.E.C S.S.e.I.v.g.r.Y.E.E.Z.8.e..+,+>.m.'+q.N.D.C D.q.",
"E.)+Z.;+'+!+~+{+]+^+: }.2.N.f./+P h.r.i.'.3.!.(+_+W {+W.W.Q.u.'./+:+P <+[+U.N.}+Z.1 /.-+|+1+P.2+/.R.%+B.X.T.'+c.1.]+,+-.L }+i.!+",
"T.S.}+-+3+4+;+T.2.2+l.H.o.z.5+V h.f.E..+j.P.1+T.&+g '+t 6+7.T.~ }+7.C.-+C.!.W q.P.;+E.6.C.E.|.~.%+u.i.i.X.%+-.7+#+#+c.m.Y.U.Z 6.",
"L %+8+9+M.q.&+:+U.W.R.0+#+]+z.o..+].#+;.' |.C.&+a+}.u.U.U.g.q.f.Q.%+L 1.L P.b+c+Z.Z.&+}+Z.4+:+Q.q.u.[+d+7+-.5+U.e+i.N.E.}+T.&+u.",
"I.:+f+[+W.g+$+<+7+,+c.h+4+i+Q.'+u.L H.N.E.Z.Z.c+}+P.h.o.-.]+5+]+;.j+j+k+@+g.l+m+1+4+C.n+o+#+p+W.[+!+m.9+ +[+y.W.c.~.i..+-+a+c+E.",
"C.m+q+!+#+0+X.:+4+r+f+U.,+s+B./+-+`.:+l.i.=+/.t+u+v+a+1+W.l+w+U.z.-.H.q.r.R.f+x+|+v+&+Z.v+:+p+W.t+N.-.y+t #+x+~.u.i.B.P.P.f.M.7+",
"z+A+$+<+m.B+-+C+D+n+-+E+F+t+l+G+F.*+N.8+H+R.R.f+Q.4+;+h+-+I+w+:+3+J+3+G+K+q+q.L+v+n+D+a+=+@+R.d+M+d+[+g+N+,+{+<+y+[+[+<+,+-.O+l.",
"q+M.i+P+o+Q+.+-+-+.+a+R+*+S+l.T+i+N..+#+R.<+l.p+N.3+U+P.v.&+Z.V+R+W+f+M.E.K+8+l.X+v+E+Y+M.l.r.z+w+i+K+x.l.@+@+q+Z+f+A+,+N+<+P.Z ",
"`+ @O.a+-+.@+@R++@C+V+`.8+a+V+=+q+,+1.[+q+c.m+-+v+Z.v+Z.v+O.v+.@F.-+T.Y+@+P+d+A+P+T+V+V+ @F..@@@ +#@Q+O+$@O+O+%@w+y+%@=+*+a+a+&@",
"D+ @v+`+Y+x+o+Q+v+n+Q+y+*@i+F.C+Q.o+y+y+=@f+-@#@X+Z.a+3+v+v+L+D+U+f+@+%@d+f+;@ +$@l.I+8+m+>@o+ +y+w+d+ +,+q+,@O+d+'@d+u.T+m+.@.+",
")@!@w+~@0+%@K+{@{@I+]@y+z+w+!@^@/@h+;+e+<+d+g+w+(@I+^@^@|+!@R+#@K+P.h+^@_@/@q.:@<@d+d+5+5+<@[@d+P+}@z+<+d+0+z+e+G+h+|@|+:+4+1@_@",
"2@J+p+3@4@R+|@5@6@7@F+,@I+J+6@6@W+>@W+p+8@9@4+^@3+{@>@w+8@,@7+x+W+h+n+6@F+W+y+8@8@N+%@[@d+d+d+N+<+[@0@!+z+F+6@5@_@6@n+4@W+R+9@R+",
"[+<@N+g+[@N+N+,@a@(@x+9@(@i+F+b@c@d@w+N+p+;+x+w+[+e@~@8@f@g@F+J+6@3+x+d@4@4@J+3+x+h@<@d+N+g+0+!+9+x+t+t+I+W+>@^@/@^@/@i@:@4+R+^@",
"j@]@k@l@i@j@]@N+m@,@n@o@(@p@q@r@y+q@K+s@:@t@I+/@4@w+u@2@v@w@x@c@6@/@|@3@v@L+4@E+y@/@z@u@K+u@B+A@t@~@[@B@g+]@:@v@v@6@C@|@D@W+~@h+",
"E@T+m@K+K+@@Q+n+5@F@U+{@L+U+5@v@K+P+B+N.=+{@I+C+J+J+|@L+3+G@5@U+C@|@5@Q+,@N+m@H@K+>@I@r@0@N+J@'@<@'@'@m.N+0@0@]@i+ +F.@@F+R+R+f.",
"9@|@G@E+|@5@G@G@G@G@K@r+L@G@5@M@F@L+L+U+U+5@4@F@C@|@C@I+#@L@G@G@G@L+|@N@O@]@A@P@#@K@C@7@E+q@d+B@<@Q@'@%@'@<@0@%@K+5@5@5@K@Q+x+,@",
"%@0@R@B+5@5@5@G@G@S@L@>@T@U@R@F@4@~@a@%@g+m@p+X+7@V@R@>@v@E+G@F@p+E+C+>@R@:@A+Q@'@W@X@:@B+B+E@:@n@Y@a@Z@d+N+:@`@|@n+5@5@(@ #<+.#",
"+#w@@#3@#@u@P@U@o@r@W@:@a@.#N+3@C@X@:@##R@r+V@N+a@d+J@m@R@u@X@r+C@>@y@E+u@q@q@g+$#%#0@0@0@d+U@(@r+o@q@3@Q+,@B+K@G@B+q@H@9@~@(@i+",
"]@&#%#d+]@0@&#*#]@.#d+'@%#%#%#j@Z@9@9@n@9@=#V@M@-#,@;#v@;#>#,#'#C@K@L@L@K@K@>#M@q@)#J@%@!#A@V@~#v@s@H@%@B@E@Z@L+{#K@L@S@'#r+B+]#",
"'@0@^#0@[@.#.#B@.#/#(#e@n@p@g+!#j@:@_#(@(@A@f@:#,@2@<#[#c@C@w@'#9@]#]#B@q@n@:@z@@#3@<#C@z@@#}#'@%#|#/#n@1#s@q@D@b@7@m@o@.#'@.#d+",
"q@o@Z@;#a@A@2#M@3#M@K@A@V@C@>#w@K@K@E+w@K@|@K@|@r+3#C@K@>#>#2@4#5#u@&#6#U@##!#O@q@7#Z@u@,#u@q@u@=#@#3#)#'@B@M+d+'@d+M+8#d+9#'@9#",
"K@M@7@K@2@[#K@K@3#7#w@3#C@=#C@3#K@R@7@2@r+3#w@C@@#r+K@]#v@@#0#a#A@3#a#@#C@r+P@7@p@B+;#<#b#K@C@C@C@3@O@c#0@M+9#9#9#M+9#e@o@U@Z@m@",
">#2#>#'#d#~#d#e#5#u@b#A@f#*#g#n@h#,#(#*#@#'#i#u@'@/#B@Q@r@!#8#j#k#r@l#=#'#;#m#m#a#N@l###n#m#o#3#'#v@;#a#r@r@U@A@|#r+(@'#>#>#2#>#",
"8###5#*#p#j#Q@%#Q@g#8#q#8#r#r#Q@8#%#9#%#s#t#j@&#Q@Q@&#r#$#j#Q@Q@Q@r#q#Q@:#m#>#'#2#>#'#~#u#'#>#0#3#0#'@q@v#w#~#w@@#3#2#'#'#>#>#'#",
"8#p@&#%#Q@8#Q@p@:#x#Q@r#r#8#Q@Q@&#9#r#Q@Q@8#%#Q@Q@'@)#Y@&#$#]#&#r#y#$#A@$#Q@]@z#*#5#'#C@'#'#'#!#x#j@Q@8#Q@A#l#r@]#*#@#'#'#'#=#A@",
"Z@g#)#]@u@t#V@!#!#Y@s#&#B#f#Y@)#t#t#&#Q@8#8#t#B#C#D#E#F#G#~#2#'#H#~#>#'#I#]#8#^#P@'#'#'#C@I#3#t#t#t#8#%#]@Q@J@&#]#>#>#'#0#5#'@9#",
"'#>#m#w@>#>#m#0#J#=#5#(#*#m#E#m#K#X@K#[#<#3#3#'#>#2#d#>#~#b#u#L#*#)#u#C@2#>#a#&#%#&#p@l#7@b#!#Q@Q@s#8#B@Q@8#t#a#'#C@[#!#9#&#9#8#",
"=#<#<#a#M#!#Q@Q@r#Q@8#r#Q@Q@8#Q@Q@&#g#H@9#N#.#O@P@l#L#n@9#8#r#Q@r#&#Y@P@j@Y@5#G#]#&#%#j@Q@|#r@&#q@U@!#%#9#t#a#C@'#3#!#8#&#&#Q@9#",
"0#3#>#>#O#7#!#)#$#P#$#E#0#D#r#j#r@8#8#)#t#J@&#9#Q@8#8#Q@8#r#r#r#8#r#Q@8#r#8#8#r#p@m#5#;#u@>#@#K@C@;#O@##3@3#'#N@>#]#b#@#3#K@P@:#",
"r#8#*#a#~#a#p@A#N#&#Q@s#8#Q@&#l#*#]#e#v@>#'#'#u#i#D#Q@Q@8#r#r#Q@Q@%#Q@Q@r#Q#@#u#u@=#2#>#@#|@>#'#'#[#,#[#5#j@8#%#)#@#2#'#2@;#%#'@",
"n#8#8#Q@Q@r@Y@>#5#s#%#Q@r#8#/#Q@9@B@u@r+=#3#'#N@>#d#~#F#a#C#%#8#r#Q@Q@Q@)#N@2#'#3#>#>#2#m#'#>#R#C@3#l#&#r#Q@Q@9#9#t#5#>#u@&#Q@8#",
"C#Q@%#9#Q@Q@8#A@[#5#r@t#)#Z@S#:#2@i#3#K@'#>#'#>#>#'#>#>#2#d#>#>#u#O#;#~#2#C@'#;#R@@#m#>#'#'#2#>#'#$#r#Q@%#9#Q@%#8#%#%#r@j@%#9#%#",
"*#8#8#8#%#q#8#9#i#K#m###@#;#7#i#>#>#'#2#'#2#>#2#>#>#>#'#>#>#K#*#b#3#>#>#>#2#'#'#>#[#'#>#>#>#>#C@>#u#%#9#Q@%#8#8#Q@8#Q@8#Q@)#r#8#",
"T#8#Q@Q@Q@Q@8#8#Q@$#^#E#t#j@8#!#'#2#>#>#'#'#'#2#>#'#>#'#(#P@9#8#r#Q@&#H#I#>#d#>#>#>#>#'#>#'#>#'#>#>#]#9#Q@8#8#8#Q@&#Q@U#r#8#Q@8#",
">#~#V#Q@U#8#8#Q@8#k#%#q@a#D#u#2#2#'#>#I#5#>#>#'#2#>#<#E#8#Q@8#Q@j@b#u@2#2#>#'#>#>#'#2#'#>#[#U@l#a#m#=#5#K#p#j@%#9#Q@8#Q@Q@r#'@8#",
"u#,@j@!#&#Q@9#P@N#)#=#u#N@b#>#'#>#>#>#]#N@2#2#>#~#p@D#C#r#D#G#5#3#d#'#'#>#>#>#R#'#>#>#'#C@3#q@Q@Q@r#Q@t#V#b#>#5#q@Q@8#8#8#Q@8#9#",
"F#=#'@O@t#Q@8#f#b#!#m#2#>#>#'#>#C@>#'#'#'#'#>#a#W#3#'#X#G#[#'#b#[#'#>#I#>#~#*#7@'#>#>#'#;#2#'#Y#2#l#Q@%#Q@s#Y@)#&#r@)#Q@Q@9#r@U@",
">#R#Z@r#r#p@V@3#N@v#3#'#>#'#C@C@'#'#'#'#'#m#a#n#m#>#3#d#>#>#2#'#'#2#'#E#D#<#N@>#'#>#'#I#b#~#@#;#>#]#%#r#Q@%#8#9#&#8#&#Q@8#U@B+>#",
"2@>#>#J#Z#`#>#2#A@'#>#>#'#2#'#2#>#C@'#>#B@r#p@&#>#l#j#3#>#>#2#[#m#b#j@8#p@b#[###'#@#[#'#>#>#d#>#I#3#V@)#&#r#Q@9#8#%#Q@&#a#'#2#~#",
"P@<#'#>#>#'#2#~#>#2#>#R#'#'#'#>#C@'#G#o@8#8#Q@n#Y@##[#'#'# $l#j@8#9#Q@g#'#>#a#*#>#v@'#'#'#>#'#2#C@>#Z@V@~#S#&#j@U@i#u#R#>#>#[#$#",
"Z@l#Z@Z@P@!#!#8#r@`#Y@*#m#Z@l#0#A#=#&#8#B+a#K#'#3#'#2#u#g#9#8#r#h#q#Q@Q@5#2#I#>#I#>#K@|@>#C#3#,#P@m#R#N#b#>#2#'#d#~#N@Y@a#m#K@u@",
"Q@Q@9#$#6#)#8#t#v#a#u@m#r+*#i#l#7#u@J#3#3#@#>#'#>#b#U@'@8#%#q#Q@Q@)#l#3@I#'#'#2#'#'#R#'#>#K#5#'@8#r#8#Q@t#A#A@~#>#'#P@J@)#g#u#K#",
"u@u@9@3#2#2#~#2#2#I#>#K@@#3#~#>#N@>#R#>#d#'#>#'#>#E#O@t#&#)#h#Y@K#2#d#>#'#C@'#'#>#R#'#>#'#V@5#{#!#t#8#Q@Q@Q@Q@9#9#Y@V@N@'#>#'#3#",
"C@'#[#n#'@.$K@m#E#V#q@Y@9#&#P@'#r@P@>#'#>#2#>#u#!#)#*#A#b#+$>#>#>#>#>#'#3#>#'#>#'#>#2#>#>#~#3#>#>#>#>#~#V@]#)#B@%#Q@8#9#&#P@j@n#",
"C@2#K@=#~#>#V@!#f#r@a#3#9@l#(#C@'#>#R#>#K@>#V@8#8#8#9#Q@r#8#r#8#D#)#7#7#J@o@'#>#'#>#[#2#>#>#>#>#>#>#'#R#'#R#>#>#[#;#A#]#l#l#A@u@",
"'#>#>#>#>#R#'#>#2#'#'#2#>#'#>#'#R#>#'#2#A#>#C#Q@r#Q@%#%#Q@Q@Q@Q@Q@8#Q@Q@8#Q@)#P@g#l#3#'#>#>#>#'#2#>#'#[#@#H#N@2#>#d#>#>#>#2#[#N@",
"2#>#2#'#>#2#2#>#'#>#'#'#>#'#'#2#2#>#>#>#0#2#'#!#8#8#8#Q@q#8#q#q#Q@Q@Q@8#8#Q@Q@Q@9#Q@]@p@(#=#3#K@K#E###%#8#8#Q@B@l#b#F#`#E#w@>#j@",
">#>#'#'#'#u#'#>#>#'#2#2#>#'#3#Z@[#w#'#>#'#'#>#a#N#Q@%#r#Q@Q@q#Q@Q@q#Q@%#q#Q@9#8#&#%#Q@9#%#8#8#8#8#t#D#t#!#$#Q@Q@Q@r#Q@%#Q@.#t#8#",
"'#a#;#'#'#>#2#2#'#d#>#=#Z@p@]#8#=#;#'#>#'#>#>#'#H#i#Z@7#t#Q@r#r#Q@q#r#8#Q@Q@8#8#8#8#&#t#8#Q@%#8#!#3#2#'#>#2#E#8#8#Q@q#8#8#%#8#9#",
">#>#>#d#'#*#;#Z@Y@N#s#8#8#Y@3@*#w@'#'#'#'#2#u#J#>#>#'#'#w@!#8#Q@Q@Q@r#9#Q@Q@Q@&#8#Q@Q@Q@Q@8#(#K@C@'#'#'#'#2#>#b#$#Q@q#Q@8#J@P@j@",
"p@m#>#~#V@&#&#8#8#q#8#N#F#'#'#'#'#K@'#>#>#z#8#Q@Y@*#5#~#'#>#=#t#8#Q@Q@8#Q@J@Q@Q@t#O@C#!#=#3#>#'#>#'#C@>#2#>#d#=#m#H#J#A@q#t#@#[#",
"r#Q@!#@#>#=#t#%#r#J@>#'#>#'#'#>#>#'#>#>#0#%#Q@8#8#8#Q@9#Q@Q@r@j#9#%#u@5#G#>#r@t#2#>#>#>#>#>#'#2#'#'#>#2@l#@$j@Q@s#C#~##$l#=#&#t#"};
