/* XPM */
static char * zero_xpm[] = {
"21 21 209 2",
"  	c #F1CE8B",
". 	c #F0CD8A",
"+ 	c #EECB88",
"@ 	c #F1CF8B",
"# 	c #E8C485",
"$ 	c #EAC686",
"% 	c #EDCA88",
"& 	c #F0CF8B",
"* 	c #F0CE8B",
"= 	c #EFCB89",
"- 	c #ECC988",
"; 	c #EBC787",
"> 	c #EAC687",
", 	c #EAC787",
"' 	c #ECCA88",
") 	c #EECC8A",
"! 	c #EFCC8A",
"~ 	c #ECC888",
"{ 	c #EFCD8A",
"] 	c #F0CD8B",
"^ 	c #EBC988",
"/ 	c #EAC586",
"( 	c #D39D6E",
"_ 	c #C77959",
": 	c #BC5041",
"< 	c #BD5242",
"[ 	c #BE5443",
"} 	c #CC815D",
"| 	c #D7A371",
"1 	c #E3BE82",
"2 	c #DDB87D",
"3 	c #DDB77D",
"4 	c #ECC585",
"5 	c #C4634B",
"6 	c #AB001C",
"7 	c #C4634C",
"8 	c #E7C385",
"9 	c #EAC486",
"0 	c #F0CC8A",
"a 	c #BA443B",
"b 	c #AF1A27",
"c 	c #BB4E40",
"d 	c #AF1826",
"e 	c #ECC485",
"f 	c #EFCB88",
"g 	c #EECA89",
"h 	c #EBC786",
"i 	c #ECC786",
"j 	c #E5C083",
"k 	c #D28760",
"l 	c #B84139",
"m 	c #E1B67D",
"n 	c #E3BD82",
"o 	c #E5BB80",
"p 	c #B84039",
"q 	c #C36D52",
"r 	c #DEB77E",
"s 	c #E8C384",
"t 	c #F0CB8A",
"u 	c #F0CC89",
"v 	c #ECC385",
"w 	c #B01C28",
"x 	c #E6B87E",
"y 	c #E7C284",
"z 	c #EECA88",
"A 	c #E7B97E",
"B 	c #E0B079",
"C 	c #E4BE82",
"D 	c #E5BF83",
"E 	c #E2BC81",
"F 	c #E2BC82",
"G 	c #D28D64",
"H 	c #B74038",
"I 	c #E0BB80",
"J 	c #E6C184",
"K 	c #E9C486",
"L 	c #CC805C",
"M 	c #E9C586",
"N 	c #E7C184",
"O 	c #DEB87F",
"P 	c #C57054",
"Q 	c #C66C51",
"R 	c #EFCB8A",
"S 	c #EFCA8A",
"T 	c #C86F52",
"U 	c #E8C385",
"V 	c #DFB880",
"W 	c #E8C285",
"X 	c #BE5342",
"Y 	c #ECC788",
"Z 	c #E5C084",
"` 	c #CE825E",
" .	c #BB4D40",
"..	c #DBB57D",
"+.	c #DDB67E",
"@.	c #E0B980",
"#.	c #EBC687",
"$.	c #E2BB81",
"%.	c #BD5042",
"&.	c #CF835E",
"*.	c #E4BD82",
"=.	c #E0BA80",
"-.	c #E2BB82",
";.	c #CB7E5C",
">.	c #B9493E",
",.	c #DCB57E",
"'.	c #E0BA7F",
").	c #DCB47D",
"!.	c #EAC487",
"~.	c #EFCA89",
"{.	c #BC4F41",
"].	c #CC7E5C",
"^.	c #E6BE84",
"/.	c #E8C185",
"(.	c #EDC789",
"_.	c #CE805D",
":.	c #DDB57E",
"<.	c #E0B97F",
"[.	c #C05C48",
"}.	c #CD805D",
"|.	c #EBC587",
"1.	c #EFC989",
"2.	c #E6BF84",
"3.	c #CC7F5D",
"4.	c #BE5946",
"5.	c #EFC888",
"6.	c #EEC889",
"7.	c #CF825E",
"8.	c #B9483E",
"9.	c #DAB27C",
"0.	c #DCB47C",
"a.	c #DFB97F",
"b.	c #ECC787",
"c.	c #CC7F5C",
"d.	c #E3BC82",
"e.	c #E5BE82",
"f.	c #EDC788",
"g.	c #EEC989",
"h.	c #EEC888",
"i.	c #DFAA77",
"j.	c #B01B27",
"k.	c #EDC787",
"l.	c #E4BC82",
"m.	c #E1BA81",
"n.	c #DEB77F",
"o.	c #AE1826",
"p.	c #D99E6F",
"q.	c #E4BE83",
"r.	c #E1BA80",
"s.	c #E7BF84",
"t.	c #E5BD82",
"u.	c #B42E30",
"v.	c #C87959",
"w.	c #E1B980",
"x.	c #DDB47D",
"y.	c #C77859",
"z.	c #B42F30",
"A.	c #E3BD81",
"B.	c #DEB67E",
"C.	c #DBB47D",
"D.	c #EAC386",
"E.	c #E2BA81",
"F.	c #DCB37D",
"G.	c #D3976B",
"H.	c #C57558",
"I.	c #CF815E",
"J.	c #D4996C",
"K.	c #ECC687",
"L.	c #E8C085",
"M.	c #E0B880",
"N.	c #DDB47E",
"O.	c #CA805E",
"P.	c #D38D64",
"Q.	c #EBC487",
"R.	c #ECC688",
"S.	c #E0B77F",
"T.	c #DBB17D",
"U.	c #DCB37E",
"V.	c #DEB57E",
"W.	c #DEB67F",
"X.	c #E5BB83",
"Y.	c #DBA071",
"Z.	c #C25E4A",
"`.	c #C05B48",
" +	c #DCA573",
".+	c #E8C084",
"++	c #E9C286",
"@+	c #E7C085",
"#+	c #DCB37C",
"$+	c #E3BA82",
"%+	c #DEB57F",
"&+	c #E3BB82",
"*+	c #E6BD84",
"=+	c #D79C6E",
"-+	c #DDA272",
";+	c #DA9E6F",
">+	c #E5BD84",
",+	c #E2B981",
"'+	c #EDC589",
")+	c #EDC689",
"!+	c #EDC688",
"~+	c #ECC588",
"{+	c #EBC388",
"]+	c #E9C185",
"^+	c #EBC387",
"/+	c #EAC387",
"(+	c #E5BD83",
"_+	c #DBB27D",
":+	c #DBB37D",
"  .     .   +   @   . # $     @   @ @   % ",
"& * * * = - ; % > $ , ' ) . ! ~ { * & * # ",
"* ] * . ^ , / ( _ : < [ } | 1 ; * * * # 2 ",
"3 1 . % ] 4 5 6 6 6 6 6 6 6 7 4 ] * 8 # # ",
"9 . . 0 0 a 6 6 6 b c d 6 6 6 a e . f g h ",
"0 i j $ k 6 6 6 l m n o p 6 6 6 q r s . . ",
"t u 0 v w 6 6 6 x s y z A 6 6 6 6 B C D E ",
"; g F G 6 6 6 H I E J K ; l 6 6 6 L M ! ! ",
"y N O P 6 6 6 Q R S > g R T 6 6 6 Q U K ~ ",
"V O W X 6 6 6 _ Y S S U Z ` 6 6 6  ...+.@.",
"n #.$.%.6 6 6 &.W *.=.-.K ;.6 6 6 >.,.'.).",
"!.S ~.{.6 6 6 ].^./.(.(./._.6 6 6 >.:.<.@.",
"S S Y [.6 6 6 }.!.#.|.1.2.3.6 6 6 4.F 9 Y ",
"|.5.6.7.6 6 6 8.9.0.a.E b.{.6 6 6 c.d.*.e.",
"f.g.h.i.6 6 6 j.b.k.l.m.n.o.6 6 6 p.|.2.q.",
"+.r.s.t.u.6 6 6 v.w.:.x.y.6 6 6 z.A.B.C.'.",
"!.D.E.F.G.6 6 6 6 H.G.I.6 6 6 6 J.+.m./.|.",
"K.L.M.N.B.O.6 6 6 6 6 6 6 6 6 P.Q.R.D.l.*.",
"S.T.U.V.W.X.Y.Z.6 6 6 6 6 `. +.+++@+/.s.#+",
"M.^.$+%+&+*+2.Q.Q.=+-+;+@+>+l.,+$+/.2.B.:.",
"'+)+(.!+Q.~+{+]+{+^+/+R.s.!+/+(+M._+:+F.M."};
